<?xml version="1.0" standalone="no"?>
<!DOCTYPE svg PUBLIC "-//W3C//DTD SVG 20010904//EN"
 "http://www.w3.org/TR/2001/REC-SVG-20010904/DTD/svg10.dtd">
<svg version="1.0" xmlns="http://www.w3.org/2000/svg"
 width="242.000000pt" height="270.000000pt" viewBox="0 0 242.000000 270.000000"
 preserveAspectRatio="xMidYMid meet">
<metadata>
Created by potrace 1.10, written by Peter Selinger 2001-2011
</metadata>
<g transform="translate(0.000000,270.000000) scale(0.050000,-0.050000)"
fill="#000000" stroke="none">
<path d="M3390 4898 c-768 -156 -1410 -277 -1474 -277 -293 -2 -773 -96 -853
-168 -18 -16 -238 -70 -503 -123 -590 -117 -560 -109 -560 -142 0 -15 7 -28
16 -28 17 0 876 170 959 190 37 9 45 2 45 -35 0 -44 -20 -50 -495 -143 -451
-89 -549 -115 -524 -140 5 -5 229 36 498 90 269 54 497 98 506 98 9 0 14 -88
11 -195 l-6 -195 -500 -101 c-404 -82 -501 -108 -506 -135 -4 -19 1 -34 11
-34 18 0 874 170 961 190 42 10 46 5 40 -54 l-6 -65 -505 -100 c-413 -82 -505
-106 -505 -133 0 -28 64 -19 492 66 270 55 495 95 500 91 4 -4 13 -156 21
-336 7 -181 21 -345 31 -366 14 -26 10 -46 -12 -71 -28 -31 -32 -162 -32
-1145 l0 -1110 45 -40 c312 -275 2807 -264 2955 13 42 78 26 2256 -17 2283
-36 22 -36 24 0 60 39 39 45 199 37 1039 l-2 292 376 74 c453 90 446 88 446
123 0 38 48 45 -622 -89 l-591 -119 -178 24 -179 24 290 56 c973 188 1280 259
1280 297 0 28 -11 34 -45 26 -230 -54 -1747 -350 -1794 -350 -100 0 -355 303
-277 329 14 5 490 101 1056 213 940 186 1085 220 1059 246 -5 5 -490 -89
-1079 -209 -588 -119 -1073 -208 -1077 -198 -3 11 -57 20 -120 20 -81 1 192
63 977 220 600 120 1137 228 1195 240 107 22 153 82 60 77 -25 -2 -657 -127
-1405 -280z m-701 -392 c21 -52 84 -141 140 -199 113 -116 95 -111 511 -147
149 -13 285 -32 304 -42 21 -12 80 -7 160 12 69 16 137 30 151 30 19 0 25 -61
25 -240 0 -132 -2 -240 -5 -240 -3 0 -61 18 -128 39 -594 186 -2300 170 -2767
-27 -53 -22 -31 686 23 733 106 90 632 160 1297 172 l250 4 39 -95z m794 -754
c238 -34 428 -80 472 -116 18 -15 25 -112 25 -355 l0 -334 -135 45 c-535 179
-2312 166 -2747 -20 -37 -16 -69 586 -35 652 83 160 1612 241 2420 128z m-393
-688 c60 -11 82 -25 86 -56 6 -40 1 -40 -507 -32 -575 10 -1029 -17 -1313 -79
-237 -52 -286 -55 -286 -17 0 137 1506 274 2020 184z m345 -35 c14 -4 25 -26
25 -48 0 -52 -139 -59 -189 -10 -72 73 16 104 164 58z m271 -41 c168 -38 254
-78 254 -117 0 -41 -39 -47 -126 -17 -42 15 -143 38 -223 51 -139 24 -145 27
-129 70 20 54 37 55 224 13z m-516 -69 c299 -26 564 -70 686 -115 l94 -35 6
-177 c5 -163 3 -176 -30 -162 -469 194 -2097 223 -2752 48 -41 -11 -71 -26
-67 -34 5 -8 -12 -15 -39 -17 -47 -3 -48 0 -48 166 l0 169 87 39 c262 116
1357 179 2063 118z m-830 -1059 l0 -700 -150 0 -150 0 0 700 0 700 150 0 150
0 0 -700z m280 0 l0 -700 -130 0 -130 0 0 700 0 700 130 0 130 0 0 -700z m320
0 l0 -700 -150 0 -150 0 0 700 0 700 150 0 150 0 0 -700z m-1212 -5 c-13 -804
0 -729 -127 -738 l-101 -7 0 704 0 704 95 7 c52 4 106 9 119 11 19 3 22 -148
14 -681z m272 -14 l0 -701 -120 0 -120 0 0 696 0 696 120 4 120 5 0 -700z
m1220 -11 l0 -700 -130 7 -130 6 0 700 0 699 130 -6 130 -6 0 -700z m255 -24
l6 -703 -116 11 c-63 6 -117 13 -119 15 -3 2 1 318 8 702 l12 700 102 -11 102
-10 5 -704z m-2000 -697 c-3 -2 -43 -11 -90 -18 l-85 -15 0 701 0 701 85 6 85
6 5 -688 c3 -379 3 -690 0 -693z m-208 654 c-10 -544 -19 -703 -39 -703 -13 0
-39 -5 -56 -12 -29 -11 -32 58 -32 689 l0 702 65 17 c36 10 67 16 70 14 3 -2
-1 -320 -8 -707z m2351 705 l62 -13 0 -696 c0 -770 13 -699 -125 -670 l-55 12
0 689 c0 572 5 690 28 690 15 0 55 -6 90 -12z m177 -21 l45 -12 0 -705 0 -706
-73 22 -73 22 13 209 c7 115 13 428 13 696 0 268 7 487 15 487 8 0 35 -6 60
-13z m-2675 -735 c0 -706 -1 -712 -72 -712 -4 0 -8 315 -8 700 0 687 1 700 40
700 39 0 40 -13 40 -688z m2820 -33 c0 -694 0 -700 -40 -679 -63 34 -63 1380
0 1380 39 0 40 -13 40 -701z m-651 -591 c607 -60 671 -91 671 -326 l0 -177
-75 36 c-412 200 -2422 204 -2810 6 l-55 -28 0 177 c0 169 2 179 49 200 314
143 1366 196 2220 112z m131 -397 c1010 -139 459 -359 -900 -360 -993 0 -1680
124 -1422 258 262 136 1637 196 2322 102z"/>
<path d="M1993 680 c-460 -42 -654 -132 -458 -213 390 -163 2015 -120 2015 53
0 123 -917 217 -1557 160z m927 -22 c85 -2 99 -6 60 -18 -65 -21 -622 -24
-862 -5 l-188 15 190 13 c105 7 303 9 440 5 138 -4 300 -9 360 -10z m-1191
-83 c-8 -25 -16 -47 -18 -50 -2 -2 -44 8 -92 22 l-89 27 60 15 c33 8 69 18 80
21 55 19 72 9 59 -35z m184 25 c16 0 27 -21 27 -50 0 -51 -83 -70 -165 -39
-62 24 -16 114 50 101 33 -7 72 -12 88 -12z m203 -55 c6 -64 5 -65 -75 -65
-76 0 -81 4 -81 57 0 114 145 122 156 8z m908 5 l8 -70 -86 0 c-124 0 -134
113 -11 125 41 5 76 10 78 12 1 1 6 -28 11 -67z m348 47 c104 -26 93 -55 -23
-62 -68 -4 -80 1 -85 40 -8 52 -9 52 108 22z m-812 -35 c0 -77 -23 -102 -92
-102 -64 0 -68 4 -68 70 0 68 2 70 80 70 66 0 80 -7 80 -38z m194 -37 l18 -75
159 6 c147 5 433 46 547 77 33 9 44 6 34 -9 -93 -151 -1583 -167 -1957 -21
-104 41 -55 50 81 15 274 -69 917 -106 933 -53 4 14 13 50 20 80 20 95 141 80
165 -20z m486 27 c0 -42 -11 -49 -85 -57 -102 -10 -89 -16 -106 50 -13 55 -13
55 89 55 94 0 102 -4 102 -48z m-860 -32 c0 -53 -7 -60 -57 -60 -110 0 -183
24 -183 59 0 53 18 61 133 61 106 0 107 -1 107 -60z m460 0 c0 -49 -39 -93
-40 -45 0 8 -6 35 -13 60 -8 33 -3 45 21 45 22 0 32 -18 32 -60z"/>
</g>
</svg>
