<?xml version="1.0" standalone="no"?>
<!DOCTYPE svg PUBLIC "-//W3C//DTD SVG 20010904//EN"
 "http://www.w3.org/TR/2001/REC-SVG-20010904/DTD/svg10.dtd">
<svg version="1.0" xmlns="http://www.w3.org/2000/svg"
 width="189.000000pt" height="300.000000pt" viewBox="0 0 189.000000 300.000000"
 preserveAspectRatio="xMidYMid meet">
<metadata>
Created by potrace 1.10, written by Peter Selinger 2001-2011
</metadata>
<g transform="translate(0.000000,300.000000) scale(0.100000,-0.100000)"
fill="#000000" stroke="none">
<path d="M850 2514 c-101 -26 -200 -82 -271 -153 -77 -78 -111 -135 -150 -254
-24 -75 -29 -105 -29 -191 0 -108 13 -201 35 -251 7 -16 28 -66 46 -110 18
-44 49 -120 69 -170 57 -138 83 -269 99 -502 7 -101 13 -130 36 -177 15 -31
34 -56 41 -56 9 0 14 -11 14 -29 0 -17 5 -33 10 -36 6 -3 10 -1 10 4 0 7 40
11 112 11 61 0 108 -3 105 -6 -5 -6 -86 -16 -212 -27 -23 -2 -33 -36 -14 -48
11 -6 11 -12 0 -32 -11 -20 -11 -28 1 -46 11 -18 11 -23 -2 -31 -12 -7 -12
-13 -1 -33 11 -20 11 -28 -1 -46 -8 -14 -9 -24 -3 -29 6 -4 15 -16 21 -27 6
-11 25 -25 42 -30 18 -6 48 -27 68 -45 l35 -35 98 0 98 0 42 37 c22 21 49 38
59 38 26 0 66 45 58 65 -3 9 0 24 6 35 9 14 9 22 -2 35 -10 12 -10 19 -2 27
16 16 15 45 0 51 -10 3 -10 9 1 30 12 22 12 29 1 42 -10 12 -10 19 -2 27 7 7
12 31 12 55 0 32 4 43 15 43 9 0 28 27 45 63 23 49 30 78 30 123 0 57 22 262
36 334 17 93 76 252 179 485 41 94 52 310 20 420 -30 107 -80 198 -150 272
-54 59 -82 79 -158 117 -50 25 -119 50 -151 55 -83 15 -230 12 -296 -5z m289
-8 c228 -44 403 -218 457 -455 19 -85 15 -261 -8 -346 l-13 -50 -561 -3 c-528
-2 -562 -1 -569 15 -17 46 -35 161 -35 228 0 106 24 207 72 305 117 240 375
360 657 306z m421 -871 c0 -3 -29 -75 -65 -160 -92 -219 -114 -312 -136 -585
-6 -74 -15 -142 -20 -151 -7 -14 -48 -17 -320 -24 l-312 -7 -17 22 c-13 17
-20 63 -29 179 -22 275 -42 353 -150 604 -28 65 -51 120 -51 122 0 3 248 5
550 5 303 0 550 -2 550 -5z m-250 -954 c-9 -18 -25 -19 -299 -21 -282 -1 -290
0 -301 20 -11 20 -9 20 300 20 303 0 310 0 300 -19z m-40 -71 l0 -40 -95 0
c-52 0 -95 -3 -95 -8 0 -4 -34 -6 -75 -4 -46 3 -80 0 -89 -7 -8 -7 -34 -9 -68
-5 -39 4 -58 2 -63 -6 -6 -10 29 -11 166 -6 96 4 202 11 237 15 56 7 62 6 62
-11 0 -11 -7 -18 -18 -18 -10 0 -22 -3 -26 -7 -3 -4 -28 -6 -55 -4 -27 1 -52
-2 -56 -8 -3 -6 -14 -11 -23 -10 -14 0 -13 2 3 9 15 6 16 9 4 9 -9 1 -19 -2
-23 -6 -4 -4 -55 -7 -114 -6 -77 0 -94 -1 -62 -7 l45 -7 -55 -1 c-73 -2 -100
6 -100 29 0 11 -6 19 -12 19 -34 1 31 30 66 30 46 0 165 18 179 27 23 14 -27
23 -135 23 -111 0 -118 1 -118 20 0 19 7 20 260 20 l260 0 0 -40z m-307 -67
c-7 -2 -19 -2 -25 0 -7 3 -2 5 12 5 14 0 19 -2 13 -5z m295 -40 c-10 -2 -26
-2 -35 0 -10 3 -2 5 17 5 19 0 27 -2 18 -5z m-68 -13 c22 -7 21 -8 -12 -9 -21
-1 -38 4 -38 9 0 11 14 11 50 0z m-265 -25 c91 -2 113 -1 75 5 -38 5 -9 7 96
6 142 -1 151 -2 161 -22 9 -19 7 -20 -51 -16 -45 2 -57 0 -46 -7 12 -9 11 -11
-8 -11 -14 0 -21 4 -16 11 4 7 -2 6 -17 -1 -17 -10 -24 -10 -27 -1 -2 6 -9 8
-15 4 -6 -4 -49 -6 -94 -4 -45 1 -88 -1 -95 -5 -7 -4 -30 -7 -51 -5 -21 1 -45
-3 -53 -9 -12 -10 -14 -8 -14 13 0 19 6 27 23 30 15 3 12 5 -11 6 -21 0 -31 5
-27 12 4 6 14 7 24 3 9 -4 75 -8 146 -9z m332 -82 l2 -35 -128 7 c-90 5 -131
4 -135 -4 -4 -6 -12 -11 -17 -11 -6 0 -7 5 -3 12 5 7 3 8 -5 3 -7 -4 -54 -7
-104 -8 -77 0 -84 -1 -42 -7 l50 -7 -52 -1 c-93 -3 -57 -20 40 -20 61 1 84 4
67 9 -14 5 18 6 75 3 55 -2 132 -1 172 4 67 8 72 7 75 -12 4 -21 0 -21 -236
-23 -260 -3 -261 -3 -250 51 4 18 1 31 -7 36 -7 5 23 7 67 5 66 -3 71 -2 29 4
-30 5 4 6 86 3 87 -3 138 -1 142 5 4 6 38 9 84 7 54 -2 71 0 56 6 -31 13 -29
17 5 12 23 -3 27 -9 29 -39z m-271 30 c-7 -7 -87 -5 -95 3 -2 2 20 4 49 4 29
0 50 -3 46 -7z m87 -10 c-7 -2 -19 -2 -25 0 -7 3 -2 5 12 5 14 0 19 -2 13 -5z
m12 -63 c13 -6 2 -7 -30 -3 -27 3 -52 7 -54 9 -9 8 65 2 84 -6z m58 -57 c-34
-2 -93 -2 -130 0 -37 2 -9 3 62 3 72 0 102 -1 68 -3z m95 -11 c7 -23 -80 -34
-254 -30 -121 2 -177 7 -186 16 -15 15 -31 14 214 12 126 -1 188 2 193 10 8
13 27 9 33 -8z m-104 -67 c-16 -24 -20 -25 -123 -25 -101 1 -107 2 -124 25
l-18 25 141 0 140 0 -16 -25z"/>
<path d="M810 1325 c0 -37 4 -65 10 -65 6 0 10 28 10 65 0 37 -4 65 -10 65 -6
0 -10 -28 -10 -65z"/>
<path d="M850 1325 c0 -72 17 -90 22 -23 l3 42 28 -42 c15 -23 32 -42 37 -42
13 0 13 117 1 125 -6 3 -11 -16 -13 -42 l-3 -48 -28 48 c-15 26 -32 47 -37 47
-6 0 -10 -29 -10 -65z"/>
<path d="M970 1325 c0 -72 17 -90 22 -23 l3 42 28 -42 c15 -23 31 -42 35 -42
10 0 14 109 4 124 -4 6 -9 -11 -12 -39 l-5 -50 -28 48 c-15 26 -32 47 -37 47
-6 0 -10 -29 -10 -65z"/>
<path d="M1090 1325 c0 -37 4 -65 10 -65 6 0 10 14 10 30 0 42 25 38 49 -7 6
-13 19 -23 27 -23 13 0 12 5 -5 28 -18 25 -18 30 -5 44 29 28 -3 57 -63 58
-22 0 -23 -4 -23 -65z m75 25 c0 -9 -11 -16 -27 -18 -23 -3 -28 1 -28 18 0 17
5 21 28 18 16 -2 27 -9 27 -18z"/>
<path d="M1188 363 c12 -2 32 -2 45 0 12 2 2 4 -23 4 -25 0 -35 -2 -22 -4z"/>
</g>
</svg>
