<?xml version="1.0" standalone="no"?>
<!DOCTYPE svg PUBLIC "-//W3C//DTD SVG 20010904//EN"
 "http://www.w3.org/TR/2001/REC-SVG-20010904/DTD/svg10.dtd">
<svg version="1.0" xmlns="http://www.w3.org/2000/svg"
 width="300.000000pt" height="167.000000pt" viewBox="0 0 300.000000 167.000000"
 preserveAspectRatio="xMidYMid meet">
<metadata>
Created by potrace 1.10, written by Peter Selinger 2001-2011
</metadata>
<g transform="translate(0.000000,167.000000) scale(0.050000,-0.050000)"
fill="#000000" stroke="none">
<path d="M2610 2928 c-1068 -82 -1856 -372 -2054 -756 -69 -132 -68 -938 0
-1076 501 -1016 4547 -1025 5052 -12 73 146 81 944 11 1089 -240 494 -1684
857 -3009 755z m1140 -69 c713 -62 1429 -291 1688 -539 158 -151 170 -187 178
-520 l8 -290 -60 81 c-567 779 -3435 941 -4647 264 -116 -65 -288 -224 -351
-326 -25 -39 -21 305 6 526 66 545 1623 939 3178 804z m-182 -620 c157 -12
330 -30 384 -40 l98 -18 -110 10 c-646 53 -1049 53 -1700 -1 l-110 -9 103 19
c298 55 890 72 1335 39z m272 -80 c636 -66 1422 -319 1580 -509 14 -17 -23 1
-82 42 -935 631 -3491 640 -4482 16 -47 -30 -74 -40 -60 -22 173 209 1061 443
1904 502 185 13 917 -6 1140 -29z m450 -12 c99 -18 171 -36 160 -40 -11 -4
-105 10 -210 31 -104 21 -176 39 -160 40 17 1 111 -13 210 -31z m-2459 -29
c-99 -21 -189 -35 -200 -32 -26 9 261 69 329 70 28 0 -31 -17 -129 -38z m1885
1 c1481 -160 2243 -665 1747 -1158 -789 -786 -3958 -791 -4751 -7 -496 490
260 1000 1728 1164 220 25 1051 25 1276 1z m-2255 -90 c-82 -26 -153 -44 -157
-39 -10 10 237 88 276 87 17 0 -37 -22 -119 -48z m3317 0 c58 -18 102 -35 98
-40 -4 -4 -61 9 -127 30 -65 21 -109 38 -98 39 12 1 69 -12 127 -29z"/>
<path d="M2560 1687 c-1650 -204 -1384 -1039 350 -1100 1678 -59 2380 730 931
1046 -225 49 -1042 84 -1281 54z m1309 -116 c936 -222 752 -661 -327 -780
-1504 -166 -2567 468 -1292 770 416 98 1227 104 1619 10z m-1919 -67 c-443
-189 -423 -442 47 -621 971 -370 2742 -69 2490 423 l-32 64 44 -40 c161 -143
111 -323 -126 -455 -848 -474 -3014 -232 -2875 321 27 104 381 347 501 343 17
-1 -5 -17 -49 -35z"/>
</g>
</svg>
