<?xml version="1.0" standalone="no"?>
<!DOCTYPE svg PUBLIC "-//W3C//DTD SVG 20010904//EN"
 "http://www.w3.org/TR/2001/REC-SVG-20010904/DTD/svg10.dtd">
<svg version="1.0" xmlns="http://www.w3.org/2000/svg"
 width="900.000000pt" height="1428.000000pt" viewBox="0 0 900.000000 1428.000000"
 preserveAspectRatio="xMidYMid meet">
<metadata>
Created by potrace 1.10, written by Peter Selinger 2001-2011
</metadata>
<g transform="translate(0.000000,1428.000000) scale(0.100000,-0.100000)"
fill="#000000" stroke="none">
<path d="M2835 13630 c-108 -12 -185 -28 -204 -42 -29 -23 -141 -141 -204
-217 -34 -40 -76 -88 -93 -105 -25 -25 -34 -47 -48 -114 -14 -73 -16 -195 -16
-1097 l0 -1014 -42 -34 c-43 -35 -83 -63 -282 -197 -118 -79 -133 -81 -150
-24 -4 16 -14 43 -21 59 -7 17 -21 50 -31 75 -11 25 -44 69 -76 100 -92 90
-197 125 -378 125 -112 0 -146 -7 -275 -60 -154 -63 -172 -67 -350 -77 -171
-9 -311 -28 -395 -53 -25 -7 -72 -21 -105 -30 -33 -10 -84 -27 -112 -38 l-53
-21 0 -78 c0 -43 2 -78 5 -78 2 0 30 16 61 36 85 54 150 81 260 108 119 29
161 34 369 45 108 6 175 14 205 26 127 48 190 73 213 86 30 16 168 30 242 23
178 -15 257 -71 313 -219 50 -131 50 -133 0 -154 -31 -13 -81 -20 -173 -25
-89 -5 -137 -11 -152 -22 -32 -20 -30 -59 3 -81 25 -16 35 -16 187 0 128 14
176 24 235 47 66 27 267 155 525 336 43 30 113 73 157 95 60 31 81 47 91 71
12 29 48 79 174 243 52 68 25 60 246 67 91 2 110 0 126 -15 11 -9 27 -17 37
-17 10 0 24 -7 32 -15 9 -8 30 -15 48 -15 57 0 70 -26 63 -122 -11 -152 -57
-265 -182 -448 -187 -274 -341 -494 -370 -530 -22 -27 -92 -98 -203 -203 -116
-112 -147 -167 -210 -382 -62 -209 -95 -368 -122 -595 -4 -41 -19 -145 -31
-230 -13 -85 -23 -175 -23 -200 1 -61 36 -126 79 -147 30 -15 37 -15 73 0 68
27 186 113 233 169 25 29 72 91 104 137 127 179 216 253 445 373 36 19 90 48
120 66 59 33 207 90 305 117 138 38 166 44 292 61 97 12 139 14 155 7 l23 -11
-26 -10 c-29 -12 -130 -102 -158 -141 -23 -33 -35 -71 -23 -71 6 0 15 12 20
28 18 47 100 123 179 163 51 26 146 26 206 -1 25 -11 64 -41 86 -66 34 -39 40
-54 46 -109 18 -160 -36 -256 -214 -380 -47 -33 -59 -37 -98 -32 -54 6 -57
-11 -3 -19 22 -4 40 -12 40 -18 0 -19 -224 -282 -383 -450 -55 -59 -149 -168
-461 -535 -431 -507 -676 -738 -1111 -1047 -61 -43 -675 -442 -722 -469 -41
-23 -418 -273 -563 -372 -231 -158 -524 -384 -687 -531 l-83 -74 0 -75 0 -75
98 90 c282 261 731 590 1279 938 274 173 376 239 592 382 135 90 253 170 262
178 8 8 21 14 27 14 9 0 12 -305 12 -1265 0 -1468 -5 -1388 85 -1484 29 -31
70 -76 90 -101 91 -110 172 -191 200 -199 16 -6 72 -17 123 -25 78 -14 223
-16 968 -16 l877 0 72 -69 c62 -58 276 -201 302 -201 4 0 85 -38 180 -86 159
-78 271 -132 488 -234 44 -21 199 -96 345 -167 471 -231 573 -280 709 -338 74
-31 142 -60 150 -65 20 -9 76 -33 116 -50 66 -27 186 -63 339 -101 89 -22 186
-46 216 -54 71 -17 173 -38 410 -84 51 -10 268 -45 560 -91 125 -20 223 -38
355 -66 39 -8 87 -14 108 -14 l37 0 0 49 0 50 -52 10 c-29 5 -93 17 -143 26
-49 8 -126 22 -170 30 -103 18 -234 40 -360 60 -55 9 -134 23 -175 30 -41 8
-115 22 -165 30 -169 30 -436 85 -513 106 -42 12 -93 25 -112 30 -125 29 -307
93 -500 177 -170 73 -258 115 -860 409 -272 134 -421 204 -489 234 -109 46
-335 167 -346 183 -8 14 -3 23 28 48 23 19 37 38 37 53 0 12 7 28 15 35 8 7
15 28 15 49 -1 34 -2 35 -15 17 -8 -11 -15 -27 -15 -36 0 -17 -26 -71 -52
-109 -15 -22 -21 -23 -70 -17 -66 9 -189 41 -220 57 -118 62 -198 209 -175
319 5 24 20 61 33 82 25 40 91 88 121 88 10 1 29 7 43 15 14 8 40 14 58 15 35
0 42 13 15 29 -28 15 -9 25 112 59 137 38 203 50 380 66 195 18 464 -2 665
-50 118 -28 125 -32 281 -128 147 -90 200 -112 314 -132 119 -20 159 -14 185
29 26 42 26 116 1 165 -11 21 -85 147 -165 281 -80 133 -146 244 -146 246 0
14 -169 250 -237 333 -147 178 -220 230 -412 297 -105 37 -223 89 -251 111 -8
6 -41 26 -72 43 -108 58 -173 94 -218 119 -25 13 -106 56 -180 95 -74 38 -169
88 -210 110 -41 22 -131 69 -200 105 -163 85 -241 137 -318 213 -59 59 -122
149 -137 196 -5 19 -1 25 20 33 14 5 49 34 78 63 29 29 102 90 162 136 61 46
113 92 117 102 9 24 11 24 56 -4 120 -76 290 -154 492 -227 63 -22 127 -47
142 -55 14 -8 33 -15 42 -15 9 0 24 -4 34 -9 148 -80 256 -115 472 -156 47 -9
114 -23 150 -30 204 -44 240 -49 355 -48 110 0 129 3 227 36 116 39 188 72
188 86 0 5 3 16 6 24 3 8 -3 22 -12 32 -14 13 -27 16 -62 11 -25 -3 -50 -10
-56 -15 -15 -11 -169 -60 -214 -67 -30 -5 -41 -2 -56 15 -17 18 -20 37 -20
129 0 96 3 113 28 164 38 80 124 147 253 197 54 21 305 51 426 51 33 0 71 6
85 14 15 8 66 30 113 50 184 76 364 108 534 95 139 -11 199 -28 297 -83 95
-54 144 -61 154 -21 8 32 -16 69 -56 90 -33 17 -32 35 1 35 17 0 87 34 154 75
48 30 117 36 315 25 107 -5 207 -13 223 -16 l27 -6 0 60 c0 53 -2 60 -22 66
-13 3 -127 6 -255 6 -256 0 -285 -5 -378 -63 l-50 -32 -250 -6 c-230 -6 -401
-19 -424 -33 -5 -3 -35 -10 -68 -15 -32 -5 -74 -14 -93 -21 -45 -17 -160 -62
-230 -91 -46 -19 -88 -25 -260 -35 -210 -13 -243 -20 -340 -69 -27 -14 -54
-25 -60 -25 -7 0 -11 1035 -12 3233 -3 3590 3 3282 -69 3363 -19 20 -63 70
-100 110 -36 40 -87 99 -115 132 -54 65 -95 86 -184 96 -30 4 -80 11 -110 16
-66 10 -3044 10 -3145 0z m3241 -71 c30 -6 70 -19 89 -30 39 -23 201 -217 221
-264 32 -78 34 -218 34 -3254 l0 -3031 -26 -10 c-28 -11 -3732 -14 -3771 -4
-13 4 -23 9 -23 13 0 4 75 83 168 177 92 93 200 204 240 247 40 42 77 77 83
77 6 0 33 -16 59 -35 83 -61 133 -77 240 -77 113 0 160 16 246 83 73 57 119
132 146 236 19 75 19 80 3 148 -23 95 -57 158 -116 216 -27 26 -49 52 -49 57
0 8 146 172 170 192 3 3 64 73 134 155 71 83 137 151 147 153 10 2 25 -7 34
-22 21 -32 108 -96 165 -121 35 -16 66 -20 150 -19 94 0 111 3 163 28 116 57
206 176 228 304 29 165 -64 349 -214 420 -69 33 -100 42 -167 44 -58 1 -77 11
-94 51 -28 67 -97 139 -161 168 -175 79 -483 59 -821 -52 -68 -23 -127 -45
-130 -50 -3 -5 -12 -9 -20 -9 -8 0 -31 -11 -52 -23 -20 -13 -75 -44 -122 -67
-160 -82 -291 -170 -370 -250 -20 -19 -78 -92 -129 -162 -52 -71 -98 -128
-103 -128 -17 0 -20 67 -15 502 5 498 3 486 71 603 36 62 233 257 255 253 12
-3 15 -14 13 -47 -3 -34 1 -48 19 -67 30 -32 78 -40 118 -20 28 15 34 15 67 1
25 -10 49 -13 73 -8 20 4 40 6 46 4 5 -1 52 -5 104 -7 89 -4 97 -3 112 17 l16
22 21 -21 c20 -20 31 -21 123 -19 76 2 103 7 109 18 4 7 5 57 1 109 l-6 95
-103 3 c-60 1 -111 -2 -123 -9 -14 -7 -24 -7 -33 0 -18 15 -314 8 -348 -9 -24
-11 -33 -11 -60 3 -18 9 -41 18 -50 21 -10 3 -18 9 -18 14 0 11 0 11 229 337
215 307 277 422 312 580 20 92 25 103 64 142 87 85 121 144 148 251 13 55 13
70 0 130 -37 169 -143 286 -299 326 -78 20 -111 20 -193 0 -80 -20 -121 -43
-184 -103 -67 -63 -95 -119 -117 -235 -7 -36 -21 -62 -53 -95 -47 -53 -239
-296 -247 -314 -3 -7 -13 -24 -24 -40 -15 -21 -21 -25 -32 -16 -12 10 -14 157
-13 893 0 484 4 951 8 1036 6 145 9 158 36 210 34 64 173 221 221 251 22 13
61 23 116 28 127 12 3218 12 3284 0z m411 -501 c-2 -18 -4 -4 -4 32 0 36 2 50
4 33 2 -18 2 -48 0 -65z m0 -4580 c-1 -827 -2 -153 -2 1497 0 1650 1 2326 2
1503 2 -823 2 -2173 0 -3000z m-3154 3328 c95 -63 137 -141 137 -251 0 -67
-19 -130 -53 -177 -32 -43 -45 -29 -78 80 -9 32 -10 45 -1 54 7 7 12 26 12 44
0 35 -18 48 -55 38 -13 -3 -44 3 -71 14 -103 43 -182 50 -291 26 -29 -6 -33
-4 -33 16 0 31 63 121 104 149 62 41 105 52 193 47 73 -3 86 -7 136 -40z
m-148 -301 c51 -26 61 -35 68 -66 5 -21 4 -46 -3 -63 -10 -26 -13 -27 -53 -21
-23 4 -46 14 -50 21 -4 8 -18 14 -30 14 -12 0 -31 8 -42 16 -15 12 -44 15
-120 14 -55 -1 -108 -1 -117 -1 -28 1 -22 36 13 75 34 39 60 45 199 42 62 -1
86 -7 135 -31z m-160 -1445 c3 -5 1 -19 -6 -31 -10 -19 -12 -20 -26 -6 -9 9
-13 23 -10 31 7 18 32 21 42 6z m1496 -939 c61 -27 122 -82 155 -139 24 -42
27 -57 28 -142 0 -93 0 -96 -37 -152 -85 -132 -233 -181 -369 -120 -52 23
-106 68 -130 110 l-17 29 81 109 c85 113 123 188 134 264 4 25 8 48 11 53 8
14 101 7 144 -12z m-2251 -458 c0 -58 -3 -73 -15 -73 -12 0 -15 14 -15 69 0
38 3 77 6 86 13 32 24 -7 24 -82z m1324 -684 c19 -17 48 -56 63 -87 38 -79 39
-183 0 -258 -87 -170 -290 -218 -449 -105 -21 14 -38 34 -38 43 0 9 21 39 46
67 42 46 50 51 89 51 41 0 75 -18 75 -41 0 -5 15 -9 34 -9 30 0 37 5 55 43 25
52 25 56 5 78 -11 12 -17 41 -19 88 -3 66 -1 74 27 108 50 64 62 66 112 22z
m2796 -1084 c0 -13 -222 -15 -1940 -15 -1067 0 -1940 4 -1940 8 0 5 3 12 7 15
3 4 876 7 1940 7 1712 0 1933 -2 1933 -15z m-3374 -165 l0 -90 -326 2 -325 3
-3 70 c-5 110 -21 105 347 105 l307 0 0 -90z m1022 18 c-1 -40 1 -80 3 -88 3
-13 -17 -15 -136 -18 l-140 -3 0 91 0 90 137 0 137 0 -1 -72z m1027 -20 l0
-88 -115 1 c-158 1 -154 -2 -156 98 l-2 82 136 -3 136 -3 1 -87z m1400 2 l0
-85 -325 -3 -326 -2 0 90 0 90 326 -2 325 -3 0 -85z m-2804 30 c35 -19 23 -47
-28 -64 -36 -13 -89 -16 -242 -16 -193 0 -249 7 -285 33 -18 14 -18 15 2 35
21 21 29 22 278 22 157 0 263 -4 275 -10z m1037 -22 c4 -32 -5 -34 -63 -13
-51 18 -139 19 -196 1 -135 -43 -163 -48 -210 -43 -54 7 -100 26 -106 43 -2 7
3 19 12 28 15 14 48 16 288 14 l272 -3 3 -27z m1013 22 c27 -15 23 -45 -8 -61
-42 -20 -432 -26 -499 -6 -51 15 -66 36 -44 62 10 12 57 15 272 15 160 0 267
-4 279 -10z m-1092 -134 c22 -14 41 -31 44 -38 6 -18 -17 -60 -43 -78 -13 -8
-28 -20 -34 -26 -6 -5 -19 -13 -28 -17 -10 -3 -18 -11 -18 -17 0 -5 -6 -10
-14 -10 -7 0 -47 -34 -89 -75 -101 -100 -114 -101 -156 -1 -17 41 -31 82 -31
91 0 9 26 43 58 75 49 48 70 62 126 79 37 11 75 25 84 31 28 16 60 11 101 -14z
m-439 -56 c0 -7 -296 -10 -869 -10 -569 0 -872 3 -876 10 -4 7 288 10 869 10
577 0 876 -3 876 -10z m2210 0 c0 -7 -238 -10 -694 -10 -453 0 -697 3 -701 10
-4 7 230 10 694 10 461 0 701 -3 701 -10z m-2222 -97 c5 -31 -24 -40 -126 -38
-106 3 -112 -2 -112 -100 0 -71 13 -105 40 -105 14 0 40 30 40 46 0 21 28 17
35 -6 9 -29 39 -42 69 -30 18 6 35 5 59 -5 27 -11 41 -29 71 -90 20 -41 61
-104 90 -138 51 -59 185 -174 237 -201 13 -7 74 -39 134 -71 61 -32 148 -78
195 -103 47 -25 141 -74 210 -110 177 -91 290 -153 440 -239 88 -50 179 -95
235 -116 264 -98 299 -118 413 -250 48 -56 117 -142 153 -192 l64 -90 2 -215
c1 -118 0 -230 -3 -247 -6 -40 -28 -43 -82 -10 -124 76 -237 107 -487 133
-253 26 -557 11 -739 -37 -201 -53 -336 -118 -423 -204 -74 -74 -93 -125 -100
-268 -5 -89 -7 -98 -27 -103 -12 -3 -427 -4 -921 -2 -1039 3 -922 -10 -1048
122 -92 96 -127 145 -152 212 -18 46 -19 115 -23 1246 -3 871 -1 1202 8 1217
l11 21 867 -2 867 -3 3 -22z m2198 14 c3 -8 -1 -27 -7 -43 -7 -16 -13 -86 -14
-160 -1 -73 -6 -137 -10 -143 -4 -7 -20 -9 -43 -6 -52 9 -184 34 -267 51 -191
40 -224 47 -280 64 -86 26 -265 116 -304 152 -32 30 -35 31 -68 19 -36 -14
-43 -12 -148 34 -16 7 -38 16 -48 19 -10 3 -15 10 -12 16 4 7 212 10 601 10
485 0 596 -2 600 -13z m121 -2149 c-2 -29 -3 -8 -3 47 0 55 1 79 3 53 2 -26 2
-71 0 -100z m103 12 c0 -6 43 -82 95 -169 52 -88 95 -167 95 -176 0 -8 -7 -18
-15 -22 -24 -9 -173 30 -201 52 -25 20 -26 22 -15 80 6 32 11 101 11 152 0 76
3 93 15 93 8 0 15 -5 15 -10z m-103 -212 c-2 -18 -4 -6 -4 27 0 33 2 48 4 33
2 -15 2 -42 0 -60z"/>
<path d="M4312 13140 c-81 -22 -129 -62 -167 -135 -59 -115 -30 -252 71 -329
61 -47 104 -59 183 -54 76 6 116 23 166 73 57 57 75 103 75 190 0 88 -19 134
-79 194 -36 36 -72 52 -171 76 -8 2 -43 -5 -78 -15z m139 -55 c155 -55 188
-264 58 -368 -45 -35 -98 -49 -165 -41 -40 5 -61 14 -97 46 -57 48 -81 97 -81
163 0 149 143 250 285 200z"/>
<path d="M4335 12209 c-252 -33 -454 -194 -541 -434 -29 -80 -44 -214 -33
-295 44 -311 266 -539 567 -581 93 -13 236 1 302 28 120 51 176 88 255 168 70
71 118 148 153 248 22 63 26 89 26 207 0 143 -8 186 -51 280 -94 203 -292 352
-500 375 -32 3 -69 8 -83 9 -14 2 -56 0 -95 -5z m230 -118 c93 -30 125 -46
186 -94 217 -173 278 -447 154 -699 -47 -95 -158 -206 -250 -247 -126 -57
-288 -68 -406 -28 -190 65 -329 217 -373 410 -29 126 -12 261 51 385 33 67
138 177 207 217 129 75 301 97 431 56z"/>
<path d="M4384 11898 c-4 -7 -8 -37 -8 -68 l-1 -55 -33 3 c-29 3 -41 -4 -87
-50 -69 -69 -93 -141 -75 -221 16 -66 41 -109 88 -145 139 -109 337 -40 383
134 14 55 14 63 -4 123 -15 51 -28 73 -69 113 -46 45 -54 49 -84 43 l-33 -6
-3 68 -3 68 -32 3 c-17 2 -35 -2 -39 -10z m176 -263 c14 -23 20 -50 20 -91 0
-56 -1 -59 -50 -106 -48 -46 -52 -48 -108 -48 -71 0 -115 25 -149 85 -42 74
-20 165 51 213 50 34 59 23 54 -64 -4 -60 -2 -76 12 -89 9 -8 23 -15 31 -15
30 0 39 24 39 105 0 45 3 84 6 88 10 10 71 -41 94 -78z"/>
<path d="M5545 11941 c-82 -24 -107 -38 -170 -100 -143 -140 -162 -370 -43
-524 61 -81 106 -112 207 -148 190 -67 415 49 492 252 17 48 20 74 17 151 -3
82 -7 101 -37 160 -56 112 -158 191 -279 217 -71 15 -115 13 -187 -8z m251
-123 c93 -60 146 -143 152 -245 5 -72 -8 -121 -51 -186 -64 -97 -188 -149
-298 -126 -144 30 -239 147 -239 293 0 112 43 193 134 251 64 41 80 44 182 40
65 -2 88 -7 120 -27z"/>
<path d="M5627 11713 c-4 -3 -7 -30 -7 -59 0 -59 -6 -64 -75 -64 -35 0 -47 -5
-55 -21 -18 -33 12 -59 67 -57 24 1 48 -3 53 -8 5 -5 10 -31 12 -58 3 -56 25
-79 56 -60 12 8 16 22 14 45 -6 67 3 79 58 79 37 0 55 5 71 21 l21 21 -22 23
c-18 19 -29 22 -61 18 -52 -7 -73 10 -65 55 3 19 1 43 -5 53 -9 18 -49 26 -62
12z"/>
<path d="M3897 10372 c-104 -26 -196 -123 -218 -230 -31 -151 37 -296 170
-360 l56 -27 510 0 510 0 58 29 c64 33 115 83 149 148 32 62 32 214 0 276 -32
61 -95 120 -158 149 l-54 25 -487 1 c-364 2 -499 -1 -536 -11z m1069 -88 c169
-99 164 -347 -9 -435 -32 -17 -61 -20 -197 -22 -87 -1 -161 1 -165 5 -4 4 7
24 24 44 45 51 81 137 81 194 0 57 -36 143 -81 195 -47 53 -33 57 150 51 141
-6 156 -8 197 -32z m-871 -214 l0 -205 -82 -3 c-67 -2 -90 1 -122 18 -49 24
-83 68 -107 137 -18 51 -18 54 0 107 21 60 60 107 115 137 28 14 53 18 116 16
l80 -2 0 -205z m270 0 l0 -205 -30 0 -30 0 -3 185 c-3 220 -1 232 36 228 l27
-3 0 -205z m150 186 c150 -86 141 -311 -15 -381 -66 -30 -70 -19 -70 200 0
220 4 228 85 181z"/>
<path d="M5316 10139 c-34 -27 -59 -82 -51 -112 22 -77 54 -97 159 -97 64 0
77 3 89 21 14 20 15 20 45 2 38 -24 163 -24 207 -1 26 14 31 14 62 -4 29 -17
40 -19 74 -10 29 7 48 7 65 0 32 -15 51 -5 59 32 5 24 13 32 36 37 33 6 69 46
69 75 0 11 -13 33 -30 49 -28 29 -32 30 -112 27 l-83 -3 -3 -67 c-2 -52 -6
-68 -17 -68 -12 0 -15 14 -15 58 0 32 -5 63 -12 70 -16 16 -61 15 -76 0 -10
-10 -17 -10 -32 0 -27 16 -61 15 -98 -3 -28 -15 -34 -15 -63 0 -23 12 -46 15
-88 11 -31 -3 -63 -6 -71 -7 -8 0 -31 2 -50 6 -28 5 -41 2 -64 -16z m409 -94
c0 -23 -4 -30 -20 -30 -21 0 -31 25 -21 51 11 28 41 12 41 -21z"/>
<path d="M5385 9239 c-172 -27 -292 -139 -336 -313 -15 -62 -6 -165 20 -237
29 -75 111 -165 192 -209 62 -33 67 -34 179 -34 106 0 119 2 168 27 145 76
232 216 232 373 0 73 -7 99 -53 191 -69 139 -245 227 -402 202z m162 -120 c67
-29 105 -60 141 -116 106 -167 27 -384 -162 -447 -63 -20 -109 -20 -172 0 -86
29 -137 74 -180 156 -30 60 -34 185 -7 245 68 150 239 223 380 162z"/>
<path d="M5401 8957 c-25 -15 -50 -52 -51 -76 0 -8 7 -23 16 -33 16 -16 15
-19 -6 -36 -22 -18 -23 -22 -10 -51 26 -64 89 -89 140 -55 44 30 50 45 50 125
0 66 -3 82 -22 104 -28 31 -83 41 -117 22z"/>
<path d="M4330 8156 c-89 -20 -128 -42 -193 -108 -63 -64 -81 -94 -111 -183
-34 -104 -8 -237 67 -337 51 -68 76 -89 158 -129 58 -29 71 -32 164 -32 92 0
105 3 166 32 68 32 142 98 180 160 80 132 66 350 -28 449 -7 7 -18 21 -25 30
-39 53 -137 106 -227 122 -65 12 -81 12 -151 -4z m222 -128 c59 -31 99 -73
134 -138 28 -53 26 -200 -3 -255 -78 -147 -241 -208 -388 -145 -50 22 -118 87
-147 143 -33 61 -33 203 0 265 57 107 144 160 266 161 70 1 85 -2 138 -31z"/>
<path d="M4345 7888 c-2 -7 -6 -35 -9 -63 -3 -27 -8 -68 -12 -91 -5 -34 -2
-45 18 -69 21 -24 32 -28 73 -28 41 0 52 4 77 31 32 37 36 71 11 112 -15 26
-15 29 0 45 20 19 21 29 7 56 -9 16 -22 19 -86 19 -51 0 -76 -4 -79 -12z"/>
<path d="M5361 8159 c-169 -29 -305 -184 -318 -361 -13 -176 75 -326 235 -401
58 -27 74 -30 161 -30 110 1 156 15 236 74 48 35 105 98 105 116 0 5 5 14 11
20 25 25 49 118 49 190 0 137 -67 259 -184 335 -87 56 -188 76 -295 57z m191
-119 c24 -11 65 -37 90 -59 124 -109 124 -318 1 -432 -149 -137 -362 -102
-464 75 -26 46 -29 60 -29 139 0 76 4 94 27 137 56 105 144 159 259 159 50 1
85 -5 116 -19z"/>
<path d="M5393 7876 c-41 -35 -57 -96 -42 -158 17 -63 38 -81 96 -81 38 0 50
5 69 26 20 23 23 38 22 107 0 76 -2 81 -30 105 -37 32 -78 32 -115 1z"/>
<path d="M4375 8955 c-29 -15 -55 -54 -55 -82 0 -7 6 -22 12 -33 10 -16 10
-26 -1 -52 -20 -51 -22 -62 -13 -76 10 -15 171 -23 190 -9 17 13 15 52 -3 71
-19 19 -19 35 0 73 36 73 -53 147 -130 108z"/>
<path d="M3367 6389 c-26 -23 -47 -47 -47 -54 0 -16 88 -95 106 -95 22 0 30
31 28 101 -2 104 -14 111 -87 48z"/>
<path d="M3945 4920 c-23 -25 -13 -67 20 -82 49 -22 88 48 47 85 -24 22 -45
21 -67 -3z"/>
<path d="M3956 4777 c-16 -12 -17 -28 -14 -151 l3 -138 35 -29 c28 -24 43 -29
88 -29 103 0 142 46 142 170 0 77 8 99 43 116 28 15 32 15 56 -4 24 -18 26
-25 31 -121 5 -101 6 -103 38 -132 28 -25 40 -29 92 -29 101 0 139 53 140 196
0 45 4 65 18 76 29 25 53 29 78 13 22 -14 24 -22 24 -101 0 -138 36 -184 142
-184 45 0 60 5 88 29 35 28 35 30 40 124 6 108 19 132 77 143 30 6 34 10 31
33 -4 31 -38 40 -72 18 -19 -13 -25 -13 -41 -1 -27 20 -63 17 -75 -5 -5 -11
-10 -71 -10 -133 0 -116 -6 -138 -40 -138 -38 0 -50 32 -50 134 0 95 -1 98
-30 128 -29 28 -33 29 -88 24 -66 -7 -105 -8 -147 -4 l-30 3 -3 -132 c-3 -129
-3 -133 -28 -149 -23 -16 -26 -15 -44 1 -17 15 -20 31 -20 94 0 96 -14 144
-47 171 -30 23 -89 27 -140 8 -27 -10 -38 -10 -53 0 -55 34 -70 1 -70 -147 0
-92 -3 -110 -18 -124 -54 -49 -82 3 -82 151 0 127 -15 155 -64 119z"/>
<path d="M2942 11216 c20 -6 43 -17 50 -24 14 -14 38 -16 38 -4 0 12 -73 42
-101 41 -19 -1 -16 -3 13 -13z"/>
<path d="M3727 9133 c-11 -10 -8 -83 3 -83 6 0 10 20 10 45 0 46 -2 50 -13 38z"/>
<path d="M3740 9010 c0 -16 42 -90 51 -90 5 0 9 -6 9 -13 0 -18 108 -133 116
-124 4 4 -4 18 -18 32 -14 14 -38 44 -54 68 -16 23 -32 44 -36 45 -5 2 -8 10
-8 18 0 8 -6 17 -14 20 -8 3 -17 16 -20 30 -6 23 -26 34 -26 14z"/>
<path d="M3170 8916 c0 -7 7 -19 15 -26 8 -7 15 -18 15 -26 0 -14 18 -29 26
-21 3 2 -5 23 -17 46 -21 41 -39 53 -39 27z"/>
<path d="M3237 8800 c3 -11 9 -20 14 -20 11 0 11 3 3 24 -9 23 -23 20 -17 -4z"/>
<path d="M3267 8740 c3 -11 9 -20 14 -20 5 0 9 -9 9 -19 0 -11 7 -26 15 -35 8
-8 15 -21 15 -29 0 -8 7 -20 15 -27 8 -7 15 -20 15 -30 0 -10 7 -23 15 -30 8
-7 15 -21 15 -31 0 -9 7 -24 15 -33 8 -8 15 -21 15 -29 0 -23 11 -47 21 -47
13 0 11 21 -6 54 -8 15 -15 36 -15 46 0 10 -7 23 -15 30 -8 7 -15 20 -15 30 0
10 -7 23 -15 30 -8 7 -15 18 -15 26 0 7 -12 30 -26 51 -14 21 -30 48 -35 61
-11 27 -29 29 -22 2z"/>
<path d="M3441 8368 c0 -7 4 -22 9 -33 7 -17 9 -15 9 13 1 17 -3 32 -9 32 -5
0 -10 -6 -9 -12z"/>
<path d="M4760 6450 c0 -5 -5 -10 -11 -10 -6 0 -21 -8 -34 -17 -12 -10 -33
-25 -46 -33 -26 -17 -119 -106 -119 -115 0 -3 7 -5 15 -5 8 0 15 5 15 11 0 21
96 101 155 129 11 5 31 18 45 29 l25 21 -22 0 c-13 0 -23 -4 -23 -10z"/>
<path d="M1041 5783 c-16 -14 -29 -56 -56 -176 -40 -181 -42 -205 -17 -223 48
-37 83 -3 100 97 10 58 25 124 48 205 19 69 18 79 -11 98 -31 20 -38 20 -64
-1z"/>
<path d="M914 5109 c-17 -18 -20 -43 -24 -188 -7 -203 -5 -215 39 -219 19 -2
38 1 44 7 6 6 17 95 24 199 13 186 13 187 -8 205 -28 23 -52 22 -75 -4z"/>
<path d="M902 4448 c-16 -16 -15 -124 3 -233 8 -49 15 -104 15 -122 0 -57 58
-84 94 -44 15 17 16 28 7 93 -5 40 -13 118 -16 173 -4 58 -13 110 -21 123 -16
24 -62 30 -82 10z"/>
<path d="M4980 4031 c0 -11 25 -21 50 -21 9 0 23 -7 30 -15 7 -8 20 -15 29
-15 18 0 91 -63 91 -79 0 -5 8 -17 18 -27 14 -15 17 -35 16 -121 -1 -126 16
-126 20 1 2 60 -1 91 -10 104 -7 9 -14 24 -14 33 0 24 -102 119 -127 119 -8 0
-21 7 -29 15 -17 16 -74 21 -74 6z"/>
<path d="M5785 3938 c-4 -10 -4 -26 0 -35 8 -17 8 -17 12 0 3 9 3 25 0 35 -4
16 -4 16 -12 0z"/>
<path d="M5761 3748 c1 -75 2 -78 10 -38 11 64 11 120 -1 120 -6 0 -9 -33 -9
-82z"/>
<path d="M1005 3777 c-6 -7 -14 -18 -18 -24 -6 -10 36 -193 79 -340 9 -32 49
-56 72 -44 39 21 46 38 32 84 -49 164 -70 243 -70 264 0 50 -68 92 -95 60z"/>
<path d="M1765 3474 c-123 -9 -343 -54 -410 -84 -232 -102 -416 -217 -525
-329 -85 -87 -178 -198 -229 -275 -36 -54 -124 -220 -134 -252 -3 -10 -15 -44
-27 -74 -12 -30 -26 -71 -30 -90 -5 -19 -18 -75 -30 -125 -19 -76 -22 -120
-23 -290 0 -169 3 -215 21 -295 34 -154 43 -184 53 -194 5 -6 9 -18 9 -27 0
-20 37 -105 92 -214 95 -186 311 -430 477 -537 90 -59 260 -149 326 -174 236
-90 491 -121 742 -90 76 9 152 22 168 27 17 6 46 15 65 19 126 30 312 118 463
220 187 125 379 345 482 550 50 100 58 120 105 250 38 108 69 308 70 446 0
155 -29 353 -65 439 -15 38 -34 91 -46 132 -14 46 -112 235 -151 288 -61 86
-204 249 -268 308 -35 32 -91 74 -125 94 -33 20 -67 42 -75 49 -34 28 -256
136 -327 159 -126 42 -258 63 -413 68 -80 3 -167 3 -195 1z m642 -204 c43 -9
264 -119 293 -145 9 -8 20 -15 24 -15 13 0 159 -116 204 -161 156 -158 310
-452 325 -621 6 -61 -9 -88 -48 -88 -10 0 -41 -6 -69 -14 -28 -8 -80 -22 -116
-31 -36 -9 -90 -23 -120 -31 -30 -8 -176 -44 -325 -80 -148 -36 -283 -69 -300
-74 -16 -5 -59 -16 -95 -25 -36 -9 -87 -22 -115 -29 -157 -41 -205 -50 -216
-39 -11 11 42 187 118 393 14 36 29 79 33 95 5 17 29 89 55 160 25 72 66 189
90 260 24 72 60 175 80 230 20 55 43 120 52 145 33 96 31 93 61 86 15 -4 46
-11 69 -16z m-726 -1531 c54 -17 102 -40 123 -58 71 -62 99 -200 56 -283 -12
-24 -33 -55 -47 -70 -25 -26 -24 -48 2 -48 22 0 84 -81 96 -124 16 -59 6 -173
-19 -222 -29 -56 -103 -119 -165 -141 -35 -12 -83 -17 -147 -18 -84 0 -101 3
-152 28 -102 50 -175 165 -166 260 3 32 3 32 66 35 44 2 63 -1 66 -10 33 -112
64 -152 139 -180 43 -16 51 -16 98 -2 104 31 146 87 136 182 -9 87 -79 141
-183 142 -62 0 -76 14 -72 67 3 37 4 38 48 45 110 16 170 68 170 147 0 60 -26
96 -87 122 -54 23 -71 24 -111 3 -65 -32 -112 -101 -112 -165 0 -21 -20 -29
-73 -29 -63 0 -71 9 -64 69 14 115 101 223 200 248 58 14 157 15 198 2z m667
-234 c124 -29 183 -81 198 -174 8 -52 -1 -61 -68 -61 -44 0 -48 3 -75 43 -46
68 -116 92 -194 66 -126 -43 -78 -126 91 -159 210 -40 280 -96 280 -223 0
-147 -102 -221 -305 -221 -84 0 -109 3 -153 23 -57 26 -104 72 -127 128 -30
71 -15 103 48 103 44 0 77 -15 77 -35 0 -24 44 -67 85 -81 115 -40 241 10 222
88 -11 42 -76 73 -207 98 -81 15 -122 34 -171 78 l-49 44 0 80 c0 70 3 83 26
113 35 46 81 72 162 89 86 18 85 18 160 1z"/>
<path d="M5762 3270 c0 -19 2 -27 5 -17 2 9 2 25 0 35 -3 9 -5 1 -5 -18z"/>
<path d="M7762 2053 c-11 -10 -68 -71 -126 -136 -112 -126 -127 -159 -86 -185
36 -22 67 -2 164 106 126 143 136 156 136 184 0 47 -49 64 -88 31z"/>
<path d="M7305 1580 c-11 -5 -54 -37 -96 -72 -41 -35 -96 -79 -121 -97 -58
-42 -75 -72 -60 -106 22 -48 58 -35 195 74 126 100 157 132 157 161 -1 35 -39
55 -75 40z"/>
<path d="M6725 1166 c-22 -12 -76 -42 -120 -66 -44 -24 -89 -48 -100 -54 -69
-38 -85 -85 -37 -110 26 -14 33 -12 122 34 52 26 111 57 130 69 19 11 45 25
56 30 22 10 64 57 64 72 0 16 -40 49 -57 49 -10 -1 -36 -11 -58 -24z"/>
<path d="M3188 999 c-11 -6 -18 -22 -18 -38 0 -15 8 -35 18 -43 19 -17 208
-100 285 -126 59 -19 100 -9 105 27 4 24 -32 71 -54 71 -6 0 -74 27 -150 60
-144 62 -158 66 -186 49z"/>
<path d="M6105 875 c-48 -21 -106 -42 -170 -60 -92 -27 -103 -32 -121 -60 -16
-25 -16 -27 6 -50 13 -14 29 -25 37 -25 22 0 316 100 340 115 31 21 38 52 17
76 -20 22 -65 24 -109 4z"/>
<path d="M3812 758 c-7 -7 -12 -22 -12 -35 0 -26 45 -59 95 -68 29 -6 93 -20
198 -44 102 -24 148 -5 133 53 -8 31 -30 39 -197 75 -159 34 -199 37 -217 19z"/>
<path d="M5435 699 c-22 -5 -83 -13 -135 -19 -138 -14 -173 -34 -155 -90 9
-29 46 -34 154 -21 240 29 271 39 271 91 0 47 -41 59 -135 39z"/>
<path d="M4494 650 c-43 -17 -37 -72 11 -90 13 -5 98 -12 189 -16 145 -6 168
-5 190 10 32 20 33 46 4 73 -21 19 -39 21 -198 25 -96 3 -184 2 -196 -2z"/>
</g>
</svg>
