<?xml version="1.0" encoding="utf-8"?>
<!-- Generator: Adobe Illustrator 17.0.0, SVG Export Plug-In . SVG Version: 6.00 Build 0)  -->
<!DOCTYPE svg PUBLIC "-//W3C//DTD SVG 1.1//EN" "http://www.w3.org/Graphics/SVG/1.1/DTD/svg11.dtd">
<svg version="1.1" id="Layer_1" xmlns="http://www.w3.org/2000/svg" xmlns:xlink="http://www.w3.org/1999/xlink" x="0px" y="0px"
	 width="281.027px" height="505.91px" viewBox="0 0 281.027 505.91" enable-background="new 0 0 281.027 505.91"
	 xml:space="preserve">
<g>
	<g>
		<path d="M205.22,388.819c-2.373,0.358-5.022,0.656-7.912,0.954c-3.028,0.298-6.331,0.566-9.805,0.804
			c-6.744,0.477-14.002,0.804-21.261,1.043c-8.395,0.268-16.858,0.388-24.666,0.447c-7.81-0.06-16.307-0.179-24.701-0.447
			c-7.259-0.239-14.518-0.567-21.227-1.043c-3.441-0.239-6.673-0.477-9.599-0.775c-2.856-0.298-5.47-0.596-7.809-0.924l-6.88-1.013
			l4.472,4.649c0.379,0.358,0.689,0.686,0.964,0.984v0.029c0.344,0.388,0.619,0.715,0.861,0.983
			c1.101,1.342,2.098,2.802,2.889,4.262c0.689,1.282,1.205,2.593,1.48,3.845l0.034,0.149l0.034,0.119
			c0.928,2.593,1.755,5.96,2.407,9.895c0.758,4.351,1.343,9.327,1.789,14.632c0.448,5.812,0.758,11.891,0.929,17.852
			c0.172,6.646,0.206,13.202,0.069,19.074l-0.034,2.056l0.276,0.029l15.997,17.315h-0.138l5.436,4.739l14.036,12.248l0.034,0.029
			l0.343,0.269c2.547,2.205,5.127,4.41,18.371,4.887h0.207c13.244-0.476,15.824-2.682,18.37-4.887l0.345-0.269l0.034-0.029
			l14.036-12.248l5.435-4.739h-0.069l16.41-17.345h-0.207l-0.034-2.056c-0.137-5.871-0.137-12.427,0.07-19.074
			c0.137-5.96,0.447-12.04,0.928-17.852c0.447-5.305,1.032-10.281,1.789-14.633c0.654-3.934,1.445-7.301,2.408-9.894l0.033-0.118
			l0.035-0.15c0.275-1.252,0.791-2.564,1.445-3.845c0.791-1.46,1.822-2.921,2.924-4.262c0.24-0.268,0.515-0.625,0.894-1.014
			c0.413-0.477,0.722-0.834,0.964-1.043l4.506-4.649L205.22,388.819z M156.919,497.568l-0.344,0.297
			c-1.858,1.579-3.681,3.189-14.863,3.606c-11.181-0.417-13.004-2.027-14.862-3.606l-0.343-0.297l-9.048-7.869
			c1.41,0.06,2.924,0.119,4.542,0.179c2.855,0.09,6.02,0.149,9.392,0.179c3.302,0.029,6.777,0.06,10.32,0.06
			c3.544,0,7.019-0.03,10.321-0.06c3.371-0.03,6.537-0.089,9.392-0.179c1.617-0.06,3.131-0.119,4.507-0.179L156.919,497.568z
			 M197.102,397.522c-0.792,1.52-1.411,3.07-1.789,4.649c-0.964,2.771-1.823,6.259-2.512,10.282
			c-0.721,4.38-1.307,9.387-1.754,14.692c-0.482,5.603-0.758,11.652-0.929,17.703c-0.172,5.812-0.206,11.563-0.103,16.868
			l-2.133,0.149c-1.72,0.119-3.303,0.239-4.817,0.328c-2.098,0.12-4.129,0.239-6.089,0.329c-2.201,0.119-4.335,0.208-6.399,0.297
			c-2.407,0.09-4.712,0.15-6.949,0.239c-2.443,0.06-4.85,0.119-7.155,0.179c-2.547,0.06-5.023,0.09-7.396,0.119
			c-2.511,0.029-4.988,0.06-7.362,0.06c-2.374,0-4.851-0.029-7.362-0.06c-2.374-0.029-4.851-0.06-7.396-0.119
			c-2.34-0.06-4.713-0.119-7.156-0.179c-2.236-0.089-4.575-0.149-6.949-0.239c-2.065-0.089-4.197-0.178-6.399-0.297
			c-1.961-0.09-3.99-0.209-6.123-0.329c-1.48-0.089-3.097-0.207-4.783-0.328l-2.132-0.149c0.048-3.678,0.062-7.57,0.01-11.547
			c5.747,0.495,12.046,0.882,18.529,1.176c11.854,0.538,24.196,0.762,34.86,0.762v-3.439c-10.755,0-23.072-0.22-34.712-0.748
			c-6.548-0.297-12.923-0.693-18.74-1.203c-0.015-0.622-0.032-1.245-0.05-1.869c-0.081-2.84-0.192-5.68-0.334-8.474
			c5.867,0.514,12.324,0.914,18.976,1.215c11.854,0.538,24.196,0.762,34.86,0.762v-3.439c-10.755,0-23.072-0.22-34.712-0.747
			c-6.764-0.307-13.344-0.72-19.316-1.255c-0.119-1.96-0.253-3.888-0.403-5.765c-0.132-1.568-0.276-3.111-0.433-4.618
			c6.137,0.557,12.961,0.987,20.004,1.307c11.854,0.538,24.196,0.762,34.86,0.762v-3.439c-10.755,0-23.072-0.221-34.712-0.748
			c-7.233-0.328-14.254-0.778-20.547-1.368c-0.284-2.313-0.603-4.52-0.96-6.588c-0.233-1.358-0.48-2.653-0.745-3.881
			c6.662,0.656,14.247,1.149,22.104,1.506c11.854,0.538,24.196,0.762,34.86,0.762v-3.439c-10.755,0-23.072-0.22-34.712-0.748
			c-8.234-0.374-16.194-0.904-23.117-1.621c-0.283-1.022-0.584-1.978-0.902-2.861c-0.343-1.579-0.963-3.129-1.754-4.649
			c-0.516-0.954-1.135-1.907-1.755-2.831l1.961,0.208c3.062,0.298,6.261,0.567,9.599,0.775c6.468,0.447,13.658,0.775,21.054,1.014
			c8.222,0.268,16.581,0.417,24.356,0.446h0.035c7.774-0.029,16.169-0.179,24.391-0.446c7.363-0.239,14.587-0.567,21.055-1.014
			c3.405-0.208,6.709-0.477,9.769-0.804l2.099-0.209C198.237,395.585,197.617,396.538,197.102,397.522z"/>
		<path d="M141.692,198.693c-37.448,0-78.819-0.042-124.079-0.125c21.083,46.824,31.168,97.623,36.928,148.491
			c0.953,13.419,4.203,24.453,9.514,33.011c0.831,1.339,0.562,1.096,2.123,1.295c48.321,6.194,96.643,6.288,144.964,0.282
			c4.085-0.507,3.528,0.03,5.602-3.662c4.641-8.263,7.397-18.572,8.268-30.926c5.76-50.865,15.843-101.662,36.924-148.484
			C218.172,198.654,178.08,198.693,141.692,198.693z M137.746,253.421h5.466v32.378h-5.466V253.421z M143.212,295.981v31.287h-5.466
			v-29.572l-10.073-11.754l3.64-3.278l11.883,13.195h0.016v0.017l0.052,0.058L143.212,295.981z M148.639,293.213l-3.967-3.573
			l11.95-13.269l3.64,3.278L148.639,293.213z M162.869,278.372c-0.822-2.299-2.353-3.835-4.592-4.608l0.919-2.669
			c3.103,1.071,5.217,3.18,6.341,6.325L162.869,278.372z M166.81,276.847c-0.63-1.762-1.527-3.225-2.691-4.388
			c-1.166-1.166-2.605-2.045-4.316-2.636l0.919-2.668c2.139,0.738,3.94,1.839,5.401,3.3c1.464,1.463,2.582,3.277,3.355,5.439
			L166.81,276.847z"/>
		<path d="M276.293,158.135c-2.495,12.662-5.919,23.639-10.27,32.93l-0.761,1.625l-1.796,0.003
			c-18.317,0.032-37.57,0.057-57.762,0.073c-29.307,0.023-50.511,0.035-63.303,0.035c-13.618,0-35.168-0.012-64.653-0.036
			c-19.557-0.016-38.231-0.04-56.022-0.071l-5.951-0.009c-4.762-9.376-7.918-19.462-10.647-32.629
			c-2.706-13.054-4.413-27.987-5.117-44.797L0,115.148c0-31.904,15.813-60.755,41.377-81.61C66.778,12.817,101.831,0,140.513,0
			c38.683,0,73.736,12.817,99.137,33.538c25.564,20.855,41.377,49.706,41.377,81.61l-0.011,0.111
			C280.344,131.278,278.77,145.57,276.293,158.135 M261.65,187.049c3.789-8.494,6.817-18.494,9.085-29.999
			c2.426-12.311,3.969-26.279,4.629-41.902h-0.006c0-30.125-15.009-57.431-39.273-77.225
			c-24.428-19.928-58.216-32.254-95.572-32.254c-37.355,0-71.143,12.326-95.571,32.254c-24.265,19.794-39.273,47.1-39.273,77.225
			H5.663c0.694,16.453,2.362,31.046,5.001,43.779c2.218,10.695,5.122,20.067,8.714,28.115c18.494,0.034,37.95,0.059,58.37,0.076
			c11.656,0.009,33.206,0.014,64.653,0.014c31.287,0,52.284-0.004,63.303-0.013C225.23,187.104,243.878,187.08,261.65,187.049"/>
	</g>
</g>
</svg>
