<?xml version="1.0" encoding="utf-8"?>
<!-- Generator: Adobe Illustrator 21.0.0, SVG Export Plug-In . SVG Version: 6.00 Build 0)  -->
<svg version="1.1" id="Layer_1" xmlns="http://www.w3.org/2000/svg" xmlns:xlink="http://www.w3.org/1999/xlink" x="0px" y="0px"
	 viewBox="0 0 367.7 1051.3" style="enable-background:new 0 0 367.7 1051.3;" xml:space="preserve">
<style type="text/css">
	.st0{fill:#010101;}
</style>
<g>
	<path class="st0" d="M365.9,415.8c-7.1-103.7-36.5-210.8-78.5-286.4c-31-55.8-54.5-92.2-71.8-111.3C200.3,1.4,191.5,0,183.9,0v14
		c4,0,9,0,21.3,13.6c16.4,18,39.9,54.6,70,108.7c41.1,73.9,69.8,178.8,76.8,280.5c1.3,19.3,1.9,38.5,1.7,57.6
		c-21.3-3.3-85.1-11.8-169.8-11.8c-72.9,0-146.5,8.9-169.8,12c-0.2-19.1,0.4-38.4,1.7-57.8c7-101.8,35.7-206.7,76.8-280.5
		c30.1-54.1,53.6-90.6,70-108.7C174.8,14,179.8,14,183.8,14V0c-7.7,0-16.5,1.4-31.7,18.2c-17.3,19.1-40.8,55.5-71.8,111.3
		C38.3,205,8.9,312.1,1.8,415.8c-4.4,64.4-0.6,127.5,11.3,187.5c13.7,68.6,38,133.1,72.4,191.8c3,5.2,8.5,13.3,14.5,15.7l0,42.9
		c1.6,3.6,2.8,7.1,4.9,10.1v0c0.4,0.6,0.8,1.2,1,1.6c1.3,2.2,2.6,4.7,3.5,7.1c0.8,2.1,1.5,4.3,1.8,6.4l0,0.2l0,0.2
		c1.1,4.3,2.1,9.9,2.9,16.5c0.9,7.3,1.6,15.6,2.2,24.4c0.5,9.7,0.9,19.8,1.1,29.8c0.2,11.1,0.3,22,0.1,31.8l0,3.4l0.3,0l19.5,28.9
		h-0.2l6.6,7.9l17.1,20.4l0,0l0.4,0.4c3.1,3.7,6.2,7.4,22.4,8.1h0.3c16.1-0.8,19.3-4.5,22.4-8.1l0.4-0.4l0,0l17.1-20.4l6.6-7.9h-0.1
		l20-28.9c-0.1,0-0.2,0-0.3,0l0-3.4c-0.2-9.8-0.2-20.7,0.1-31.8c0.2-9.9,0.5-20.1,1.1-29.8c0.5-8.8,1.3-17.1,2.2-24.4
		c0.8-6.6,1.8-12.2,2.9-16.5l0-0.2l0-0.2c0.3-2.1,1-4.3,1.8-6.4c1-2.4,2.2-4.9,3.6-7.1c0.3-0.4,0.6-1,1.1-1.7c1.9-3,3.1-5.8,4.7-9
		l-0.3,0.1l0.1-0.1v-44.1c6-2.5,11.5-10.6,14.5-15.7c34.4-58.7,58.7-123.2,72.4-191.8C366.5,543.3,370.3,480.2,365.9,415.8z
		 M202.6,1037.4l-0.4,0.5c-2.3,2.6-4.5,5.3-18.1,6c-13.6-0.7-15.8-3.4-18.1-6l-0.4-0.5l-11-13.1c1.7,0.1,3.6,0.2,5.5,0.3
		c3.5,0.1,7.3,0.2,11.4,0.3c4,0,8.3,0.1,12.6,0.1c4.3,0,8.6,0,12.6-0.1c4.1,0,8-0.1,11.4-0.3c2-0.1,3.8-0.2,5.5-0.3L202.6,1037.4z
		 M251.5,870.6c-1,2.5-1.7,5.1-2.2,7.8c-1.2,4.6-2.2,10.4-3.1,17.1c-0.9,7.3-1.6,15.7-2.1,24.5c-0.6,9.3-0.9,19.4-1.1,29.5
		c-0.2,9.7-0.3,19.3-0.1,28.1l-2.6,0.2c-2.1,0.2-4,0.4-5.9,0.5c-2.6,0.2-5,0.4-7.4,0.5c-2.7,0.2-5.3,0.3-7.8,0.5
		c-2.9,0.1-5.7,0.2-8.5,0.4c-3,0.1-5.9,0.2-8.7,0.3c-3.1,0.1-6.1,0.1-9,0.2c-3.1,0-6.1,0.1-9,0.1c-2.9,0-5.9,0-9-0.1
		c-2.9,0-5.9-0.1-9-0.2c-2.9-0.1-5.7-0.2-8.7-0.3c-2.7-0.1-5.6-0.2-8.5-0.4c-2.5-0.1-5.1-0.3-7.8-0.5c-2.4-0.1-4.9-0.3-7.5-0.5
		c-1.8-0.1-3.8-0.3-5.8-0.5l-2.6-0.2c0.1-6.1,0.1-12.6,0-19.3c7,0.8,14.7,1.5,22.6,2c14.4,0.9,29.5,1.3,42.5,1.3v-5.7
		c-13.1,0-28.1-0.4-42.3-1.2c-8-0.5-15.7-1.2-22.8-2c0-1,0-2.1-0.1-3.1c-0.1-4.7-0.2-9.5-0.4-14.1c7.1,0.9,15,1.5,23.1,2
		c14.4,0.9,29.5,1.3,42.5,1.3v-5.7c-13.1,0-28.1-0.4-42.3-1.2c-8.2-0.5-16.3-1.2-23.5-2.1c-0.1-3.3-0.3-6.5-0.5-9.6
		c-0.2-2.6-0.3-5.2-0.5-7.7c7.5,0.9,15.8,1.6,24.4,2.2c14.4,0.9,29.5,1.3,42.5,1.3V910c-13.1,0-28.1-0.4-42.3-1.2
		c-8.8-0.5-17.4-1.3-25-2.3c-0.3-3.9-0.7-7.5-1.2-11c-0.3-2.3-0.6-4.4-0.9-6.5c8.1,1.1,17.4,1.9,26.9,2.5
		c14.4,0.9,29.5,1.3,42.5,1.3v-5.7c-13.1,0-28.1-0.4-42.3-1.2c-10-0.6-19.7-1.5-28.2-2.7c-0.3-1.7-0.7-3.3-1.1-4.8
		c-0.4-2.6-1.2-5.2-2.1-7.8c-0.6-1.6-1.4-3.2-2.1-4.7l2.4,0.3c3.7,0.5,7.6,0.9,11.7,1.3c7.9,0.7,16.6,1.3,25.7,1.7
		c10,0.4,20.2,0.7,29.7,0.7h0c9.5,0,19.7-0.3,29.7-0.7c9-0.4,17.8-0.9,25.7-1.7c4.1-0.3,8.2-0.8,11.9-1.3l2.6-0.3
		C252.9,867.4,252.2,869,251.5,870.6z M251.8,857.7c-3.7,0.5-7.7,0.9-11.9,1.3c-8.2,0.8-17.1,1.3-25.9,1.7
		c-10.2,0.4-20.5,0.6-30.1,0.7c-9.5-0.1-19.9-0.3-30.1-0.7c-8.8-0.4-17.7-0.9-25.9-1.7c-4.2-0.4-8.1-0.8-11.7-1.3
		c-3.3-0.5-6.4-1-9.2-1.5v-50.9c16.4,2.2,81.2,9.4,153.6-2.9v53.8C257.9,856.8,255,857.2,251.8,857.7z M270.1,788
		c-1.3,2.3-3,4.6-4.5,6.5l-2.1,0.4c-83.8,15-158.5,3.1-159.2,3l-0.8-0.1l0-0.2c1.3,0,2,0.4,2,0.4c-1.4-0.9-5.3-5.6-7.9-10
		C64,730.7,40.2,667.6,26.9,600.6c-7.7-38.4-11.9-78.2-12.7-118.7c27.6-2.6,131.8-12.3,169.7-12.3c76.4,0,140.8,7.2,169.7,11.8
		c-0.8,40.7-5,80.6-12.7,119.2C327.5,667.6,303.7,730.7,270.1,788z"/>
	<path class="st0" d="M166.5,724.5c0.4,0,0.7-0.3,0.8-0.6c0-0.1,0-0.2,0-0.4c0-1.3,0-2.6,0-3.9c0-2.8,0-5.6,0-8.3c0-0.1,0-0.2,0-0.3
		c-0.1-0.4-0.4-0.7-0.9-0.7c-0.8,0-1.6,0-2.4,0c-1,0-1.9,0-2.9,0c-0.4,0-0.7-0.3-0.9-0.6c0-0.1,0-0.3,0-0.4c0-1.7,0-3.4,0-5.1
		c0-0.5-0.2-0.8-0.7-1c0,0,0,0,0,0c-4.2,0-8.5,0-12.7,0c-0.1,0-0.1,0-0.2,0.1c-0.2,0.1-0.4,0.3-0.5,0.5c0,0.1-0.1,0.1-0.1,0.2
		c0,1.9,0,3.8,0,5.7c0,0,0,0,0.1,0.1c0.2,0.5,0.5,0.7,1,0.7c0.9,0,1.7,0,2.6,0c0.8,0,1.7,0,2.5,0c0.2,0,0.3,0,0.5,0.1
		c0.3,0.2,0.5,0.5,0.5,0.8c0,1.7,0,3.4,0,5.1c0,0.1,0,0.1,0,0.2c0,0.4,0.3,0.7,0.6,0.8c0.1,0,0.2,0,0.4,0c1.7,0,3.4,0,5.1,0
		c0.1,0,0.2,0,0.3,0c0.4,0.1,0.6,0.4,0.6,0.8c0,0.6,0,1.3,0,1.9c0,1.2,0,2.3,0,3.5c0,0.3,0.2,0.6,0.5,0.8c0.1,0.1,0.3,0.1,0.5,0.1
		c1.7,0,3.5,0,5.2,0C166.4,724.5,166.5,724.5,166.5,724.5z"/>
	<path class="st0" d="M182.1,707.3c0-1.1,0-2.1,0-3.2c0-0.5-0.2-0.8-0.7-0.9c0,0,0,0,0,0c-5.3,0-10.6,0-15.9,0c0,0,0,0,0,0
		c-0.5,0.1-0.7,0.4-0.7,0.9c0,0.5,0,1.1,0,1.6c0,0.5,0,1,0,1.6c0,0.3,0.1,0.5,0.3,0.7c0.2,0.2,0.4,0.2,0.6,0.2c1.6,0,3.3,0,4.9,0
		c0.2,0,0.2,0,0.2,0.2c0,1.4,0,2.9,0,4.3c0,3.6,0,7.2,0,10.8c0,0.1,0,0.2,0,0.3c0.1,0.4,0.4,0.7,0.9,0.7c0.5,0,1,0,1.5,0
		c0.7,0,1.4,0,2,0c0.5,0,0.9-0.4,0.9-0.9c0-0.1,0-0.2,0-0.3c0-5,0-10,0-15c0-0.3,0-0.2,0.2-0.2c1.6,0,3.3,0,4.9,0
		C181.7,708.2,182.1,707.8,182.1,707.3z"/>
	<path class="st0" d="M216.9,716.3c-0.5-0.3-1.1-0.5-1.7-0.6c-0.5-0.1-1.1-0.2-1.6-0.3c-0.3-0.1-0.6-0.1-0.8-0.3
		c-0.4-0.2-0.4-0.8,0-1.1c0.2-0.1,0.3-0.2,0.5-0.2c0.5-0.1,1.1-0.1,1.6,0c0.4,0.1,0.8,0.2,1.1,0.4c0.4,0.2,0.9,0.1,1.1-0.3
		c0.3-0.5,0.6-1,0.9-1.6c0.2-0.4,0-1-0.4-1.2c-1.2-0.5-2.4-0.8-3.6-0.9c-0.9-0.1-1.8,0-2.6,0.2c-0.7,0.2-1.5,0.4-2.1,0.8
		c-0.8,0.5-1.4,1.1-1.7,1.9c-0.4,1-0.4,2-0.2,3c0.2,1,0.9,1.7,1.7,2.2c0.5,0.3,1.1,0.5,1.6,0.7c0.6,0.2,1.2,0.3,1.8,0.5
		c0.2,0.1,0.5,0.2,0.7,0.3c0.2,0.1,0.3,0.2,0.4,0.4c0.1,0.2,0.1,0.4-0.1,0.5c-0.1,0.1-0.2,0.2-0.4,0.3c-0.3,0.1-0.6,0.2-0.9,0.2
		c-0.7,0-1.3-0.1-1.9-0.3c-0.5-0.2-1-0.4-1.5-0.7c-0.4-0.3-1-0.1-1.2,0.3c-0.3,0.5-0.6,1.1-0.9,1.6c-0.2,0.4-0.1,0.9,0.3,1.2
		c1.5,1,3.2,1.5,4.9,1.6c0.4,0,0.7,0,1.1,0c0,0,0,0,0.1,0c0.3,0,0.5-0.1,0.8-0.1c0.8-0.1,1.6-0.3,2.3-0.7c1.1-0.5,1.9-1.3,2.3-2.5
		c0.3-0.8,0.3-1.6,0.2-2.4C218.5,717.7,218,716.9,216.9,716.3z"/>
	<path class="st0" d="M227.9,710.6c-0.4,0-0.8,0-1.2,0c0,0-0.1,0-0.1,0c0,0-0.1,0-0.1-0.1c0-0.1,0-0.1,0-0.2c0-0.9,0-1.8,0-2.7
		c0-0.1,0-0.1,0-0.2c0-0.5-0.4-0.8-0.9-0.8c-0.2,0-0.4,0-0.6,0c-1,0-1.9,0-2.9,0c-0.2,0-0.5,0.1-0.6,0.2c-0.2,0.2-0.3,0.4-0.3,0.7
		c0,0.9,0,1.9,0,2.8c0,0.2,0,0.2-0.2,0.2c-0.3,0-0.6,0-0.9,0c-0.5,0-0.9,0.4-0.9,0.9c0,0.8,0,1.7,0,2.5c0,0.1,0,0.2,0,0.2
		c0.1,0.4,0.4,0.6,0.9,0.7c0.3,0,0.5,0,0.8,0c0.3,0,0.2,0,0.2,0.2c0,1.9,0,3.9,0,5.8c0,0.2,0,0.4,0,0.6c0.1,1.2,0.7,2,1.8,2.5
		c0.7,0.4,1.5,0.5,2.4,0.6c0.9,0.1,1.8,0,2.7-0.2c0.2,0,0.3-0.1,0.5-0.2c0.3-0.2,0.4-0.4,0.4-0.7c0-0.6,0-1.1,0-1.7
		c0-0.4-0.2-0.6-0.5-0.8c-0.2-0.1-0.3-0.1-0.5-0.1c-0.2,0-0.4-0.1-0.6-0.2c-0.5-0.2-0.8-0.6-0.8-1.1c0-1.6,0-3.2,0-4.8
		c0-0.1,0-0.1,0.1-0.2c0.1,0,0.1,0,0.2,0c0.4,0,0.9,0,1.3,0c0.3,0,0.6-0.1,0.8-0.4c0-0.1,0-0.1,0.1-0.2c0-1,0-2,0-3
		c-0.1-0.1-0.1-0.2-0.2-0.3C228.5,710.7,228.2,710.6,227.9,710.6z"/>
	<path class="st0" d="M153.1,718.1c-0.1-0.4-0.4-0.7-0.9-0.7c-1.8,0-3.5,0-5.3,0c-0.4,0-0.7,0.2-0.8,0.6c0,0.1,0,0.1-0.1,0.1
		c0,1.9,0,3.8,0,5.7c0,0,0.1,0,0.1,0.1c0.2,0.4,0.4,0.6,0.9,0.6c1.2,0,2.4,0,3.6,0c0.6,0,1.1,0,1.7,0c0.5,0,0.9-0.4,0.9-0.9
		c0-1.8,0-3.5,0-5.3C153.1,718.3,153.1,718.2,153.1,718.1z"/>
	<path class="st0" d="M190.4,720.4c0.2,1.7,1.1,2.9,2.6,3.7c0.6,0.3,1.2,0.4,1.9,0.4c0.8,0,1.7,0,2.5-0.2c0.6-0.1,1.1-0.3,1.6-0.7
		c0.3-0.2,0.5-0.5,0.7-0.8c0,0.3,0,0.5,0,0.8c0,0.4,0.3,0.8,0.7,0.9c0.1,0,0.2,0,0.3,0c1.2,0,2.5,0,3.7,0c0.5,0,1-0.4,0.9-0.9
		c0-1.1,0-2.1,0-3.2c0-2.9,0-5.9,0-8.8c0-0.1,0-0.1,0-0.2c0-0.3-0.2-0.6-0.5-0.7c-0.1-0.1-0.3-0.1-0.5-0.1c-1.2,0-2.5,0-3.7,0
		c-0.1,0-0.1,0-0.2,0c-0.4,0-0.7,0.3-0.8,0.7c0,0.1,0,0.2,0,0.3c0,2.1,0,4.2,0,6.3c0,0.1,0,0.2,0,0.3c0,0.7-0.4,1.2-1,1.5
		c-0.6,0.3-1.3,0.2-1.8-0.2c-0.5-0.4-0.7-0.9-0.7-1.5c0-2.2,0-4.3,0-6.5c0-0.1,0-0.2,0-0.3c0-0.4-0.3-0.7-0.6-0.7
		c-0.1,0-0.2,0-0.4,0c-0.6,0-1.1,0-1.7,0c-0.7,0-1.4,0-2.1,0c-0.5,0-0.9,0.4-0.9,0.9c0,2.8,0,5.6,0,8.3
		C190.4,720,190.4,720.2,190.4,720.4z"/>
	<path class="st0" d="M188.7,714.4c0.1-0.1,0.1-0.3,0.1-0.5c0-0.9,0-1.8,0-2.7c0,0,0,0,0-0.1c0-0.5-0.4-0.9-0.9-0.9
		c-0.2,0-0.4,0-0.6,0c-0.5,0-0.9,0.1-1.4,0.2c-0.6,0.2-1.1,0.4-1.4,1c0-0.6-0.4-1-1-1c-0.6,0-1.2,0-1.8,0c-0.5,0-1.1,0-1.6,0
		c-0.4,0-0.7,0.2-0.8,0.6c0,0.1,0,0.3,0,0.4c0,2.5,0,5,0,7.5c0,1.5,0,3,0,4.5c0,0.6,0.5,1,1,1c0.6,0,1.1,0,1.7,0c0.6,0,1.2,0,1.8,0
		c0.3,0,0.5-0.1,0.7-0.3c0.2-0.2,0.2-0.4,0.2-0.7c0-2,0-4,0-6.1c0-0.2,0-0.4,0.1-0.6c0.3-1.2,1.2-2,2.5-2c0.3,0,0.6,0,0.9,0
		C188.3,714.9,188.6,714.7,188.7,714.4z"/>
	<polygon class="st0" points="164.5,752.4 166,752.4 166,746.4 171.1,746.4 171.1,745.1 166,745.1 166,741.2 172.2,741.2 
		172.2,739.8 164.5,739.8 	"/>
	<rect x="173.9" y="739.8" class="st0" width="1.4" height="12.6"/>
	<path class="st0" d="M185.3,746.6c0-1.4-0.3-2.4-0.8-3c-0.5-0.6-1.4-0.9-2.7-0.9c-2.4,0-3.8,0.9-4.1,2.6l1.3,0.2
		c0.2-1.1,1.1-1.7,2.6-1.7c0.6,0,1.1,0.1,1.5,0.3s0.6,0.5,0.7,0.8c0.1,0.3,0.2,0.9,0.2,1.6c-0.6,0-1,0-1.2,0c-1.9,0-3.3,0.3-4.1,0.9
		c-0.8,0.6-1.2,1.4-1.2,2.3c0,0.8,0.3,1.4,0.8,2c0.6,0.6,1.4,0.8,2.4,0.8c1.5,0,2.6-0.6,3.3-1.9c0.1,0.8,0.1,1.4,0.2,1.7h1.4
		c-0.1-0.5-0.2-1.1-0.2-1.8V746.6z M183.1,750.5c-0.6,0.6-1.3,1-2.1,1c-0.6,0-1.1-0.2-1.5-0.5c-0.3-0.3-0.5-0.7-0.5-1.2
		c0-0.7,0.3-1.3,0.9-1.6c0.6-0.4,1.5-0.6,2.7-0.6c0.3,0,0.8,0,1.3,0.1c0,0.2,0,0.4,0,0.6C184,749.2,183.7,749.9,183.1,750.5z"/>
	<path class="st0" d="M199.5,743.3c-0.5-0.4-1-0.5-1.7-0.5c-1.3,0-2.3,0.7-2.9,2.2c-0.1-0.6-0.4-1.1-0.9-1.6c-0.5-0.4-1-0.7-1.7-0.7
		c-1.2,0-2.2,0.7-2.9,2v-1.8h-1.2v9.3h1.4v-5.6c0-0.8,0.2-1.5,0.7-2c0.5-0.5,1-0.8,1.6-0.8c0.4,0,0.8,0.2,1.2,0.5s0.6,0.9,0.6,1.7
		v6.1h1.4v-5.2c0-1,0.3-1.8,0.8-2.3c0.5-0.5,1-0.8,1.6-0.8c0.4,0,0.8,0.1,1.1,0.4c0.3,0.2,0.5,0.5,0.6,0.8c0.1,0.3,0.1,0.7,0.1,1.3
		v5.8h1.4v-5.8c0-0.9-0.1-1.5-0.2-2C200.3,744.1,200,743.7,199.5,743.3z"/>
	<path class="st0" d="M210.1,744.1c-0.7-0.8-1.7-1.3-2.9-1.3c-1.2,0-2.3,0.5-3.1,1.4c-0.8,0.9-1.2,2.1-1.2,3.6
		c0,1.4,0.4,2.6,1.2,3.5c0.8,0.9,1.8,1.3,3.1,1.3c1,0,1.8-0.3,2.5-0.8s1.2-1.2,1.4-2l-1.3-0.3c-0.5,1.2-1.3,1.8-2.5,1.8
		c-0.7,0-1.3-0.2-1.9-0.7c-0.6-0.5-0.9-1.4-0.9-2.8h6.8C211.2,746.2,210.8,744.9,210.1,744.1z M204.5,746.8c0.1-0.9,0.3-1.6,0.8-2.1
		s1.1-0.8,1.8-0.8c0.5,0,1,0.1,1.4,0.4c0.4,0.3,0.7,0.6,0.8,1c0.2,0.4,0.2,0.9,0.3,1.4H204.5z"/>
</g>
</svg>
