<?xml version="1.0" standalone="no"?>
<!DOCTYPE svg PUBLIC "-//W3C//DTD SVG 20010904//EN"
 "http://www.w3.org/TR/2001/REC-SVG-20010904/DTD/svg10.dtd">
<svg version="1.0" xmlns="http://www.w3.org/2000/svg"
 width="300.000000pt" height="300.000000pt" viewBox="0 0 300.000000 300.000000"
 preserveAspectRatio="xMidYMid meet">
<metadata>
Created by potrace 1.10, written by Peter Selinger 2001-2011
</metadata>
<g transform="translate(0.000000,300.000000) scale(0.050000,-0.050000)"
fill="#000000" stroke="none">
<path d="M2530 5240 c-7 -11 2 -21 19 -22 17 -2 42 -5 56 -7 41 -6 61 13 32
31 -37 24 -92 22 -107 -2z"/>
<path d="M3220 5202 c0 -21 236 -52 255 -34 20 20 0 26 -130 39 -69 7 -125 4
-125 -5z"/>
<path d="M1803 5075 c-76 -125 -87 -220 -74 -643 17 -561 35 -523 35 78 0 33
11 73 23 89 16 20 17 25 1 15 -16 -9 -24 22 -25 99 -3 102 0 109 31 84 29 -23
28 -20 -3 28 -45 70 -27 150 40 175 59 23 66 49 9 34 -56 -14 -50 15 13 65 36
28 42 41 21 41 -17 0 -49 -29 -71 -65z"/>
<path d="M3431 4922 c70 -144 82 -295 109 -1392 12 -484 31 -1163 41 -1510 28
-941 25 -1170 -14 -1253 -18 -37 -37 -64 -42 -59 -5 6 -23 -3 -39 -19 -16 -16
-37 -24 -48 -18 -27 17 -22 50 7 44 31 -6 33 505 7 1555 -10 396 -21 846 -24
1000 -4 154 -12 502 -19 773 -8 315 -5 497 8 505 23 14 7 92 -19 92 -10 0 -18
16 -18 35 0 62 -80 173 -105 148 -17 -17 -16 -29 4 -48 22 -20 24 -20 11 3
-10 18 -8 23 5 15 32 -19 42 -121 55 -543 7 -209 16 -438 20 -510 8 -124 23
-803 40 -1750 4 -242 13 -611 19 -820 11 -338 8 -388 -24 -450 l-35 -70 -192
0 c-125 0 -202 9 -222 25 -17 14 -45 20 -62 14 -17 -7 -65 -2 -107 11 -42 12
-117 27 -165 33 -49 6 -107 17 -130 26 -23 8 -58 13 -77 10 -19 -3 -35 3 -35
13 0 10 -40 18 -89 18 -49 0 -95 10 -102 21 -7 12 -26 17 -41 11 -15 -6 -28
-2 -28 9 0 10 -11 19 -25 19 -14 0 -52 25 -85 55 -74 67 -149 157 -115 137 27
-16 26 38 -2 83 -8 13 -17 61 -18 105 -2 44 -13 80 -24 80 -12 0 -9 8 6 18 28
17 22 189 -9 297 -9 33 -4 45 18 45 21 0 27 13 19 42 -8 31 -15 35 -27 15 -10
-15 -18 -18 -19 -7 -1 11 -5 42 -8 70 -3 27 9 62 27 76 18 15 22 22 9 16 -13
-7 -28 2 -35 20 -18 47 -15 53 18 41 21 -8 30 1 30 33 -1 35 -4 38 -19 15 -10
-17 -23 -25 -29 -20 -15 16 -19 591 -4 616 8 13 1 23 -16 23 -47 0 -5 -1404
47 -1581 76 -259 118 -280 828 -410 563 -102 606 -104 819 -22 68 27 208 77
310 113 407 143 385 -17 326 2408 -12 514 -12 518 31 546 96 62 147 176 147
324 0 93 8 142 25 148 14 5 18 16 10 24 -8 9 -31 2 -51 -17 -20 -18 -65 -38
-100 -45 -66 -13 -99 -164 -44 -198 13 -8 13 -25 0 -50 -11 -21 -20 -70 -20
-111 0 -59 -6 -71 -32 -61 -55 21 -104 -62 -87 -152 8 -45 6 -82 -6 -89 -11
-7 -8 -19 8 -29 33 -20 42 -334 10 -375 -13 -16 -13 -31 -1 -40 22 -15 24 -43
5 -73 -8 -11 -4 -69 6 -128 13 -73 13 -112 -1 -120 -11 -8 -13 -24 -3 -41 10
-15 13 -38 8 -51 -5 -13 0 -61 10 -107 17 -75 15 -83 -19 -83 -42 0 -49 -42
-17 -101 14 -27 14 -39 0 -39 -30 0 -26 -75 4 -86 20 -7 20 -17 0 -51 -35 -59
-32 -104 5 -90 35 13 35 11 35 -418 -1 -190 6 -290 19 -282 11 6 10 -7 -3 -31
-13 -24 -17 -53 -9 -65 7 -12 1 -29 -14 -39 -23 -14 -22 -17 4 -18 40 0 27
-98 -15 -114 -15 -6 -27 -19 -27 -29 0 -11 10 -13 23 -5 14 9 18 5 9 -9 -8
-13 -25 -23 -38 -23 -14 0 -36 -18 -50 -41 -14 -22 -34 -35 -45 -29 -10 7 -19
-4 -19 -24 0 -38 -63 -77 -210 -132 l-80 -30 -2 613 c-2 337 -13 1014 -25
1503 -13 490 -24 1083 -24 1319 -2 538 -23 656 -141 801 -32 40 -29 28 13 -58z"/>
<path d="M4012 4927 c2 -49 10 -95 17 -102 7 -8 -8 -30 -33 -51 -25 -21 -32
-30 -16 -22 26 14 26 11 3 -18 -17 -20 -56 -34 -97 -34 -37 0 -63 -8 -57 -18
6 -11 -4 -23 -24 -28 -19 -6 -2 -8 38 -7 40 2 69 10 64 18 -18 28 15 15 56
-23 22 -21 42 -62 44 -90 3 -47 69 -80 75 -37 26 200 25 251 -9 369 -42 143
-66 160 -61 43z"/>
<path d="M2329 4859 c-69 -14 -181 -70 -199 -99 -7 -11 21 0 62 24 45 27 124
48 206 55 108 10 119 14 61 22 -40 6 -98 5 -130 -2z"/>
<path d="M2322 4760 c-422 -100 -518 -833 -166 -1271 89 -111 244 -212 244
-160 0 17 -7 30 -15 28 -35 -7 -85 30 -85 63 0 19 -14 47 -31 61 -46 38 -94
138 -81 171 6 15 2 28 -9 28 -84 0 1 51 93 56 62 4 130 17 152 30 33 21 45 16
88 -36 27 -33 68 -81 90 -108 55 -66 68 -40 30 62 -87 233 -112 603 -46 669
22 22 16 87 -7 87 -12 0 -16 9 -9 20 7 12 21 16 30 10 9 -6 23 -2 30 10 7 11
-2 20 -19 20 -17 0 -31 9 -31 20 0 60 80 16 82 -45 2 -36 7 -49 12 -30 5 19
11 35 14 35 26 0 138 -71 182 -115 l55 -55 -32 75 c-90 217 -339 416 -490 393
-7 -1 -43 -9 -81 -18z m187 -97 l52 -13 -36 -70 c-26 -52 -32 -91 -21 -150 22
-128 19 -153 -24 -164 -22 -6 -40 -27 -40 -47 0 -48 -21 -101 -37 -91 -7 4
-87 -8 -178 -27 -219 -46 -226 -37 -136 174 21 47 46 85 56 85 11 0 14 13 8
30 -9 24 61 87 82 73 17 -11 45 0 36 15 -10 16 -142 -2 -163 -23 -5 -5 -26
-44 -48 -87 l-40 -78 13 79 c17 104 207 299 296 304 33 2 63 14 67 26 6 17 15
17 35 0 14 -12 50 -28 78 -36z m7 -613 c21 -18 -26 -230 -54 -239 -80 -26
-295 -45 -325 -29 -33 17 -71 190 -47 215 39 39 391 83 426 53z"/>
<path d="M4225 4533 c-76 -22 -88 -82 -20 -101 38 -10 40 -15 15 -32 -24 -15
-19 -19 23 -20 45 0 54 10 61 70 11 93 -2 106 -79 83z"/>
<path d="M4423 4373 c-70 -13 -121 -28 -115 -35 15 -14 287 30 306 49 17 17
-36 13 -191 -14z"/>
<path d="M4053 4367 c-19 -19 -16 -143 3 -155 9 -5 19 30 21 79 5 89 1 101
-24 76z"/>
<path d="M4550 4338 c-44 -8 -116 -21 -160 -29 -44 -8 -68 -18 -54 -24 15 -5
35 -30 44 -56 18 -46 100 -50 100 -4 0 11 29 15 65 10 79 -12 135 14 135 64 0
48 -32 57 -130 39z"/>
<path d="M2690 4240 c-25 -40 -16 -143 15 -174 47 -46 95 -18 95 55 0 107 -71
183 -110 119z"/>
<path d="M1760 3730 c-11 -112 -1 -237 20 -258 24 -24 25 94 1 228 -14 77 -17
82 -21 30z"/>
<path d="M2669 3479 c-7 -11 -2 -34 11 -49 28 -33 -15 -90 -67 -90 -55 0 -56
-39 -1 -52 36 -9 77 -1 125 24 60 32 64 39 29 44 -31 5 -39 17 -31 47 9 34 21
38 78 28 80 -15 92 21 16 49 -67 26 -143 25 -160 -1z"/>
<path d="M1760 3332 c0 -48 11 -96 25 -108 20 -16 24 3 18 88 -8 129 -43 146
-43 20z"/>
<path d="M2731 3245 c-80 -42 -215 -55 -294 -27 -54 19 -61 18 -41 -2 46 -46
283 -33 364 19 79 50 60 57 -29 10z"/>
<path d="M1770 3032 c3 -56 8 -166 10 -244 3 -100 12 -141 30 -141 26 0 29 27
5 65 -7 12 -8 48 -1 80 7 32 10 90 7 128 -4 39 -7 102 -9 142 -1 39 -12 71
-25 71 -15 0 -21 -35 -17 -101z"/>
<path d="M2445 2207 c-41 -17 -28 -52 15 -41 30 8 40 0 40 -28 0 -45 45 -50
80 -8 23 28 14 39 -26 32 -8 -1 -20 11 -27 28 -11 30 -36 35 -82 17z"/>
<path d="M2384 1976 c-47 -47 -31 -343 21 -390 47 -42 249 -92 266 -65 5 8
-45 21 -110 29 -151 17 -160 29 -166 232 l-5 168 128 -5 c131 -5 158 14 38 27
-36 4 -85 12 -107 17 -23 6 -53 -1 -65 -13z"/>
<path d="M2493 1820 c-62 -62 11 -195 77 -140 40 33 38 86 -5 136 -34 40 -36
40 -72 4z"/>
<path d="M2511 1361 c-18 -28 4 -61 42 -61 17 0 27 14 23 33 -7 41 -47 57 -65
28z"/>
</g>
</svg>
