<?xml version="1.0" standalone="no"?>
<!DOCTYPE svg PUBLIC "-//W3C//DTD SVG 20010904//EN"
 "http://www.w3.org/TR/2001/REC-SVG-20010904/DTD/svg10.dtd">
<svg version="1.0" xmlns="http://www.w3.org/2000/svg"
 width="182.000000pt" height="224.000000pt" viewBox="0 0 182.000000 224.000000"
 preserveAspectRatio="xMidYMid meet">
<metadata>
Created by potrace 1.10, written by Peter Selinger 2001-2011
</metadata>
<g transform="translate(0.000000,224.000000) scale(0.100000,-0.100000)"
fill="#000000" stroke="none">
<path d="M765 1978 c-44 -5 -97 -7 -117 -4 -21 2 -38 1 -38 -4 0 -4 -36 -10
-80 -12 -94 -5 -121 -21 -160 -89 l-25 -44 3 -785 3 -785 27 -55 c15 -30 38
-62 52 -72 24 -17 379 -88 440 -88 29 0 72 37 97 83 17 30 18 89 18 872 0 903
1 882 -52 945 -21 26 -22 30 -7 30 31 0 92 -75 99 -122 3 -24 5 -417 3 -875
-3 -823 -3 -832 -24 -860 -11 -15 -35 -35 -53 -45 -45 -23 -51 -32 -16 -25
182 39 289 68 307 84 11 10 31 37 45 60 l24 41 -1 504 0 503 30 29 c47 44 73
102 66 147 l-6 38 66 3 c55 3 69 7 81 25 13 19 12 24 -6 42 -17 17 -34 21 -81
21 l-60 0 0 51 c0 57 -10 81 -53 126 -20 21 -32 45 -34 70 -4 44 -47 118 -83
144 -16 12 -66 24 -140 34 -147 21 -226 24 -325 13z m140 -41 c18 -18 38 -51
44 -72 7 -28 11 -298 11 -870 0 -793 -1 -832 -19 -872 -21 -46 -45 -63 -88
-63 -15 0 -113 15 -216 34 -157 28 -192 37 -213 57 -28 26 -54 71 -54 91 1 7
7 1 16 -14 8 -15 22 -32 32 -37 9 -5 106 -24 215 -42 l198 -32 27 27 27 26 3
811 c1 546 -1 823 -8 850 -19 70 -34 73 -238 60 -207 -15 -219 -16 -238 -32
-36 -29 -39 -54 -45 -324 l-5 -270 0 275 c1 261 2 277 22 315 41 76 45 77 252
96 259 23 239 24 277 -14z m195 9 c111 -16 140 -32 166 -93 21 -48 21 -1618 0
-1666 -21 -50 -45 -65 -141 -87 -50 -11 -98 -23 -107 -26 -14 -4 -12 4 10 43
l27 48 0 835 c0 901 1 877 -53 942 -15 18 -22 29 -16 25 7 -4 58 -13 114 -21z
m-248 -106 c17 -32 18 -93 18 -837 0 -818 -1 -844 -37 -857 -12 -5 -318 41
-399 59 -12 3 -29 20 -38 39 -14 30 -16 117 -16 796 0 672 1 766 15 786 8 13
19 24 23 25 90 9 347 26 377 25 35 -1 42 -5 57 -36z m445 -1198 c-1 -207 -2
-37 -2 378 0 415 1 585 2 377 2 -207 2 -547 0 -755z m83 1004 c0 -6 -15 -11
-32 -10 -32 1 -33 2 -35 50 l-3 49 35 -39 c19 -22 35 -44 35 -50z m10 -69 l0
-43 -40 4 c-39 4 -40 5 -40 43 0 39 0 39 40 39 l40 0 0 -43z m20 -78 c0 -16
-8 -19 -50 -19 -43 0 -50 3 -50 20 0 17 6 19 50 19 42 -1 50 -5 50 -20z m127
5 c8 -22 -6 -32 -59 -39 l-48 -7 0 31 c0 31 1 31 50 31 37 0 52 -4 57 -16z
m-147 -94 l0 -50 -40 0 -40 0 0 50 0 50 40 0 40 0 0 -50z m-10 -68 c0 -5 -16
-26 -35 -48 l-34 -39 -1 48 0 47 35 0 c19 0 35 -4 35 -8z m-1013 -989 c-1 -54
-3 -10 -3 97 0 107 2 151 3 98 2 -54 2 -142 0 -195z"/>
<path d="M555 1834 c-79 -41 -135 -134 -155 -259 -23 -140 13 -278 94 -361 78
-80 155 -86 235 -18 138 118 160 400 45 566 -54 77 -149 109 -219 72z m130
-13 c22 -10 50 -29 62 -42 33 -37 72 -120 78 -170 l5 -44 -13 50 c-7 28 -24
71 -38 95 -20 37 -29 45 -51 43 -16 -1 -29 4 -32 14 -5 13 -4 14 8 4 9 -8 16
-9 21 -2 10 17 -56 51 -98 51 -99 0 -180 -95 -207 -242 l-9 -53 4 53 c5 62 44
154 83 196 30 31 96 66 127 66 11 0 38 -9 60 -19z m-27 -17 c12 -4 22 -14 22
-25 0 -10 10 -25 22 -33 20 -14 20 -17 6 -33 -9 -10 -21 -30 -26 -44 -10 -25
-11 -25 -95 -21 -95 5 -98 3 -112 -71 -9 -45 -6 -46 95 -50 l75 -2 0 -30 0
-30 -85 -5 -85 -5 3 -39 c6 -72 12 -76 112 -76 69 0 90 -3 90 -14 0 -7 9 -24
19 -38 19 -24 19 -24 0 -36 -10 -7 -19 -21 -19 -31 0 -21 -46 -36 -54 -17 -3
8 -7 7 -13 -1 -7 -10 -19 -8 -54 10 -178 90 -168 503 15 583 35 15 51 16 84 8z
m136 -152 c23 -63 31 -166 17 -232 -14 -67 -59 -162 -74 -157 -24 8 -57 90
-57 144 0 29 -4 53 -10 53 -5 0 -10 13 -10 29 0 17 5 33 10 36 6 3 10 32 10
64 0 47 6 66 31 106 l31 49 17 -23 c10 -12 25 -44 35 -69z m-189 -24 l65 -1 0
-43 0 -44 -77 0 -78 0 3 50 c2 27 8 48 13 45 4 -3 38 -6 74 -7z m-103 -45 c-2
-24 -7 -43 -11 -43 -7 0 -4 51 5 79 8 25 11 7 6 -36z m335 -105 c-2 -18 -4 -6
-4 27 0 33 2 48 4 33 2 -15 2 -42 0 -60z m-420 -65 c-3 -10 -5 -2 -5 17 0 19
2 27 5 18 2 -10 2 -26 0 -35z m80 -15 c-2 -13 -4 -5 -4 17 -1 22 1 32 4 23 2
-10 2 -28 0 -40z m173 7 l0 -45 -74 0 -74 0 -4 45 -3 45 77 0 78 0 0 -45z
m157 -7 c-3 -7 -5 -2 -5 12 0 14 2 19 5 13 2 -7 2 -19 0 -25z m-354 -125 c36
-66 110 -102 183 -89 49 10 116 78 142 147 12 30 21 47 21 39 1 -29 -47 -117
-84 -153 -79 -76 -162 -71 -239 14 -24 27 -51 70 -60 96 -21 62 -19 81 2 23 9
-25 25 -59 35 -77z m241 -38 c-4 -8 -11 -15 -16 -15 -6 0 -5 6 2 15 7 8 14 15
16 15 2 0 1 -7 -2 -15z"/>
<path d="M722 1528 c-7 -7 -12 -21 -12 -33 0 -46 55 -63 66 -21 13 52 -22 86
-54 54z m14 -33 c0 -25 -3 -31 -9 -20 -7 13 -2 55 7 55 1 0 2 -16 2 -35z m34
8 c0 -10 -4 -24 -9 -31 -6 -11 -9 -10 -13 5 -3 10 -3 24 -1 31 7 18 23 15 23
-5z"/>
<path d="M610 695 c0 -8 7 -15 15 -15 8 0 15 4 15 9 0 5 -7 11 -15 15 -9 3
-15 0 -15 -9z"/>
<path d="M556 634 c-9 -24 -7 -137 3 -153 11 -18 97 -31 111 -17 5 5 10 45 10
88 0 66 -3 79 -19 88 -31 16 -98 13 -105 -6z m75 -6 l29 1 0 -80 0 -80 -37 7
c-21 4 -41 9 -45 11 -10 5 -11 137 -2 146 4 4 11 4 17 0 5 -3 23 -6 38 -5z"/>
<path d="M596 587 c-22 -16 -18 -56 7 -71 14 -9 21 -7 32 8 12 16 12 23 -1 47
-17 34 -15 33 -38 16z m8 -19 c-5 -8 -2 -9 9 -5 12 5 17 1 17 -12 0 -24 -29
-36 -36 -16 -6 16 1 45 11 45 4 0 3 -5 -1 -12z"/>
</g>
</svg>
