<?xml version="1.0" standalone="no"?>
<!DOCTYPE svg PUBLIC "-//W3C//DTD SVG 20010904//EN"
 "http://www.w3.org/TR/2001/REC-SVG-20010904/DTD/svg10.dtd">
<svg version="1.0" xmlns="http://www.w3.org/2000/svg"
 width="300.000000pt" height="186.000000pt" viewBox="0 0 300.000000 186.000000"
 preserveAspectRatio="xMidYMid meet">
<metadata>
Created by potrace 1.10, written by Peter Selinger 2001-2011
</metadata>
<g transform="translate(0.000000,186.000000) scale(0.100000,-0.100000)"
fill="#000000" stroke="none">
<path d="M2065 1681 c-173 -71 -1276 -558 -1294 -572 -13 -11 -33 -19 -45 -19
-11 -1 -131 -49 -266 -108 -212 -93 -247 -112 -267 -141 -22 -32 -23 -43 -23
-226 0 -183 1 -194 23 -226 19 -28 70 -58 317 -181 162 -80 306 -147 320 -147
27 -1 2056 881 2078 903 8 7 14 29 15 47 1 62 -15 266 -21 276 -9 14 -788 403
-804 402 -7 0 -22 -4 -33 -8z m412 -194 l362 -182 -638 -278 -639 -278 -368
184 -369 185 45 20 c277 120 1011 441 1100 480 63 28 122 51 130 51 8 0 178
-82 377 -182z m408 -207 c3 -5 -1 -10 -10 -10 -9 0 -301 -124 -648 -276 -348
-152 -638 -279 -646 -282 -8 -3 -12 0 -10 7 4 12 1272 570 1296 571 6 0 15 -4
18 -10z m0 -30 c3 -5 1 -10 -4 -10 -6 0 -11 5 -11 10 0 6 2 10 4 10 3 0 8 -4
11 -10z m-21 -47 c2 -10 7 -66 11 -124 5 -82 4 -108 -7 -116 -7 -6 -274 -124
-593 -263 -1100 -479 -1290 -562 -1318 -577 -16 -8 -30 -13 -32 -11 -2 2 14
68 36 148 24 92 45 150 56 159 21 15 1812 799 1830 800 6 1 14 -7 17 -16z
m-2017 -125 c46 -22 47 -24 31 -40 -17 -17 -21 -17 -73 9 -53 26 -54 28 -33
40 13 7 24 12 25 13 0 0 23 -10 50 -22z m239 -190 c200 -100 361 -185 357
-189 -5 -4 -109 -50 -233 -104 -124 -54 -236 -107 -248 -119 -35 -31 -44 -55
-87 -215 -35 -129 -53 -172 -73 -171 -4 1 -137 67 -297 148 -216 110 -293 153
-303 172 -9 18 -12 77 -10 217 3 182 4 194 24 214 18 18 471 226 498 228 5 1
172 -81 372 -181z m-126 117 c54 -29 46 -33 -10 -5 -22 11 -45 20 -52 20 -19
-1 74 -49 95 -50 18 0 25 -20 7 -20 -9 0 -109 47 -119 56 -6 6 10 24 22 24 7
-1 32 -12 57 -25z m106 -35 c22 -11 31 -19 21 -20 -10 0 -20 -7 -23 -15 -9
-23 -37 -2 -39 29 0 14 0 26 0 26 1 0 19 -9 41 -20z m124 -83 c0 -4 -22 4 -50
18 -27 14 -50 27 -50 30 0 7 100 -40 100 -48z m-67 11 c23 -11 53 -24 67 -29
16 -4 19 -8 8 -8 -19 -1 -128 45 -128 53 0 10 9 7 53 -16z m139 -24 l30 -16
-27 -14 c-27 -14 -70 -5 -47 10 6 4 9 13 5 21 -7 19 1 19 39 -1z m73 -55 c25
-12 44 -24 41 -26 -2 -2 -26 7 -53 21 -59 31 -50 34 12 5z m-15 -19 c22 -11
49 -20 62 -20 16 0 19 -3 11 -11 -7 -7 -27 -2 -69 20 -33 16 -55 30 -51 31 4
0 25 -9 47 -20z m230 -79 c0 -4 -10 -12 -22 -18 -16 -7 -32 -3 -68 16 -38 20
-47 30 -47 52 l0 28 69 -35 c37 -19 68 -38 68 -43z m-72 -52 c-8 -4 -103 -47
-212 -94 -245 -106 -272 -120 -290 -148 -8 -12 -33 -89 -55 -172 -39 -146 -59
-185 -94 -185 -6 0 -3 6 7 13 11 8 33 69 60 168 46 164 54 185 83 211 24 22
496 227 507 221 5 -3 2 -9 -6 -14z"/>
<path d="M1855 1527 c-16 -8 -36 -26 -44 -41 -14 -24 -13 -28 7 -48 32 -32
134 -37 180 -9 36 23 41 48 14 81 -23 29 -111 38 -157 17z m130 -20 c23 -18
13 -34 -30 -46 -35 -9 -100 0 -117 17 -31 31 107 58 147 29z m17 -59 c-20 -20
-133 -22 -157 -4 -19 15 -19 16 8 6 39 -14 97 -12 127 3 28 15 40 13 22 -5z"/>
<path d="M1886 1501 c-5 -8 35 -31 54 -31 19 0 10 17 -15 28 -31 14 -32 14
-39 3z"/>
<path d="M2095 1454 c-89 -22 -146 -80 -124 -128 20 -43 72 -61 174 -61 74 0
97 4 133 23 79 42 78 104 -3 146 -35 18 -140 30 -180 20z m146 -26 c124 -37
56 -118 -99 -118 -77 0 -135 23 -140 56 -8 55 137 93 239 62z m73 -92 c-19
-50 -197 -74 -279 -37 -27 12 -46 24 -42 27 3 3 17 -2 31 -12 39 -25 151 -30
214 -10 28 10 56 24 62 32 16 18 21 18 14 0z"/>
<path d="M2103 1398 c-47 -22 -16 -61 48 -60 43 1 73 18 65 37 -2 7 0 17 5 22
13 13 -90 14 -118 1z m51 -19 c-5 -9 1 -10 22 -5 23 6 26 5 17 -5 -12 -12 -70
-16 -80 -5 -10 9 8 26 28 26 13 0 18 -4 13 -11z"/>
<path d="M1523 1373 c-7 -2 -13 -9 -13 -14 0 -9 76 -49 94 -49 5 0 17 -7 27
-16 14 -13 20 -13 38 -2 23 14 28 28 9 28 -7 0 -40 14 -72 30 -61 31 -63 32
-83 23z"/>
<path d="M1712 1310 c-31 -13 -49 -54 -32 -75 23 -28 199 -105 238 -105 48 0
86 20 90 47 3 17 -6 27 -40 44 -24 12 -58 34 -77 48 -60 45 -128 61 -179 41z
m92 -19 c3 -4 -12 -15 -34 -24 -32 -12 -42 -13 -56 -2 -16 11 -16 13 2 23 23
14 81 16 88 3z m69 -30 c33 -17 34 -27 5 -37 -32 -10 -73 -7 -99 6 -21 12 -21
13 17 30 22 10 41 17 44 16 3 -1 17 -8 33 -15z m-123 -36 c51 -26 108 -32 140
-15 16 9 18 7 16 -15 -5 -49 -19 -49 -122 4 -55 27 -95 50 -91 50 4 1 30 -10
57 -24z m240 -56 c0 -5 -16 -1 -35 8 -19 9 -35 22 -35 30 0 8 11 6 35 -8 19
-12 35 -25 35 -30z m-50 -19 c-30 -8 -32 -7 -24 13 5 14 10 15 27 5 22 -12 22
-12 -3 -18z"/>
<path d="M2323 1295 c-32 -14 -53 -41 -53 -69 0 -44 138 -62 198 -26 92 57
-37 142 -145 95z m121 -15 c36 -13 32 -28 -11 -46 -51 -22 -133 -6 -133 26 0
24 97 38 144 20z m-77 -68 c24 -2 57 1 73 7 17 5 28 6 25 1 -18 -29 -141 -29
-168 0 -10 10 -8 11 8 5 11 -5 39 -10 62 -13z"/>
<path d="M2354 1264 c3 -7 0 -15 -7 -17 -7 -3 6 -5 28 -5 31 0 41 4 42 17 1
13 -7 17 -33 17 -23 0 -33 -4 -30 -12z"/>
<path d="M1323 1260 c-12 -5 -29 -23 -38 -39 -14 -29 -14 -32 4 -50 38 -38
141 -40 190 -3 36 26 36 38 3 72 -27 26 -37 30 -84 29 -29 0 -63 -4 -75 -9z
m131 -16 c22 -8 20 -31 -3 -44 -21 -11 -100 -14 -125 -4 -21 8 -20 31 2 43 19
11 101 15 126 5z m26 -52 c0 -31 -132 -43 -166 -16 -19 15 -19 16 1 8 42 -16
103 -16 131 0 35 18 34 18 34 8z"/>
<path d="M1376 1225 c-11 -8 -17 -18 -13 -22 9 -8 57 14 57 27 0 14 -22 12
-44 -5z"/>
<path d="M1533 1169 c-53 -16 -80 -72 -48 -99 42 -35 165 -29 200 10 49 54
-59 117 -152 89z m125 -33 c14 -14 13 -17 -21 -31 -42 -17 -75 -19 -112 -5
-54 21 2 64 74 57 23 -3 50 -12 59 -21z m-78 -56 c28 0 60 5 71 10 12 7 19 7
19 1 0 -10 -61 -31 -90 -31 -29 0 -90 21 -90 31 0 6 7 6 19 -1 11 -5 43 -10
71 -10z"/>
<path d="M1558 1133 c-22 -6 -23 -19 -3 -27 19 -7 65 10 65 24 0 10 -30 12
-62 3z"/>
<path d="M1088 1154 c-29 -15 -45 -54 -33 -74 10 -16 69 -40 97 -40 36 0 96
19 113 36 21 22 19 41 -10 69 -20 21 -34 25 -82 25 -32 -1 -70 -7 -85 -16z
m151 -17 c11 -9 9 -14 -9 -29 -41 -33 -168 -15 -146 20 18 30 122 36 155 9z
m21 -42 c0 -2 -13 -11 -30 -20 -37 -19 -107 -19 -140 0 l-25 15 30 -7 c43 -11
124 -8 138 6 11 11 27 15 27 6z"/>
<path d="M1136 1132 c-2 -4 -1 -14 3 -20 6 -10 13 -10 34 -1 15 7 27 16 27 21
0 10 -57 11 -64 0z"/>
<path d="M1984 1129 c-7 -12 12 -29 34 -29 7 0 25 -9 41 -21 15 -11 47 -23 69
-26 65 -9 52 17 -27 55 -72 33 -105 40 -117 21z"/>
<path d="M1293 1065 c-60 -26 -67 -83 -13 -105 45 -19 146 -9 172 17 63 63
-60 131 -159 88z m139 -23 c32 -32 -75 -66 -129 -40 -33 16 -34 28 -2 46 27
15 114 11 131 -6z m-69 -60 c29 3 61 8 72 12 19 7 19 7 2 -7 -10 -8 -33 -18
-52 -21 -39 -8 -115 9 -115 25 0 6 8 5 21 -2 11 -6 44 -9 72 -7z"/>
<path d="M1343 1038 c-13 -6 -23 -15 -23 -20 0 -11 41 -10 59 1 7 5 10 14 7
20 -9 13 -14 13 -43 -1z"/>
<path d="M1710 1068 c-13 -7 -31 -26 -40 -40 -14 -26 -13 -29 7 -50 31 -30
124 -36 173 -11 41 21 49 50 22 83 -15 19 -31 24 -78 27 -36 2 -69 -1 -84 -9z
m136 -22 c25 -19 10 -34 -42 -46 -52 -12 -114 4 -114 30 0 27 123 40 156 16z
m5 -56 c-30 -26 -127 -28 -157 -4 -19 15 -19 16 1 8 42 -16 113 -16 141 0 39
21 44 19 15 -4z"/>
<path d="M1770 1041 c0 -6 -6 -8 -14 -5 -8 3 -17 1 -21 -5 -3 -6 1 -14 9 -17
23 -9 68 5 63 19 -5 15 -37 22 -37 8z"/>
<path d="M1483 970 c-34 -14 -57 -54 -44 -78 31 -58 189 -52 221 7 9 18 7 26
-19 51 -26 26 -37 30 -83 29 -29 0 -63 -4 -75 -9z m139 -27 c10 -12 9 -18 -7
-29 -24 -18 -115 -18 -139 -1 -16 12 -16 14 -2 26 36 30 125 32 148 4z m18
-41 c0 -31 -132 -43 -166 -16 -19 15 -19 16 1 8 42 -16 103 -16 131 0 35 18
34 18 34 8z"/>
<path d="M1520 935 c-10 -12 -9 -16 5 -21 20 -8 68 13 60 26 -9 15 -51 12 -65
-5z"/>
<path d="M850 972 c0 -14 11 -21 26 -15 21 8 17 23 -6 23 -11 0 -20 -4 -20 -8z"/>
<path d="M960 920 c-8 -5 -12 -11 -10 -13 14 -10 179 -87 188 -87 36 0 11 24
-67 64 -101 52 -91 49 -111 36z"/>
<path d="M608 779 c-21 -11 -38 -24 -38 -29 0 -13 46 -24 66 -16 12 4 15 2 10
-9 -6 -18 26 -37 48 -29 10 4 16 1 16 -9 0 -20 33 -31 63 -20 12 4 31 8 41 8
21 0 35 25 14 25 -21 1 -175 80 -155 80 10 0 15 5 12 10 -9 15 -36 11 -77 -11z
m92 -43 c0 -3 -4 -8 -10 -11 -5 -3 -10 -1 -10 4 0 6 5 11 10 11 6 0 10 -2 10
-4z"/>
<path d="M1220 780 c0 -5 9 -10 20 -10 11 0 20 5 20 10 0 6 -9 10 -20 10 -11
0 -20 -4 -20 -10z"/>
</g>
</svg>
