<?xml version="1.0" standalone="no"?>
<!DOCTYPE svg PUBLIC "-//W3C//DTD SVG 20010904//EN"
 "http://www.w3.org/TR/2001/REC-SVG-20010904/DTD/svg10.dtd">
<svg version="1.0" xmlns="http://www.w3.org/2000/svg"
 width="300.000000pt" height="476.000000pt" viewBox="0 0 300.000000 476.000000"
 preserveAspectRatio="xMidYMid meet">
<metadata>
Created by potrace 1.10, written by Peter Selinger 2001-2011
</metadata>
<g transform="translate(0.000000,476.000000) scale(0.100000,-0.100000)"
fill="#000000" stroke="none">
<path d="M903 4543 c-25 -5 -120 -105 -134 -141 -5 -13 -9 -180 -9 -372 l0
-349 -75 -51 c-41 -27 -76 -50 -78 -50 -3 0 -7 12 -10 28 -8 39 -44 82 -83 98
-49 20 -101 17 -182 -11 -46 -16 -94 -25 -134 -25 -38 -1 -89 -10 -128 -23
-57 -19 -65 -25 -68 -50 l-3 -27 33 19 c44 26 98 39 184 45 39 3 95 14 123 26
30 11 75 20 106 20 63 0 95 -22 119 -82 14 -37 14 -38 -7 -43 -12 -3 -42 -6
-67 -7 -32 -2 -45 -7 -45 -18 0 -12 12 -15 59 -13 77 3 100 13 221 95 55 37
105 68 112 68 7 0 13 5 13 11 0 7 16 33 36 59 32 43 40 47 80 48 24 1 60 -4
78 -12 19 -8 38 -11 41 -8 4 4 5 -19 3 -51 -4 -52 -12 -69 -84 -175 -43 -64
-108 -149 -145 -187 -57 -61 -69 -80 -88 -144 -26 -86 -65 -335 -57 -367 15
-57 86 -23 166 81 76 99 240 183 390 200 l55 7 -29 -21 c-34 -23 -55 -56 -56
-87 0 -31 58 -114 81 -114 10 0 19 -3 19 -7 0 -3 -35 -45 -78 -92 -43 -47
-130 -147 -194 -222 -210 -245 -237 -267 -727 -587 -102 -67 -264 -187 -308
-229 -20 -19 -33 -41 -33 -56 0 -25 0 -25 38 10 82 76 210 169 458 332 l259
170 5 -442 5 -443 32 -39 c17 -22 45 -53 63 -70 l31 -30 327 -3 327 -3 30 -29
c36 -35 676 -348 785 -384 76 -25 294 -72 475 -101 55 -9 115 -19 134 -22 29
-5 33 -3 29 13 -3 16 -26 23 -158 46 -283 50 -374 69 -461 98 -127 42 -683
312 -664 322 8 5 21 31 29 58 22 72 8 106 -56 135 l-50 23 74 17 c148 34 315
17 412 -42 98 -60 176 -64 176 -9 0 28 -141 262 -197 326 -41 46 -106 90 -133
90 -20 0 -445 232 -473 259 -37 34 -63 81 -45 81 7 0 38 24 69 53 l57 52 63
-32 c180 -92 411 -158 524 -150 76 5 142 31 126 50 -9 12 -20 11 -66 -5 -31
-10 -60 -16 -65 -13 -14 9 -12 76 3 105 20 40 82 67 177 78 47 6 110 20 140
31 76 28 186 28 241 0 40 -20 77 -19 64 2 -4 6 -17 14 -29 19 -16 7 -17 9 -4
9 10 1 34 10 55 21 33 16 49 18 116 12 76 -8 77 -8 77 15 0 22 -3 23 -86 23
-52 0 -98 -5 -117 -14 -18 -8 -79 -16 -137 -19 -81 -4 -122 -11 -180 -32 -44
-16 -108 -30 -155 -34 -44 -3 -90 -12 -102 -19 -12 -6 -24 -12 -27 -12 -3 0
-6 483 -6 1074 0 638 -4 1084 -9 1098 -5 13 -34 50 -64 83 l-54 60 -569 1
c-313 1 -579 0 -591 -3z m1149 -27 c9 -4 33 -28 52 -53 l36 -46 0 -1046 0
-1046 -639 0 -640 0 76 76 c41 42 78 82 83 88 5 9 16 7 41 -8 72 -44 163 -15
194 61 20 52 13 96 -22 139 -14 17 -22 34 -17 37 12 9 94 100 121 135 l21 27
32 -30 c40 -38 111 -44 158 -14 104 67 65 234 -57 247 -22 3 -38 13 -51 32
-28 42 -57 54 -132 55 -97 0 -161 -16 -266 -66 -92 -45 -157 -97 -212 -172
l-25 -34 3 154 c1 84 5 167 7 185 4 21 29 58 75 108 99 109 201 259 226 332
11 33 32 75 47 92 54 64 40 150 -32 198 -39 27 -77 29 -126 9 -35 -15 -75 -67
-75 -99 0 -10 -11 -30 -25 -45 -14 -15 -40 -48 -58 -74 -18 -26 -34 -48 -37
-48 -3 0 -4 158 -2 352 l3 351 37 49 c37 49 47 54 112 62 66 7 1075 0 1092 -8z
m-1262 -472 c0 -195 -3 -353 -7 -351 -9 5 -6 707 2 707 3 0 5 -160 5 -356z
m1377 -1206 c-1 -288 -2 -53 -2 522 0 575 1 810 2 523 2 -288 2 -758 0 -1045z
m-1027 1075 c23 -30 25 -77 5 -113 l-13 -25 -11 26 c-5 15 -7 36 -5 46 5 17
-3 21 -48 31 -29 7 -63 9 -75 6 -27 -7 -29 3 -8 34 34 47 116 44 155 -5z m-75
-75 c14 -6 25 -19 25 -30 0 -21 -12 -23 -43 -6 -12 6 -41 10 -64 9 -24 0 -43
2 -43 7 0 31 75 43 125 20z m339 -729 c20 -16 26 -29 26 -61 0 -34 -7 -47 -39
-79 -21 -22 -45 -39 -54 -39 -27 0 -77 67 -77 103 0 36 12 55 50 81 33 22 62
20 94 -5z m-614 -109 c0 -73 -4 -120 -10 -120 -6 0 -10 47 -10 120 0 73 4 120
10 120 6 0 10 -47 10 -120z m751 21 c38 -39 40 -97 5 -138 -33 -38 -102 -40
-139 -5 l-25 24 34 45 c19 25 38 59 41 74 8 39 45 39 84 0z m-784 -138 c-2
-16 -4 -5 -4 22 0 28 2 40 4 28 2 -13 2 -35 0 -50z m473 -289 c0 -46 -14 -70
-52 -90 -35 -18 -89 -12 -108 11 -10 13 -9 19 5 35 19 21 55 27 55 10 0 -5 6
-10 14 -10 16 0 31 31 18 39 -13 9 -9 56 8 76 13 16 16 16 37 -9 15 -17 23
-40 23 -62z m915 -294 c4 -7 -217 -10 -654 -10 -434 0 -661 3 -661 10 0 7 225
10 654 10 426 0 657 -3 661 -10z m-1134 -37 c-5 -10 -6 -24 -1 -33 7 -13 -7
-15 -106 -15 l-114 0 0 26 c0 14 3 29 7 32 3 4 55 7 115 7 100 0 108 -1 99
-17z m344 -15 c0 -33 0 -33 -51 -33 -50 0 -50 0 -50 32 1 33 1 33 51 33 50 0
50 0 50 -32z m341 -1 c0 -36 7 -34 -89 -28 -5 1 -7 7 -4 14 2 6 0 20 -5 30 -8
15 -3 17 44 17 l53 0 1 -33z m464 1 l0 -33 -114 0 c-98 0 -113 2 -106 15 5 8
4 22 -1 32 -9 17 -2 18 106 18 l115 0 0 -32z m-926 3 c9 -15 -21 -21 -99 -21
-76 0 -105 6 -105 21 0 12 197 12 204 0z m342 -2 c5 -9 -3 -10 -29 -5 -20 4
-56 1 -81 -5 -48 -12 -101 -5 -91 11 9 14 192 13 201 -1z m344 1 c0 -15 -39
-21 -119 -18 -48 2 -76 7 -79 16 -3 9 21 12 97 12 59 0 101 -4 101 -10z m-371
-43 c8 -11 -2 -24 -45 -62 -59 -50 -73 -50 -77 1 -2 25 4 32 43 52 51 26 63
27 79 9z m-143 -14 c-4 -5 -140 -8 -302 -8 -162 0 -294 3 -294 8 0 4 136 7
302 7 166 0 298 -3 294 -7z m742 1 c-12 -11 -486 -16 -493 -5 -4 8 72 11 246
11 139 0 250 -3 247 -6z m-1360 -426 l-3 -413 -5 405 c-5 388 -4 420 6 420 2
0 3 -186 2 -412z m612 392 c0 -5 -20 -10 -45 -10 -45 0 -45 0 -45 -35 0 -24 5
-35 15 -35 8 0 15 7 15 15 0 8 4 15 10 15 5 0 7 -7 3 -16 -4 -11 0 -15 13 -14
33 4 44 0 44 -14 0 -8 20 -36 44 -63 37 -40 82 -69 263 -165 120 -64 234 -121
253 -127 43 -14 77 -41 130 -106 40 -50 40 -50 40 -137 0 -49 -2 -88 -4 -88
-3 0 -20 9 -38 19 -63 38 -259 53 -370 30 -66 -14 -149 -52 -174 -80 -13 -15
-19 -36 -19 -70 l0 -49 -310 0 c-346 0 -331 -3 -386 73 l-29 40 0 414 0 413
295 0 c190 0 295 -4 295 -10z m726 -6 c-3 -9 -6 -37 -6 -64 l0 -48 -102 23
c-102 22 -191 56 -204 76 -3 6 -12 8 -20 5 -7 -3 -30 1 -51 9 -35 12 -19 14
176 14 190 1 212 -1 207 -15z m41 -756 c-2 -24 -4 -7 -4 37 0 44 2 63 4 43 2
-21 2 -57 0 -80z m83 -33 c24 -39 17 -43 -39 -24 -22 8 -30 16 -27 26 3 8 6
36 6 61 l1 47 18 -37 c11 -21 29 -53 41 -73z m-563 -34 c46 -22 58 -46 48 -99
-12 -65 -22 -75 -66 -69 -52 7 -82 28 -103 71 -20 42 -7 79 33 101 34 18 38
18 88 -4z"/>
<path d="M1419 4375 c-79 -43 -47 -165 43 -165 85 0 122 100 57 154 -34 29
-61 32 -100 11z m74 -16 c29 -16 37 -28 37 -63 0 -65 -79 -91 -119 -40 -27 35
-26 59 4 89 27 28 45 31 78 14z"/>
<path d="M1418 4066 c-63 -17 -111 -56 -138 -112 -60 -124 3 -270 132 -309 69
-20 126 -11 186 29 68 46 94 102 90 193 -3 60 -8 78 -33 114 -52 74 -149 109
-237 85z m160 -59 c156 -102 67 -353 -118 -335 -101 10 -165 83 -165 189 1
145 161 227 283 146z"/>
<path d="M1462 3910 c0 -54 3 -70 14 -70 11 0 14 17 14 70 0 52 -3 70 -14 70
-10 0 -13 -18 -14 -70z"/>
<path d="M1415 3910 c-29 -32 -25 -88 9 -116 15 -13 38 -24 51 -24 39 0 79 42
79 83 0 34 -26 77 -46 77 -13 0 -9 -27 7 -40 33 -28 4 -90 -42 -90 -25 0 -53
30 -53 57 0 11 9 28 20 38 11 10 20 22 20 27 0 15 -27 8 -45 -12z"/>
<path d="M1840 3983 c-30 -11 -71 -58 -80 -93 -17 -63 12 -125 72 -156 84 -44
188 23 188 121 0 91 -95 159 -180 128z m85 -37 c33 -14 65 -59 65 -91 0 -31
-32 -77 -63 -90 -43 -18 -82 -9 -112 27 -45 53 -27 125 39 154 39 16 31 16 71
0z"/>
<path d="M1876 3911 c-3 -5 -3 -16 0 -25 5 -12 0 -16 -20 -16 -16 0 -26 -6
-26 -15 0 -9 10 -15 26 -15 20 0 25 -4 22 -22 -2 -15 2 -23 12 -23 10 0 14 8
12 23 -3 18 2 22 23 22 32 0 29 23 -4 28 -14 2 -21 9 -17 17 6 16 -19 40 -28
26z"/>
<path d="M1303 3462 c-37 -5 -73 -57 -73 -106 0 -34 6 -48 31 -72 l30 -29 178
-3 c170 -3 178 -2 205 19 16 12 35 37 42 56 12 28 12 38 1 66 -30 69 -40 72
-226 72 -91 0 -176 -1 -188 -3z m298 -22 c60 0 99 -31 99 -78 0 -54 -29 -76
-108 -82 l-70 -5 24 28 c32 38 30 78 -3 118 -21 25 -24 31 -10 26 10 -4 41 -7
68 -7z m-231 -80 l0 -70 -34 0 c-38 0 -76 36 -76 72 0 30 45 68 80 68 l30 0 0
-70z m37 -37 c-2 -21 -4 -4 -4 37 0 41 2 58 4 38 2 -21 2 -55 0 -75z m53 37
c0 -40 -4 -70 -10 -70 -6 0 -10 30 -10 70 0 40 4 70 10 70 6 0 10 -30 10 -70z
m58 54 c31 -21 31 -87 0 -108 -12 -9 -26 -16 -30 -16 -5 0 -8 32 -8 70 0 39 3
70 8 70 4 0 18 -7 30 -16z"/>
<path d="M932 3376 c-8 -10 -8 -17 -4 -53 2 -16 42 -17 42 -2 0 7 4 8 13 2 6
-5 35 -10 64 -11 42 -2 52 0 56 15 4 17 5 17 6 1 1 -14 10 -18 39 -18 21 0 41
2 43 5 3 2 3 20 1 39 l-4 35 -124 -1 c-75 -1 -128 -6 -132 -12z m79 -29 c-13
-13 -26 -3 -16 12 3 6 11 8 17 5 6 -4 6 -10 -1 -17z m82 13 c8 0 8 -3 -1 -12
-8 -8 -15 -8 -25 0 -8 7 -18 8 -22 4 -5 -4 -5 -1 -1 6 5 7 15 11 23 8 8 -3 20
-6 26 -6z m67 -5 c-7 -8 -17 -12 -23 -8 -6 4 -3 9 9 14 27 11 28 11 14 -6z"/>
<path d="M1766 3382 c-10 -10 -6 -48 6 -60 18 -18 68 -15 68 3 0 8 5 15 10 15
6 0 10 -6 10 -13 0 -16 56 -21 66 -6 3 5 11 6 17 2 22 -14 67 -12 67 3 0 8 6
14 14 14 19 0 28 14 20 34 -4 10 -18 16 -40 16 -30 0 -34 -3 -34 -26 0 -14 -4
-23 -9 -20 -5 3 -7 14 -4 24 4 17 -3 19 -91 19 -52 1 -97 -2 -100 -5z m34 -22
c0 -5 -2 -10 -4 -10 -3 0 -8 5 -11 10 -3 6 -1 10 4 10 6 0 11 -4 11 -10z m120
-11 c0 -5 -7 -9 -15 -9 -15 0 -20 12 -9 23 8 8 24 -1 24 -14z m-95 1 c3 -5 1
-10 -4 -10 -6 0 -11 5 -11 10 0 6 2 10 4 10 3 0 8 -4 11 -10z"/>
<path d="M1773 3079 c-66 -19 -106 -103 -83 -173 28 -85 147 -118 212 -59 109
98 11 273 -129 232z m108 -57 c61 -54 33 -153 -47 -168 -58 -11 -113 35 -114
94 0 43 14 68 48 86 42 23 78 19 113 -12z"/>
<path d="M1796 2981 c-13 -14 -14 -21 -6 -26 9 -6 9 -10 -1 -16 -22 -13 13
-43 40 -34 33 10 25 95 -9 95 -4 0 -15 -9 -24 -19z m34 -51 c0 -5 -4 -10 -10
-10 -5 0 -10 5 -10 10 0 6 5 10 10 10 6 0 10 -4 10 -10z"/>
<path d="M1436 2720 c-52 -16 -96 -73 -96 -125 0 -134 181 -186 250 -72 62
101 -39 231 -154 197z m105 -59 c38 -39 40 -97 5 -138 -20 -23 -32 -28 -71
-28 -39 0 -51 5 -71 28 -55 64 -11 167 71 167 27 0 44 -8 66 -29z"/>
<path d="M1447 2603 c-7 -43 1 -56 34 -51 27 3 38 36 17 49 -10 6 -10 9 0 9 6
0 12 7 12 15 0 10 -10 15 -29 15 -25 0 -29 -4 -34 -37z m38 -23 c3 -5 1 -10
-4 -10 -6 0 -11 5 -11 10 0 6 2 10 4 10 3 0 8 -4 11 -10z"/>
<path d="M1776 2720 c-38 -12 -66 -38 -82 -77 -18 -42 -18 -67 3 -110 43 -92
180 -98 233 -10 62 101 -39 231 -154 197z m106 -59 c28 -25 33 -36 32 -72 -1
-35 -8 -48 -33 -71 -94 -84 -221 53 -132 143 40 40 89 40 133 0z"/>
<path d="M1790 2614 c-13 -34 4 -66 33 -62 17 2 23 11 25 37 5 52 -40 72 -58
25z m40 -34 c0 -5 -4 -10 -10 -10 -5 0 -10 5 -10 10 0 6 5 10 10 10 6 0 10 -4
10 -10z"/>
<path d="M1454 2979 c-14 -16 -16 -22 -5 -28 9 -6 10 -11 2 -15 -25 -16 -11
-36 24 -36 24 0 35 5 35 15 0 8 -5 15 -12 15 -9 0 -9 3 0 12 17 17 15 36 -7
47 -14 8 -23 6 -37 -10z"/>
<path d="M1128 2136 c-10 -7 -18 -17 -18 -21 0 -9 31 -34 43 -35 4 0 7 16 7
35 0 38 -6 42 -32 21z"/>
<path d="M1314 1639 c-10 -17 13 -36 27 -22 12 12 4 33 -11 33 -5 0 -12 -5
-16 -11z"/>
<path d="M1316 1551 c2 -61 8 -71 44 -71 33 0 42 10 50 60 8 52 34 47 38 -7 3
-37 7 -44 29 -49 37 -10 57 7 63 52 7 53 33 53 40 0 6 -45 26 -62 63 -52 24 6
27 11 27 47 0 32 4 42 20 46 32 8 23 21 -15 21 l-35 0 0 -50 c0 -63 -23 -61
-30 3 l-5 44 -47 1 -47 1 -3 -45 c-4 -57 -28 -70 -28 -15 0 53 -9 62 -57 60
l-42 -1 -3 -46 c-2 -32 -7 -45 -18 -45 -11 0 -15 12 -14 48 0 37 -3 47 -16 47
-13 0 -16 -10 -14 -49z"/>
<path d="M940 3748 c19 -5 46 -14 59 -19 35 -14 37 -3 2 15 -16 9 -45 16 -63
15 l-33 -1 35 -10z"/>
<path d="M1050 2986 c0 -2 18 -35 39 -73 22 -37 45 -87 52 -110 12 -43 36 -62
24 -20 -10 38 -97 207 -106 207 -5 0 -9 -2 -9 -4z"/>
<path d="M1565 2142 c-31 -19 -63 -52 -51 -52 7 0 64 40 91 62 18 15 -10 8
-40 -10z"/>
<path d="M347 1933 c-3 -5 -10 -34 -17 -65 -11 -58 -7 -82 13 -75 12 4 39 125
31 138 -6 11 -21 12 -27 2z"/>
<path d="M313 1713 c-9 -3 -13 -28 -13 -75 0 -59 2 -69 17 -66 13 2 17 18 20
69 4 66 0 80 -24 72z"/>
<path d="M303 1424 c4 -37 11 -72 17 -78 20 -20 28 9 21 74 -5 53 -10 65 -25
68 -18 4 -19 -1 -13 -64z"/>
<path d="M1926 1315 c-11 -30 -18 -200 -8 -225 7 -18 10 8 14 105 3 72 4 131
3 133 -1 2 -5 -4 -9 -13z"/>
<path d="M336 1261 c-8 -13 19 -120 33 -134 24 -24 29 9 12 72 -17 63 -32 83
-45 62z"/>
<path d="M495 1147 c-74 -19 -187 -89 -240 -149 -96 -109 -140 -233 -133 -372
14 -258 214 -462 473 -483 267 -21 505 171 547 441 32 208 -86 425 -288 527
-82 42 -86 43 -197 46 -68 1 -132 -3 -162 -10z m239 -23 c18 -4 24 -10 17 -18
-5 -6 -23 -54 -42 -106 -18 -52 -35 -97 -38 -100 -3 -3 -7 -13 -7 -23 -1 -9
-19 -66 -40 -126 -52 -147 -41 -160 91 -116 22 7 76 21 120 30 91 20 220 53
252 66 27 10 32 -3 32 -76 0 -101 -44 -231 -98 -295 -55 -63 -105 -110 -124
-116 -12 -4 -34 -15 -49 -26 -16 -11 -28 -17 -28 -15 0 3 -22 -3 -48 -13 -60
-23 -210 -25 -274 -4 -230 77 -362 270 -344 502 7 92 14 119 51 192 28 56 131
166 175 187 94 44 125 56 167 62 51 9 143 6 187 -5z m141 -63 c100 -52 196
-176 211 -272 l6 -34 -119 -29 c-65 -16 -173 -43 -241 -61 -103 -27 -122 -29
-117 -16 9 22 155 445 155 448 0 8 61 -12 105 -36z"/>
<path d="M442 573 c-25 -25 -37 -47 -37 -65 1 -35 30 -67 56 -61 14 4 19 0 19
-15 0 -24 16 -38 53 -47 33 -9 37 -41 6 -50 -11 -4 -22 -5 -23 -3 -1 1 -10 15
-19 31 -12 19 -26 27 -45 27 -79 0 -64 -103 22 -144 47 -22 75 -20 130 9 l47
25 33 -25 c74 -57 206 -7 206 77 0 17 -8 40 -17 50 -13 14 -14 21 -5 30 21 21
13 49 -22 84 -30 30 -40 34 -85 34 -30 0 -62 -7 -75 -16 -23 -15 -24 -14 -35
18 -16 47 -66 78 -125 78 -42 0 -52 -5 -84 -37z m149 -6 c26 -18 35 -31 37
-59 2 -22 -3 -41 -13 -51 -14 -15 -14 -18 5 -37 14 -14 20 -33 20 -64 0 -37
-5 -48 -31 -70 -62 -53 -167 -21 -185 57 -5 24 -3 27 19 27 18 0 27 -7 31 -25
9 -34 48 -52 80 -37 58 26 49 93 -13 102 -48 7 -50 36 -4 45 19 3 37 13 40 21
9 25 -6 61 -29 67 -28 8 -68 -17 -68 -42 0 -12 -9 -20 -25 -23 -19 -4 -25 -1
-25 13 0 34 24 72 55 85 43 19 68 17 106 -9z m-51 -78 c0 -4 -9 -9 -20 -12
-11 -3 -18 -2 -17 1 2 4 7 16 11 27 6 16 9 17 16 5 6 -8 10 -18 10 -21z m291
-6 c9 -10 19 -27 21 -38 4 -25 -29 -22 -55 6 -21 23 -46 24 -73 5 -26 -20 -9
-36 52 -47 60 -11 84 -33 84 -75 0 -73 -113 -103 -171 -45 -36 37 -38 61 -4
61 16 0 25 -6 25 -15 0 -15 37 -35 64 -35 7 0 21 6 31 14 27 19 6 42 -45 51
-98 17 -123 105 -40 138 27 11 92 -1 111 -20z"/>
<path d="M2557 652 c-47 -48 -56 -65 -37 -77 12 -7 100 83 100 102 0 27 -19
19 -63 -25z"/>
<path d="M2395 498 c-27 -22 -51 -46 -53 -54 -7 -27 34 -13 82 29 39 34 46 45
35 54 -11 8 -26 1 -64 -29z"/>
<path d="M2200 367 c-53 -32 -65 -49 -38 -55 17 -3 122 60 120 73 -2 20 -28
14 -82 -18z"/>
<path d="M1060 324 c0 -18 106 -68 126 -60 27 10 13 27 -42 51 -65 29 -84 31
-84 9z"/>
<path d="M1998 282 c-98 -35 -83 -65 17 -34 39 11 61 24 63 35 4 21 -17 21
-80 -1z"/>
<path d="M1270 245 c0 -15 63 -36 115 -39 52 -2 37 27 -20 40 -71 17 -95 17
-95 -1z"/>
<path d="M1768 233 c-43 -5 -70 -29 -43 -39 9 -4 42 -3 73 2 42 7 58 14 60 27
4 18 -5 19 -90 10z"/>
<path d="M1490 206 c0 -10 16 -17 54 -21 66 -9 91 -4 91 15 0 12 -16 16 -72
18 -59 2 -73 0 -73 -12z"/>
</g>
</svg>
