<?xml version="1.0" standalone="no"?>
<!DOCTYPE svg PUBLIC "-//W3C//DTD SVG 20010904//EN"
 "http://www.w3.org/TR/2001/REC-SVG-20010904/DTD/svg10.dtd">
<svg version="1.0" xmlns="http://www.w3.org/2000/svg"
 width="300.000000pt" height="300.000000pt" viewBox="0 0 300.000000 300.000000"
 preserveAspectRatio="xMidYMid meet">
<metadata>
Created by potrace 1.10, written by Peter Selinger 2001-2011
</metadata>
<g transform="translate(0.000000,300.000000) scale(0.100000,-0.100000)"
fill="#000000" stroke="none">
<path d="M156 2457 c-91 -28 -128 -146 -72 -231 25 -39 98 -70 145 -61 20 4
36 5 36 4 0 -2 15 10 34 26 43 38 60 79 55 133 -8 99 -101 159 -198 129z m113
-31 c49 -26 67 -68 62 -143 0 -12 -17 -38 -36 -58 -31 -31 -42 -35 -86 -35
-80 0 -129 47 -129 125 0 98 100 157 189 111z"/>
<path d="M909 2116 c-51 -12 -113 -45 -131 -71 -4 -5 -8 -1 -8 11 0 42 -29 54
-131 54 -61 0 -99 -4 -107 -12 -9 -9 -12 -92 -12 -311 0 -298 -2 -321 -36
-354 -34 -35 -121 -18 -140 26 -3 9 -8 153 -10 320 -3 276 -5 305 -21 317 -28
21 -197 19 -218 -2 -14 -15 -16 -53 -13 -343 3 -310 4 -328 25 -373 12 -25 37
-62 57 -82 35 -36 130 -86 165 -86 10 0 21 -3 24 -7 22 -22 178 -2 268 35 30
12 109 86 109 102 0 6 5 8 12 4 6 -4 8 -3 5 3 -4 6 0 28 9 49 16 37 24 148 24
326 0 38 4 67 9 64 4 -3 6 5 4 18 -6 32 54 95 93 98 78 4 107 -9 132 -58 7
-12 11 -95 12 -207 0 -163 3 -194 21 -242 19 -52 100 -151 113 -138 3 4 6 1 6
-5 0 -7 6 -12 13 -12 8 0 29 -7 47 -16 78 -39 280 -24 350 26 15 11 31 20 35
20 16 0 67 70 84 115 24 64 32 132 32 285 1 139 8 167 51 205 25 23 39 27 84
26 46 0 58 -5 79 -27 14 -15 28 -37 30 -48 3 -12 6 -109 7 -216 3 -181 5 -198
26 -238 40 -74 124 -140 203 -158 136 -31 289 -1 367 71 15 14 30 25 35 25 4
0 6 4 3 9 -3 5 1 14 9 21 29 24 43 104 49 278 7 188 15 224 61 260 21 17 41
22 86 22 32 0 61 -4 64 -10 9 -14 21 -12 38 5 21 20 17 212 -4 226 -33 22
-163 -10 -226 -57 -19 -14 -23 -14 -23 -2 0 34 -34 48 -118 48 -98 0 -132 -11
-132 -43 0 -13 -6 -29 -12 -36 -10 -11 -10 -13 0 -7 16 9 16 -36 0 -52 -7 -7
-8 -12 -3 -12 6 0 7 -61 2 -162 -4 -90 -5 -199 -2 -244 5 -75 4 -82 -19 -106
-19 -22 -31 -26 -62 -23 -57 5 -74 32 -75 119 -5 366 -13 423 -71 487 -47 51
-94 75 -170 88 -89 15 -180 0 -243 -40 -29 -19 -45 -24 -45 -15 0 7 -8 20 -18
29 -23 21 -188 24 -215 5 -15 -12 -17 -41 -18 -278 -1 -146 -6 -273 -10 -282
-5 -9 -5 -19 0 -22 14 -9 0 -54 -25 -81 -36 -39 -100 -31 -125 17 -8 14 -13
97 -15 235 -1 130 -7 228 -14 250 -32 98 -98 155 -208 178 -78 17 -88 17 -163
1z m2004 -114 c1 -56 1 -102 1 -102 -1 0 -15 7 -30 15 -58 30 -157 7 -194 -45
-27 -37 -40 -132 -40 -286 0 -156 -14 -208 -72 -266 -152 -152 -455 -116 -551
66 -19 37 -22 60 -25 246 -1 113 -8 217 -14 232 -24 62 -122 85 -197 46 -74
-38 -82 -64 -90 -296 -7 -192 -8 -199 -34 -245 -31 -53 -72 -87 -143 -119 -40
-18 -67 -22 -149 -22 -88 0 -107 4 -155 27 -69 33 -117 78 -144 137 -18 40
-21 70 -26 257 -5 206 -6 212 -29 237 -71 76 -206 47 -249 -54 -11 -25 -17
-90 -21 -225 -6 -167 -9 -195 -28 -230 -29 -55 -68 -89 -138 -122 -53 -24 -71
-27 -160 -27 -85 0 -108 4 -155 25 -67 31 -116 78 -144 139 -20 43 -21 62 -21
368 l0 323 102 2 102 2 3 -316 c3 -301 4 -318 23 -339 50 -57 125 -58 176 -4
l24 26 3 316 3 317 102 -2 102 -2 -1 -55 c-1 -31 3 -56 7 -56 5 0 9 4 9 9 0
22 58 76 105 97 100 47 264 23 336 -49 59 -58 63 -79 69 -340 l5 -239 33 -29
c45 -40 99 -40 144 0 l33 29 3 319 3 318 102 -2 102 -2 -3 -58 -3 -58 46 52
c55 62 107 83 211 83 119 0 213 -52 252 -140 13 -27 17 -87 22 -268 l5 -234
33 -29 c45 -40 99 -40 144 0 l33 29 2 312 3 312 102 0 102 0 -3 -59 -3 -58 42
48 c47 53 82 74 143 87 89 18 88 18 90 -98z"/>
<path d="M375 933 c-11 -3 -31 -10 -45 -15 -14 -5 -26 -9 -28 -8 -8 2 -52 -60
-52 -74 0 -8 10 -21 22 -27 12 -6 33 -25 46 -41 16 -19 32 -28 43 -25 11 3 16
0 13 -7 -3 -7 7 -23 21 -36 24 -23 28 -24 53 -9 15 8 28 25 30 37 2 12 10 22
19 22 19 0 103 81 103 100 0 21 -60 66 -106 79 -40 11 -84 13 -119 4z m128
-33 c15 -5 41 -19 57 -30 27 -19 28 -23 15 -36 -13 -13 -18 -12 -43 6 -35 26
-95 41 -136 33 -38 -7 -96 -41 -96 -55 0 -6 -9 -3 -20 7 -19 17 -19 18 3 35
71 55 135 66 220 40z m0 -89 c23 -15 25 -20 14 -29 -11 -9 -22 -8 -46 4 -34
17 -75 13 -101 -11 -13 -11 -18 -11 -34 0 -17 13 -16 15 15 34 43 27 114 28
152 2z m-48 -67 c14 -6 14 -8 -1 -25 -20 -23 -23 -23 -49 -3 -17 13 -18 16 -5
24 18 11 32 12 55 4z"/>
<path d="M1550 911 c-5 -11 -10 -64 -10 -119 0 -78 3 -102 15 -112 12 -10 19
-10 27 -2 8 8 17 8 30 1 15 -8 24 -7 37 5 24 22 29 20 24 -8 -6 -29 37 -66 77
-66 32 0 76 32 85 61 5 15 10 18 18 10 7 -7 16 -7 29 0 13 7 18 21 18 54 0 25
4 45 10 45 5 0 7 7 4 15 -4 9 0 15 10 15 15 0 21 -21 16 -64 -5 -55 28 -90 60
-61 15 14 18 14 30 0 14 -17 60 -21 60 -5 0 6 -8 10 -19 10 -31 0 -43 25 -39
85 3 47 0 55 -14 55 -10 0 -18 5 -18 10 0 6 6 10 14 10 8 0 16 9 18 20 4 25
24 22 21 -2 -2 -12 4 -18 17 -18 11 0 20 -4 20 -10 0 -5 -9 -10 -20 -10 -17 0
-19 -7 -19 -56 1 -47 4 -57 20 -61 10 -3 19 -9 19 -13 0 -13 47 -28 60 -20 8
5 22 4 31 -1 35 -18 57 33 51 114 -1 11 5 17 17 17 15 0 19 -7 19 -27 -2 -83
2 -101 22 -106 14 -4 25 1 33 14 17 28 27 23 21 -10 -5 -22 -1 -32 21 -50 45
-34 107 -25 130 20 18 34 21 194 4 205 -6 3 -32 8 -58 11 -41 4 -52 1 -81 -24
-19 -15 -31 -22 -26 -15 4 7 2 12 -8 12 -8 0 -19 7 -24 16 -7 13 -21 15 -64
11 -31 -2 -61 -7 -67 -11 -8 -5 -10 3 -7 28 3 25 0 36 -11 40 -23 9 -43 -13
-43 -48 l-1 -31 -28 34 c-31 38 -59 37 -68 0 -5 -18 -11 -20 -42 -15 -20 3
-44 6 -53 6 -10 0 -18 6 -18 13 0 7 -6 22 -14 32 -12 16 -16 17 -30 6 -9 -7
-16 -27 -16 -43 0 -23 -3 -28 -12 -21 -22 17 -98 15 -125 -2 -34 -23 -54 -13
-47 23 7 36 -18 61 -41 42 -12 -10 -19 -10 -27 -2 -17 17 -26 15 -38 -7z m30
-111 c0 -67 -4 -110 -10 -110 -6 0 -10 43 -10 110 0 67 4 110 10 110 6 0 10
-43 10 -110z m60 90 c0 -11 -4 -20 -10 -20 -5 0 -10 9 -10 20 0 11 5 20 10 20
6 0 10 -9 10 -20z m240 -21 c0 -35 2 -40 14 -30 24 20 69 9 83 -19 18 -36 17
-130 -2 -130 -11 0 -15 16 -17 68 -3 61 -5 67 -26 70 -39 6 -52 -15 -52 -79 0
-33 -4 -59 -10 -59 -6 0 -10 43 -10 110 0 67 4 110 10 110 6 0 10 -19 10 -41z
m270 21 c0 -11 -7 -20 -15 -20 -8 0 -15 9 -15 20 0 11 7 20 15 20 8 0 15 -9
15 -20z m-510 -120 c0 -47 -4 -80 -10 -80 -6 0 -10 33 -10 80 0 47 4 80 10 80
6 0 10 -33 10 -80z m148 68 c9 -9 12 -9 12 0 0 7 5 12 10 12 6 0 10 -36 10
-87 0 -75 -3 -90 -22 -110 -27 -28 -69 -30 -93 -3 -22 24 -13 39 10 16 31 -31
85 -9 85 35 0 18 -1 19 -24 3 -68 -44 -130 71 -70 130 18 19 65 21 82 4z m362
-68 c0 -64 -3 -80 -15 -80 -12 0 -15 16 -15 80 0 64 3 80 15 80 12 0 15 -16
15 -80z m50 70 c0 -7 6 -7 19 0 26 14 64 13 79 -2 14 -14 17 -148 2 -148 -5 0
-10 30 -12 68 -3 64 -4 67 -29 70 -38 4 -52 -20 -50 -83 1 -44 -2 -55 -14 -55
-13 0 -15 13 -13 80 2 44 6 80 11 80 4 0 7 -5 7 -10z m257 -6 c2 -7 -8 -9 -28
-6 -36 5 -59 -16 -59 -55 0 -23 32 -63 50 -63 23 0 51 42 49 73 -3 48 0 67 11
67 6 0 10 -36 10 -87 0 -75 -3 -90 -22 -110 -27 -29 -71 -30 -100 -1 -14 14
-17 23 -10 26 7 2 19 -4 28 -12 30 -31 84 -9 84 35 0 18 -2 18 -24 4 -66 -43
-133 68 -75 126 21 21 79 24 86 3z m-358 -66 c0 -47 -1 -50 -11 -28 -11 24
-11 42 -3 68 9 26 15 10 14 -40z m343 19 c6 -32 -1 -47 -23 -47 -15 0 -19 7
-19 35 0 28 4 35 19 35 12 0 20 -9 23 -23z"/>
<path d="M1709 803 c-13 -35 -4 -69 21 -83 44 -23 85 34 61 86 -16 36 -68 34
-82 -3z m57 -9 c-3 -8 -2 -12 4 -9 15 9 12 -15 -4 -31 -28 -28 -47 -11 -38 33
3 15 11 23 24 23 14 0 18 -5 14 -16z"/>
<path d="M1373 903 c-7 -2 -13 -11 -13 -18 0 -7 -11 -15 -25 -17 -14 -3 -25
-1 -25 6 0 7 -4 6 -9 -2 -4 -7 -14 -12 -22 -10 -7 2 -17 -6 -23 -18 -9 -20 -9
-20 -32 3 -31 31 -88 31 -116 0 l-21 -23 -22 22 c-20 20 -32 22 -120 21 -80
-1 -99 -4 -108 -18 -10 -16 -12 -16 -35 2 -61 47 -153 -1 -124 -66 7 -15 8
-27 2 -30 -17 -11 -11 -41 13 -63 28 -26 88 -29 112 -6 14 15 18 15 33 1 29
-27 52 -4 52 51 0 61 15 86 24 42 3 -18 6 -42 6 -55 0 -12 9 -30 21 -41 20
-18 21 -18 35 1 8 10 14 42 14 73 0 38 4 52 13 50 6 -3 14 -13 15 -23 3 -12 0
-15 -10 -10 -10 6 -11 5 0 -6 6 -7 12 -28 12 -46 0 -37 22 -53 49 -36 12 8 22
7 35 -3 19 -14 173 -13 196 1 5 3 10 24 10 46 0 47 14 79 35 79 11 0 15 -12
15 -48 0 -75 46 -119 80 -77 10 12 9 21 -3 47 -15 31 -14 44 5 85 6 12 7 30 3
40 -5 10 -7 22 -6 26 1 5 -3 6 -8 3 -5 -3 -11 1 -15 9 -5 15 -20 18 -43 8z
m30 -32 c-3 -13 2 -21 19 -26 l23 -8 -22 -4 c-21 -4 -23 -10 -23 -60 0 -46 3
-56 20 -60 24 -6 17 -23 -10 -23 -23 0 -30 19 -30 86 0 52 -1 54 -27 54 -44 0
-63 -26 -63 -87 0 -29 -4 -53 -10 -53 -6 0 -10 33 -10 80 0 47 4 80 10 80 6 0
10 -5 10 -10 0 -7 7 -7 20 0 11 6 26 10 33 9 27 -3 37 2 37 19 0 10 3 22 6 25
12 11 22 -2 17 -22z m-608 -41 c10 -11 15 -23 11 -28 -4 -4 -14 1 -21 11 -9
12 -23 17 -42 15 -43 -5 -34 -30 17 -48 40 -14 45 -19 45 -45 0 -23 -6 -32
-26 -39 -35 -12 -76 -1 -90 25 -16 30 -1 38 20 11 22 -30 76 -28 76 2 0 14
-10 22 -35 29 -44 11 -60 24 -60 48 0 39 74 53 105 19z m75 8 c0 -9 3 -9 12 0
7 7 21 12 33 12 12 0 26 -5 33 -12 9 -9 15 -9 24 0 7 7 24 12 38 12 40 0 50
-18 50 -92 0 -88 -18 -89 -22 0 l-3 67 -30 0 -30 0 -3 -67 c-2 -52 -6 -68 -17
-68 -12 0 -15 15 -15 70 0 66 -1 70 -23 70 -36 0 -47 -19 -47 -82 0 -32 -4
-58 -10 -58 -6 0 -10 33 -10 80 0 47 4 80 10 80 6 0 10 -5 10 -12z m341 -4 c7
-9 12 -37 12 -65 -1 -27 3 -51 8 -54 14 -9 11 -25 -6 -25 -8 0 -15 7 -15 17 0
15 -1 15 -18 0 -37 -34 -92 -16 -92 30 0 24 18 36 73 47 18 5 27 13 27 26 0
16 -7 20 -35 20 -24 0 -35 -5 -35 -15 0 -8 -7 -15 -15 -15 -19 0 -19 9 2 32
20 22 76 24 94 2z"/>
<path d="M1142 759 c-30 -11 -25 -43 6 -47 28 -4 52 14 52 39 0 21 -20 24 -58
8z"/>
</g>
</svg>
