<?xml version="1.0" standalone="no"?>
<!DOCTYPE svg PUBLIC "-//W3C//DTD SVG 20010904//EN"
 "http://www.w3.org/TR/2001/REC-SVG-20010904/DTD/svg10.dtd">
<svg version="1.0" xmlns="http://www.w3.org/2000/svg"
 width="450.000000pt" height="450.000000pt" viewBox="0 0 450.000000 450.000000"
 preserveAspectRatio="xMidYMid meet">
<metadata>
Created by potrace 1.10, written by Peter Selinger 2001-2011
</metadata>
<g transform="translate(0.000000,450.000000) scale(0.050000,-0.050000)"
fill="#000000" stroke="none">
<path d="M6457 8835 c-79 -67 -277 -416 -276 -486 0 -32 38 -286 85 -564 l84
-506 175 -8 c96 -4 175 -2 175 5 0 8 -19 129 -43 269 -24 140 -39 259 -34 265
16 15 508 -64 556 -89 66 -36 97 -120 145 -400 37 -219 52 -268 85 -285 23
-12 86 -54 141 -95 84 -63 108 -72 145 -55 59 27 61 5 -65 727 l-110 629 58
114 c57 115 62 336 9 383 -19 17 -923 142 -1017 141 -33 0 -84 -20 -113 -45z
m219 -199 c17 -17 24 -18 24 -1 0 13 33 22 80 21 44 0 75 -7 70 -16 -5 -8 27
-12 71 -9 62 5 79 -1 81 -27 1 -21 5 -25 11 -9 6 14 33 25 60 25 28 0 44 -9
37 -20 -18 -28 17 -25 48 5 22 20 24 16 13 -25 -10 -38 -9 -43 7 -20 12 17 22
21 22 10 0 -11 7 -9 16 4 11 17 32 15 84 -10 72 -35 102 -84 52 -84 -19 0 -25
-14 -18 -41 8 -28 2 -39 -16 -35 -25 5 -31 -117 -7 -141 20 -21 71 24 130 115
93 144 97 111 7 -54 l-75 -138 62 -368 c35 -202 67 -386 71 -408 34 -156 26
-217 -9 -70 -22 94 -58 247 -80 340 -22 94 -41 182 -42 198 -1 23 -5 23 -23 0
-28 -36 -102 -51 -81 -16 11 17 6 21 -17 12 -22 -8 -29 -3 -21 17 9 23 -2 26
-51 16 -34 -6 -62 -4 -62 6 0 9 -61 17 -135 18 -74 0 -175 4 -225 8 -151 12
-175 5 -203 -59 -15 -33 -38 -60 -52 -60 -14 0 -25 -10 -25 -21 0 -12 9 -16
20 -9 12 8 19 -24 19 -84 -1 -73 -6 -86 -19 -56 -11 26 -15 -10 -9 -100 l8
-140 -39 170 c-36 152 -37 176 -11 229 16 34 21 69 12 80 -29 36 -39 148 -14
158 13 6 11 10 -7 11 -16 1 -31 22 -33 47 -12 172 -18 206 -34 218 -29 20 2
78 34 66 39 -16 98 49 86 94 -5 21 3 50 18 65 15 15 21 33 15 40 -17 16 55 71
95 71 17 1 42 -10 55 -23z"/>
<path d="M6581 8115 c1 -64 52 -90 196 -101 81 -6 157 -20 169 -32 34 -34 74
-26 74 16 0 78 -244 157 -312 100 -27 -22 -36 -21 -57 8 -30 40 -71 45 -70 9z"/>
<path d="M5993 7229 c-1683 -262 -3722 -1998 -4299 -3660 -355 -1023 -144
-1965 526 -2346 199 -114 250 -72 58 47 -145 89 -262 188 -248 209 5 9 -9 32
-32 53 -23 20 -54 67 -69 103 -15 36 -35 65 -45 65 -10 0 -35 41 -55 90 -20
50 -43 90 -50 90 -7 0 -34 65 -61 145 -26 80 -57 152 -68 160 -12 8 -8 15 10
15 18 0 22 7 10 15 -22 16 -25 28 -35 128 -4 38 -14 79 -22 93 -9 13 -7 24 2
24 10 0 18 11 18 25 0 14 7 73 15 132 11 85 9 103 -12 91 -20 -12 -21 -9 -4
13 12 16 24 68 25 116 2 48 7 94 13 103 6 9 -1 21 -15 27 -20 8 -20 10 0 11
14 1 25 23 25 48 0 25 9 55 19 65 11 11 21 72 23 135 3 64 12 120 21 126 10 6
13 19 7 28 -6 9 -1 23 10 30 11 7 15 21 9 31 -6 11 -2 19 8 19 11 0 23 25 27
55 3 30 15 53 27 51 11 -1 19 21 18 50 -1 29 14 81 34 115 20 34 39 85 41 114
3 29 12 47 22 42 9 -6 22 8 28 31 6 23 19 42 28 42 10 0 16 7 14 15 -7 28 27
105 47 105 10 0 14 9 7 20 -7 11 -3 20 9 20 11 0 19 7 17 15 -7 27 61 163 104
210 24 25 71 92 106 150 72 120 120 153 105 72 -5 -29 -23 -67 -40 -86 -17
-19 -31 -57 -31 -86 0 -28 -10 -55 -23 -59 -19 -7 -26 -76 -36 -342 0 -20 -9
-31 -20 -25 -11 7 -12 -10 -3 -44 9 -30 12 -73 8 -95 -13 -61 -3 -216 24 -400
7 -44 19 -134 28 -200 9 -66 18 -106 21 -90 8 60 63 -135 92 -325 93 -620 441
-884 1180 -896 109 -1 213 2 229 9 17 6 75 20 130 32 118 25 295 81 286 91 -4
3 -70 -10 -146 -30 -378 -100 -451 -94 -767 62 -910 451 -1265 1665 -772 2640
66 130 205 356 241 392 15 15 28 36 28 45 0 25 457 483 560 561 50 38 99 78
110 90 225 248 1094 559 1626 584 156 7 239 18 227 30 -30 30 -424 13 -553
-25 -33 -9 -96 -22 -140 -27 -77 -10 -110 -18 -185 -46 -44 -16 -84 -26 -136
-34 -22 -3 -52 -12 -65 -20 -13 -9 -43 -19 -67 -24 -24 -4 -49 -16 -56 -25
-15 -23 -81 -46 -78 -28 5 37 -5 43 -31 20 -20 -19 -21 -30 -5 -41 15 -9 9
-15 -14 -15 -20 0 -33 11 -28 25 13 41 240 215 280 215 21 0 33 8 27 17 -12
19 72 63 119 63 16 0 29 9 29 20 0 11 14 20 30 20 17 0 30 10 30 21 0 12 8 17
17 11 25 -16 123 34 123 63 0 25 91 57 137 48 15 -3 22 3 15 13 -11 19 103 78
133 69 8 -3 15 5 15 16 0 12 9 16 20 9 11 -7 47 7 80 30 33 24 60 37 60 30 0
-7 14 1 32 19 17 17 41 26 52 19 11 -7 29 -1 40 14 14 21 22 22 29 4 12 -30
66 -11 110 38 18 21 41 36 50 34 9 -1 24 -1 32 2 8 3 22 6 30 8 8 2 35 14 58
28 35 19 46 18 54 -1 8 -20 10 -20 11 0 1 14 27 25 57 25 43 1 48 5 25 20 -26
17 -26 19 1 20 17 0 42 -11 56 -25 20 -20 23 -19 13 6 -9 25 7 33 84 38 166
12 177 13 205 30 20 12 23 9 13 -11 -8 -15 -1 -11 15 9 22 27 45 34 82 25 28
-7 51 -4 51 6 0 11 18 25 40 32 22 7 40 30 40 51 0 47 -47 48 -307 8z m-3375
-4674 c-1 -82 -2 -83 -20 -25 -10 33 -14 71 -9 85 19 49 31 24 29 -60z"/>
<path d="M6743 7191 c21 -46 121 -100 143 -78 6 6 37 -4 70 -21 32 -17 65 -25
71 -18 7 7 13 3 13 -9 0 -12 18 -17 40 -11 23 6 40 1 40 -13 0 -13 9 -18 20
-11 11 7 20 1 20 -14 1 -18 5 -19 15 -3 8 12 32 26 53 30 117 22 22 81 -253
157 -205 57 -261 55 -232 -9z"/>
<path d="M7658 6816 c-23 -90 12 -197 83 -250 17 -12 48 -60 68 -104 20 -45
44 -76 54 -70 9 6 17 -4 17 -22 0 -18 9 -27 20 -20 11 7 14 -1 8 -19 -7 -17
-3 -31 8 -31 34 0 85 -182 97 -350 7 -88 21 -171 31 -183 22 -28 18 -264 -7
-447 -10 -71 -22 -157 -27 -190 -4 -33 -26 -114 -48 -180 -22 -66 -44 -146
-50 -177 -5 -31 -18 -67 -28 -80 -11 -13 -30 -59 -44 -102 -14 -44 -46 -120
-71 -170 -25 -50 -52 -116 -60 -146 -7 -30 -22 -55 -32 -55 -11 0 -13 -11 -4
-24 66 -107 -43 -329 -395 -806 -482 -654 -887 -1037 -1663 -1577 -107 -75
-195 -139 -195 -143 0 -20 148 38 181 71 21 21 62 44 91 51 30 8 70 30 91 51
20 20 77 56 126 79 49 23 88 49 85 57 -6 22 94 100 296 230 186 119 203 134
490 424 228 230 278 285 360 400 38 53 75 102 80 107 6 6 42 51 80 100 39 50
77 93 85 97 8 3 10 14 5 24 -6 9 6 33 26 53 21 20 50 65 66 101 15 36 34 65
41 65 7 0 29 45 49 101 48 133 108 192 108 107 1 -42 6 -50 19 -30 29 47 66
-126 66 -311 0 -89 -6 -173 -14 -185 -7 -12 -3 -22 10 -22 18 0 18 -7 0 -29
-32 -38 -49 -138 -45 -267 3 -94 -1 -105 -33 -95 -28 9 -45 -7 -73 -70 -25
-53 -58 -90 -99 -107 -33 -15 -79 -47 -101 -73 -23 -27 -28 -39 -10 -29 26 15
26 13 3 -15 -17 -21 -22 -55 -14 -92 16 -72 -119 -233 -176 -211 -20 7 -33 2
-33 -13 0 -14 -6 -20 -13 -13 -15 16 -87 -62 -87 -94 0 -12 -10 -8 -20 8 -16
23 -19 19 -15 -20 3 -27 14 -56 24 -64 27 -19 -129 -156 -178 -156 -58 0 -123
-49 -158 -120 -26 -51 -26 -60 -1 -60 32 0 38 -51 8 -70 -11 -7 -25 0 -31 16
-11 29 -102 32 -186 5 -32 -10 -54 -6 -65 12 -13 21 -17 18 -18 -10 -1 -98
-210 -210 -274 -146 -6 7 -30 1 -54 -12 -23 -13 -49 -22 -57 -19 -8 2 -15 -6
-15 -17 0 -12 -9 -16 -20 -9 -11 7 -20 2 -20 -10 0 -12 -9 -17 -20 -10 -11 7
-20 2 -20 -10 0 -12 -15 -19 -32 -16 -18 3 -43 -12 -55 -34 -13 -22 -32 -46
-42 -54 -25 -18 -55 1 -40 25 15 25 -55 24 -120 -1 -29 -11 -76 -24 -106 -29
-30 -6 -58 -19 -62 -31 -3 -11 -18 -20 -33 -20 -15 0 -33 -18 -40 -40 -7 -22
-21 -36 -30 -30 -10 6 -23 1 -30 -10 -7 -11 -21 -15 -31 -9 -11 6 -19 2 -19
-9 0 -11 9 -25 20 -32 11 -7 20 -22 20 -34 0 -13 -11 -12 -30 4 -16 14 -30 38
-30 53 0 16 -20 36 -45 46 -25 10 -34 19 -20 20 14 0 25 11 25 22 0 12 -10 15
-23 7 -13 -8 -55 -16 -93 -17 -38 -2 -79 -16 -91 -32 -56 -71 -169 -35 -133
43 21 47 140 138 179 138 11 0 30 19 42 41 12 23 32 38 45 34 13 -5 37 9 54
29 18 23 106 55 230 85 488 119 983 361 1238 606 26 25 54 45 62 45 103 0 802
895 744 953 -6 5 -33 -35 -61 -91 -325 -646 -1084 -1231 -1863 -1434 -204 -53
-217 -55 -201 -29 7 10 -81 -31 -194 -91 -113 -61 -270 -141 -349 -179 -172
-83 -169 -79 -136 -175 90 -263 318 -321 363 -92 19 93 123 77 172 -26 70
-151 197 -137 215 24 l10 90 139 37 c153 41 143 45 215 -86 70 -126 157 -63
122 88 l-19 86 153 62 c187 77 164 79 228 -18 96 -145 187 -62 125 115 -13 37
-2 53 65 97 l81 54 62 -53 c129 -108 244 -30 205 139 -26 114 13 163 94 118
161 -89 287 25 220 201 -36 93 39 166 159 155 150 -15 190 36 174 223 -13 161
-6 180 75 200 122 30 253 189 274 333 59 392 18 1052 -74 1202 -4 7 28 92 73
188 388 844 423 1661 95 2180 -87 137 -269 337 -278 305z m-2698 -5684 c0 -45
-28 -71 -52 -50 -40 33 -34 58 12 58 22 0 40 -4 40 -8z"/>
<path d="M5780 6487 c-27 -4 -124 -17 -215 -29 -199 -27 -216 -58 -30 -58 193
0 463 -52 695 -132 110 -38 239 -78 286 -88 160 -35 543 -380 542 -487 -1 -35
7 -90 18 -123 17 -57 31 -304 28 -510 -2 -125 29 -63 51 105 93 691 -291 1159
-1020 1246 -94 11 -115 20 -115 51 0 38 -91 48 -240 25z"/>
<path d="M5308 5894 c-17 -10 -53 -12 -79 -5 -27 6 -49 5 -49 -4 0 -9 -87 -28
-194 -42 -106 -15 -248 -43 -314 -64 -126 -39 -181 -40 -70 -1 36 12 60 27 55
32 -5 5 -86 -23 -178 -62 -93 -40 -196 -74 -229 -76 -96 -6 -265 -108 -288
-175 -22 -64 -52 -79 -36 -17 12 47 -2 50 -54 10 -21 -16 -47 -23 -58 -16 -11
7 -14 2 -6 -11 12 -20 -8 -31 -50 -26 -6 0 -11 -12 -11 -28 0 -37 15 -37 64 0
44 34 77 40 60 12 -24 -39 29 -41 68 -2 23 23 50 41 61 41 12 0 54 21 95 46
686 425 1979 409 2415 -30 29 -30 17 -26 -47 13 -95 59 -265 136 -275 125 -4
-3 45 -32 108 -63 304 -152 565 -407 712 -697 22 -41 46 -68 56 -58 9 9 -1 52
-22 95 -21 44 -52 111 -68 150 -106 254 -480 572 -846 719 -260 104 -735 181
-820 134z"/>
<path d="M5544 5711 c-25 -55 -73 -67 -98 -24 -28 47 -181 56 -192 11 -13 -48
-110 -52 -143 -6 -32 44 -147 21 -144 -27 2 -20 -26 -48 -67 -68 -93 -46 -100
-46 -100 13 0 40 -10 50 -50 50 -39 0 -49 -9 -45 -45 4 -36 -6 -46 -52 -52
-37 -4 -53 2 -44 15 8 13 -1 22 -20 22 -21 0 -29 -11 -22 -30 18 -47 -67 -84
-98 -43 -36 50 -67 39 -63 -22 4 -51 -1 -55 -69 -51 -63 4 -75 -3 -85 -45 -15
-56 -37 -62 -79 -19 -42 42 -51 38 -47 -22 2 -29 -9 -60 -26 -69 -87 -49 -181
-81 -201 -69 -15 10 -20 -7 -16 -53 7 -62 0 -70 -98 -123 -118 -63 -128 -85
-55 -118 28 -12 50 -30 50 -38 0 -24 125 -136 166 -150 47 -15 99 30 87 75
-13 51 38 89 77 57 24 -20 52 -6 159 78 72 56 138 102 148 102 9 0 48 21 85
46 62 42 254 114 476 177 241 69 834 8 938 -96 16 -16 41 -25 56 -19 15 6 25
0 23 -14 -3 -13 7 -22 21 -19 50 11 109 -35 84 -66 -13 -15 -18 -37 -11 -48 8
-12 -1 -21 -18 -21 -17 0 -31 -13 -31 -30 0 -16 14 -30 30 -30 17 0 30 12 30
28 0 36 118 59 153 30 16 -14 22 -42 15 -70 -11 -41 -5 -48 40 -48 60 0 68 29
17 58 -55 32 -16 26 48 -8 31 -16 44 -30 27 -30 -27 -1 -27 -3 0 -20 32 -20
46 -100 17 -100 -9 0 -17 -9 -17 -20 0 -11 41 -20 90 -20 50 0 90 -9 90 -21 0
-12 11 -15 24 -7 16 10 7 22 -25 37 -71 31 -124 90 -111 124 7 16 21 24 32 17
11 -7 17 -19 12 -27 -22 -35 24 -71 56 -44 40 32 42 69 4 54 -16 -6 -34 3 -40
19 -6 17 -23 28 -37 26 -38 -6 -96 24 -84 44 6 10 -3 18 -20 18 -17 0 -31 10
-31 21 0 12 -11 16 -25 9 -14 -7 -4 6 22 28 26 23 38 42 26 42 -11 0 -27 -10
-34 -21 -16 -26 -89 34 -89 74 0 24 -25 36 -65 29 -8 -1 -15 7 -15 17 0 11
-13 15 -29 9 -16 -7 -72 11 -125 39 -250 132 -663 185 -1026 133 -71 -10 -170
-25 -220 -32 -81 -12 -87 -10 -60 18 17 17 71 37 120 43 50 7 108 20 130 29
148 63 613 64 760 2 92 -39 253 -83 265 -72 6 7 0 12 -15 12 -19 0 -17 10 7
37 18 20 33 45 33 55 0 10 23 52 50 92 61 90 64 124 10 110 -22 -6 -40 -1 -40
10 0 11 -13 15 -30 9 -16 -7 -30 -2 -30 9 0 11 -10 14 -21 7 -15 -9 -12 -24 8
-46 25 -28 25 -37 1 -59 -15 -14 -28 -43 -28 -65 0 -21 -10 -39 -22 -39 -13 0
-19 -20 -14 -46 9 -45 6 -46 -67 -26 -89 24 -89 20 -39 161 29 83 32 106 11
98 -15 -6 -53 8 -85 30 -97 69 -153 73 -180 14z m99 -59 c11 -42 6 -75 -18
-115 -66 -112 -115 -42 -76 109 23 90 70 93 94 6z m-1028 -241 c-14 -15 -32
-23 -40 -18 -8 5 -39 -9 -70 -32 -30 -22 -76 -43 -102 -47 -26 -4 -63 -28 -82
-53 -25 -32 -40 -39 -50 -23 -21 34 3 83 34 71 15 -6 47 13 72 42 30 35 59 49
85 43 21 -6 43 -2 49 8 6 10 29 18 50 18 22 0 39 10 39 21 0 12 9 16 20 9 12
-8 10 -22 -5 -39z m34 -98 c-7 -17 -43 -43 -80 -56 -37 -13 -63 -30 -59 -36 4
-7 -17 -14 -46 -17 l-54 -4 58 50 c32 27 75 50 95 50 20 0 37 10 37 21 0 12 9
16 20 9 11 -7 20 -1 20 12 0 14 5 20 10 14 6 -6 5 -25 -1 -43z m-420 -71 c15
-24 -28 -55 -95 -67 l-56 -10 44 48 c46 49 88 60 107 29z m141 -82 c-7 -11
-25 -20 -41 -20 -16 0 -29 -7 -29 -17 0 -9 -14 -16 -31 -16 -46 0 -23 40 32
55 72 20 83 20 69 -2z m-394 -104 c-7 -53 -129 -131 -158 -102 -28 28 74 146
125 146 30 0 38 -11 33 -44z m256 21 c8 -13 5 -18 -7 -10 -11 7 -43 -5 -71
-27 -61 -48 -89 -52 -52 -8 21 26 62 50 112 67 2 0 10 -9 18 -22z m-196 -122
c8 -43 -54 -71 -76 -35 -23 38 -1 83 37 76 18 -4 36 -22 39 -41z"/>
<path d="M6080 5431 c14 -18 45 -30 68 -27 67 10 49 45 -27 53 -61 5 -66 3
-41 -26z"/>
<path d="M6324 5400 c-30 -24 -44 -55 -40 -84 3 -27 -4 -44 -17 -42 -56 11
-45 -57 13 -77 33 -12 60 -29 60 -39 0 -10 11 -18 25 -17 14 0 7 16 -17 35
-45 38 -42 84 5 84 16 0 53 23 83 50 41 39 46 50 20 50 -18 0 -39 18 -46 40
-16 49 -27 49 -86 0z"/>
<path d="M3919 5351 c-60 -38 -118 -76 -129 -85 -11 -9 -44 -27 -73 -40 -29
-13 -79 -57 -110 -98 -31 -40 -87 -106 -124 -146 -94 -101 -267 -371 -335
-524 -32 -70 -73 -141 -93 -158 -103 -87 -171 -707 -106 -960 59 -233 261
-558 435 -701 186 -154 510 -359 567 -359 27 0 -19 44 -68 64 -46 19 -48 23
-15 31 21 5 46 -4 55 -20 10 -19 35 -26 70 -19 47 9 52 5 42 -33 -6 -24 -5
-46 2 -50 32 -18 163 -33 161 -19 -7 41 4 67 22 56 12 -7 15 -21 9 -31 -6 -11
-2 -19 10 -19 11 0 19 -10 16 -23 -7 -32 90 -56 262 -66 81 -5 152 -14 158
-20 6 -5 31 12 57 39 30 32 48 41 55 24 5 -13 11 -6 12 16 2 39 3 39 32 1 25
-34 29 -34 29 -5 0 19 10 34 22 34 12 0 45 18 73 40 28 22 69 40 93 40 30 1
35 5 16 17 -22 14 -21 23 5 49 75 75 -27 48 -138 -36 -36 -28 -109 -65 -163
-83 -54 -18 -114 -46 -133 -63 -32 -28 -45 -26 -138 17 -56 27 -127 45 -158
42 -35 -4 -74 11 -107 39 -62 54 -67 78 -12 64 53 -14 52 26 -2 55 -49 26 -98
12 -98 -29 0 -51 -48 -48 -106 5 -39 37 -52 42 -43 18 8 -21 4 -35 -10 -35
-13 0 -21 16 -17 35 4 20 25 35 50 35 64 0 77 25 36 70 -39 43 -102 53 -114
18 -4 -12 -29 19 -55 70 -47 91 -47 93 -9 122 21 16 29 29 17 29 -12 1 -30 -7
-40 -17 -10 -10 -55 -23 -99 -29 -44 -6 -68 -6 -54 0 17 7 21 32 13 76 -15 80
67 153 161 143 72 -8 131 44 103 91 -24 39 -100 16 -158 -49 -19 -21 -48 -33
-63 -28 -33 13 -99 -52 -77 -75 8 -9 -10 -1 -40 18 -30 20 -55 52 -55 73 0 24
-10 33 -30 25 -19 -7 -30 1 -30 22 0 18 11 31 25 30 79 -11 135 3 135 34 0 26
14 30 70 21 54 -9 70 -5 70 19 0 24 14 27 65 16 62 -13 64 -12 33 24 -18 20
-28 49 -23 65 8 22 -1 22 -47 -3 -102 -54 -177 -82 -209 -78 -17 2 -50 -15
-75 -37 -24 -23 -45 -34 -46 -26 -1 9 -9 -6 -17 -34 -9 -31 -4 -65 12 -89 46
-69 29 -96 -22 -37 -28 31 -50 45 -50 32 -1 -37 43 -126 62 -126 9 0 17 -8 17
-18 0 -10 -20 -13 -45 -7 -40 11 -42 8 -17 -22 31 -38 122 22 122 80 0 37 14
34 64 -13 24 -22 36 -46 27 -55 -9 -8 -20 -4 -25 10 -15 42 -50 28 -36 -15 9
-28 4 -40 -19 -40 -41 0 -39 -26 6 -67 22 -20 53 -29 75 -22 28 10 31 8 11 -7
-22 -15 -4 -42 84 -127 107 -102 109 -107 57 -107 -83 0 -215 108 -171 140 45
32 1 59 -51 31 -53 -28 -53 -28 -90 29 -18 28 -26 48 -18 45 16 -5 26 11 26
41 0 8 -18 17 -40 19 -25 1 -36 -6 -27 -19 8 -13 4 -16 -10 -8 -13 8 -23 32
-23 53 0 26 -14 39 -40 39 -29 0 -40 13 -40 49 0 27 -9 54 -20 61 -11 7 -20
34 -20 61 0 27 -9 49 -19 49 -11 0 -28 34 -40 75 -26 95 -26 98 4 101 98 13
120 20 135 44 10 16 13 35 8 44 -18 29 28 17 61 -15 17 -18 31 -23 31 -12 0
11 17 19 37 18 21 -2 36 -16 35 -32 -1 -16 9 -33 23 -38 45 -15 27 90 -24 149
-49 55 -50 56 -50 10 -1 -72 -89 -53 -97 21 -6 48 0 55 50 55 67 1 120 29 89
48 -12 7 -16 26 -10 43 8 21 -3 29 -41 29 -43 0 -52 -9 -52 -55 l0 -55 -41 67
c-51 84 -38 132 30 115 88 -22 176 111 91 138 -26 8 -40 30 -40 63 0 28 -9 44
-20 37 -11 -7 -20 -30 -20 -51 0 -55 -59 -49 -62 6 -2 35 -5 37 -12 9 -5 -20
2 -50 16 -66 17 -21 19 -35 4 -45 -27 -17 -54 -176 -32 -189 9 -6 15 -63 13
-127 -5 -168 -5 -167 -29 -167 -12 0 -17 14 -11 30 13 33 -21 39 -65 12 -15
-10 -21 -28 -13 -40 7 -12 4 -22 -7 -22 -46 0 -85 115 -50 149 28 28 28 31 -1
31 -46 0 -38 31 9 35 22 1 40 -10 40 -25 0 -15 17 -26 38 -25 38 3 74 99 52
135 -9 14 -288 8 -303 -7 -34 -33 134 -476 239 -631 33 -49 51 -82 39 -75
-181 112 -355 719 -310 1083 l20 160 4 -120 c5 -114 6 -117 26 -55 24 75 44
81 79 26 18 -29 31 -33 50 -18 14 12 26 14 26 4 0 -44 111 -25 147 25 63 87
-10 128 -230 128 -66 0 -68 18 -19 129 l34 79 45 -45 c24 -24 40 -52 34 -62
-6 -10 13 -11 44 -3 39 11 61 7 77 -14 25 -34 108 30 108 83 0 27 -191 93
-266 93 -44 0 -44 3 20 126 l53 104 22 -70 c18 -61 30 -70 89 -73 37 -2 74
-15 83 -28 12 -20 23 -18 49 8 18 18 42 33 54 33 11 0 15 13 9 28 -6 16 7 49
28 73 22 25 39 51 39 59 0 52 78 100 130 80 30 -11 65 -14 78 -5 13 8 7 -1
-15 -20 -26 -25 -46 -29 -62 -16 -23 19 -112 -72 -110 -113 0 -9 13 1 29 23
16 21 36 32 44 24 21 -21 -20 -80 -71 -103 -50 -23 -94 -135 -69 -179 25 -45
146 55 146 122 0 31 23 69 60 100 33 28 60 66 60 84 1 18 18 56 40 83 46 59
52 95 10 60 -44 -36 -85 -11 -85 53 0 32 -2 65 -3 74 -1 10 -39 -21 -85 -68
-68 -70 -89 -81 -115 -62 -18 12 -66 41 -107 63 -41 23 -75 53 -75 67 0 30
146 153 181 153 15 0 19 18 11 47 -9 40 3 58 70 104 44 31 96 75 115 98 18 22
85 75 148 116 98 64 133 95 109 95 -3 0 -55 -31 -115 -69z m-516 -631 c19
-158 6 -200 -60 -200 -110 1 -133 83 -31 109 27 7 44 21 37 33 -7 11 -8 33 -1
49 12 33 51 39 55 9z m137 -168 c0 -60 -46 -99 -99 -82 -52 16 -52 38 3 89 58
54 96 52 96 -7z m288 -1978 c36 -32 49 -58 40 -81 -12 -32 -15 -31 -42 6 -15
23 -41 41 -57 41 -16 0 -29 9 -29 20 0 11 10 20 21 20 12 0 16 9 9 20 -20 32
0 23 58 -26z"/>
<path d="M3755 5338 c-61 -46 -77 -92 -20 -59 19 11 58 38 85 60 68 54 8 53
-65 -1z"/>
<path d="M3548 5272 c-55 -49 -134 -132 -176 -185 -56 -73 -44 -63 51 38 70
75 135 136 145 135 11 0 -2 -22 -28 -50 -26 -27 -40 -50 -32 -50 8 0 -49 -64
-126 -141 -78 -78 -142 -155 -142 -171 0 -18 -10 -24 -23 -16 -16 10 -20 4
-11 -19 8 -21 3 -33 -15 -33 -29 0 -203 -294 -186 -312 6 -5 39 42 75 104 81
145 223 317 417 507 84 83 131 134 104 115 -92 -63 -92 -34 -1 45 62 54 84 85
69 99 -14 15 -51 -5 -121 -66z"/>
<path d="M6054 5321 c42 -44 146 -89 146 -62 0 10 -17 24 -38 30 -21 7 -43 26
-50 42 -6 16 -29 29 -52 29 -40 0 -40 -1 -6 -39z"/>
<path d="M6530 5254 c-57 -61 -121 -170 -107 -182 28 -24 117 -30 112 -7 -3
14 10 24 29 22 19 -1 33 3 31 10 -2 7 8 34 22 60 14 25 19 61 11 80 -8 18 -13
40 -11 48 6 30 -48 11 -87 -31z"/>
<path d="M5236 5189 c-33 -73 2 -102 82 -67 76 34 80 58 10 58 -45 0 -49 5
-28 30 20 25 19 30 -8 30 -18 0 -43 -23 -56 -51z"/>
<path d="M5437 5191 c-44 -58 -5 -90 106 -88 48 1 118 -6 155 -14 58 -12 66
-10 56 18 -7 17 -4 37 7 44 11 7 7 23 -9 40 -32 32 -61 39 -43 11 6 -10 -5
-25 -24 -33 -64 -29 -110 -24 -119 12 -14 53 -92 59 -129 10z"/>
<path d="M5026 5146 c-19 -48 24 -73 72 -43 23 15 39 36 35 47 -10 31 -95 28
-107 -4z"/>
<path d="M5885 5111 c-50 -57 -46 -119 7 -126 36 -4 36 -4 -1 12 -36 15 -36
17 9 29 27 7 42 19 34 26 -7 8 1 24 18 37 27 20 28 26 3 47 -23 19 -37 14 -70
-25z"/>
<path d="M4745 5094 c-25 -11 -45 -28 -45 -37 0 -23 22 -20 78 11 58 32 30 55
-33 26z"/>
<path d="M6674 5037 c-59 -55 -87 -96 -78 -112 20 -30 115 -42 110 -13 -4 21
10 26 103 34 31 2 42 11 30 23 -10 10 -19 33 -19 51 0 101 -49 107 -146 17z"/>
<path d="M4481 4989 c-39 -27 -82 -49 -97 -49 -34 0 -143 -82 -273 -205 -55
-52 -107 -95 -115 -95 -8 0 -28 -25 -44 -55 -16 -30 -48 -75 -71 -99 -23 -25
-51 -69 -62 -97 -11 -29 -38 -58 -60 -63 -36 -10 -40 -67 -7 -104 14 -15 68
43 68 73 0 16 27 62 59 102 126 155 173 208 229 260 32 29 68 63 82 76 13 13
74 56 135 95 62 39 118 80 124 90 6 11 38 25 71 32 70 15 125 91 66 89 -20 -1
-67 -23 -105 -50z"/>
<path d="M5429 4949 c-13 -83 -3 -130 21 -106 22 23 35 197 14 197 -12 0 -28
-41 -35 -91z"/>
<path d="M7818 5010 c-2 -5 -5 -19 -8 -30 -3 -11 -7 -27 -10 -35 -2 -8 -3 -31
-1 -50 2 -19 -6 -35 -18 -35 -11 0 -21 -13 -21 -30 0 -16 -10 -30 -21 -30 -12
0 -16 -9 -9 -20 7 -11 -2 -40 -19 -64 -17 -25 -31 -59 -31 -76 0 -17 -17 -62
-37 -100 -20 -39 -43 -95 -50 -124 -7 -30 -32 -72 -55 -94 -23 -21 -36 -49
-29 -60 7 -12 2 -22 -13 -23 -14 0 -62 -74 -105 -163 -43 -89 -97 -179 -120
-200 -23 -21 -41 -46 -41 -56 0 -39 -173 -260 -194 -247 -13 7 -17 4 -9 -8 12
-19 -35 -85 -132 -188 -19 -20 -29 -37 -22 -37 7 0 -6 -17 -30 -37 -23 -20
-36 -43 -29 -50 7 -7 -2 -13 -19 -13 -18 0 -53 -29 -78 -65 -25 -36 -91 -112
-147 -169 -55 -57 -152 -158 -215 -224 -63 -65 -116 -113 -116 -105 -1 7 -10
-7 -20 -32 -11 -29 -28 -40 -48 -33 -18 7 -31 2 -31 -13 0 -32 -87 -112 -139
-129 -23 -7 -41 -26 -41 -41 0 -16 -9 -29 -19 -29 -11 0 -40 -20 -66 -45 -26
-25 -68 -58 -93 -75 -25 -16 -65 -47 -89 -67 -43 -38 -181 -132 -351 -242 -51
-33 -104 -71 -118 -85 -15 -14 -43 -26 -64 -26 -20 0 -40 -7 -43 -16 -15 -35
-138 -106 -162 -92 -14 8 -18 7 -10 -3 16 -16 -272 -174 -320 -175 -14 0 -25
-10 -25 -21 0 -11 -6 -14 -13 -6 -8 7 -29 -1 -48 -18 -19 -17 -56 -32 -82 -34
-26 -1 -71 -18 -99 -38 -29 -20 -78 -45 -108 -57 -31 -12 -51 -25 -46 -31 9
-8 36 0 186 61 22 9 45 18 50 20 465 148 1373 737 1850 1200 403 390 484 475
589 614 64 85 121 150 125 145 5 -5 22 16 38 46 30 58 49 86 98 142 46 52 186
265 220 334 16 34 50 87 75 118 25 31 45 69 45 84 0 15 10 27 21 27 12 0 16 8
10 18 -6 9 6 39 26 65 20 26 62 110 94 187 32 77 66 146 76 153 10 7 13 29 5
49 -8 20 -7 30 1 22 15 -15 65 98 118 266 16 50 29 92 29 95 0 10 -40 5 -42
-5z"/>
<path d="M5600 4920 c-21 -79 -15 -120 19 -120 9 0 23 32 30 71 7 40 18 85 24
100 7 18 -1 29 -20 29 -20 0 -40 -30 -53 -80z"/>
<path d="M5851 4901 c-7 -11 -30 -21 -50 -21 -20 0 -43 -16 -51 -35 -26 -66
-31 -125 -10 -125 11 0 20 10 20 21 0 12 9 16 19 9 11 -6 26 13 33 44 7 31 27
67 44 81 17 13 26 30 20 36 -7 6 -18 2 -25 -10z"/>
<path d="M6845 4861 c-32 -52 58 -169 117 -150 21 6 38 2 38 -10 0 -31 -76
-101 -110 -101 -42 0 -38 -75 5 -84 30 -7 28 -12 -12 -34 -26 -14 -42 -17 -35
-6 37 61 -42 109 -88 54 -13 -16 -32 -25 -40 -20 -9 5 -30 -13 -48 -40 -18
-28 -51 -50 -72 -50 -27 0 -40 -13 -40 -40 0 -51 23 -51 56 1 14 22 32 36 41
31 9 -6 39 2 68 17 46 24 56 23 85 -9 45 -50 31 -110 -25 -108 -47 1 -82 -63
-52 -93 59 -59 155 56 134 161 -11 56 20 89 37 39 4 -12 36 46 71 129 l65 150
-51 101 c-55 108 -102 129 -144 62z"/>
<path d="M6179 4818 c-29 -54 -17 -64 48 -39 62 23 71 42 13 27 -43 -11 -56
24 -15 41 19 7 19 10 1 11 -14 1 -35 -17 -47 -40z"/>
<path d="M6750 4800 c-25 -40 12 -100 61 -100 57 0 61 15 18 76 -34 48 -59 56
-79 24z"/>
<path d="M5858 4683 c-15 -29 -30 -60 -34 -68 -4 -8 7 -15 24 -15 18 0 32 9
32 20 0 10 23 25 51 32 58 15 56 47 -5 70 -32 12 -47 4 -68 -39z"/>
<path d="M6615 4694 c-30 -25 -55 -56 -55 -68 0 -13 -18 -29 -40 -36 -22 -7
-40 -22 -40 -32 0 -11 20 -7 44 10 24 17 63 26 87 20 29 -7 48 0 56 21 6 17
26 31 42 31 35 0 33 36 -3 75 -29 31 -25 32 -91 -21z"/>
<path d="M5530 4702 c40 -17 40 -17 0 -26 -22 -5 -4 -10 40 -10 44 -1 107 -7
140 -15 l60 -13 -50 28 c-27 16 -90 34 -140 40 -55 8 -74 6 -50 -4z"/>
<path d="M5008 4671 c-7 -16 -5 -40 3 -53 9 -14 4 -20 -13 -13 -36 12 -186
-63 -303 -152 -50 -39 -97 -65 -103 -58 -31 31 -4 70 73 106 47 21 71 38 53
39 -45 0 -170 -87 -284 -197 -52 -51 -102 -90 -109 -86 -8 3 -18 -6 -22 -20
-5 -15 -1 -20 7 -12 9 8 29 4 45 -9 21 -18 32 -18 42 0 10 15 27 2 51 -38 l36
-61 72 84 c94 111 249 208 401 253 116 34 160 82 66 71 -49 -5 -56 19 -15 53
22 19 40 13 83 -27 42 -39 76 -51 148 -51 51 0 141 -13 200 -28 60 -15 120
-23 135 -18 14 6 26 0 26 -13 0 -13 9 -18 20 -11 39 24 257 -232 305 -358 49
-128 72 -141 198 -104 l53 15 -40 84 c-22 46 -60 122 -83 170 -24 48 -83 125
-131 170 -49 46 -103 97 -121 114 -19 17 -45 28 -58 23 -14 -4 -52 3 -86 17
-50 21 -64 21 -78 -3 -15 -23 -23 -22 -53 7 -33 33 -33 35 1 35 19 0 30 9 23
20 -18 30 -92 24 -129 -9 -20 -18 -51 -25 -80 -17 -45 12 -45 14 -10 39 33 25
31 27 -27 27 -44 0 -64 -10 -64 -30 0 -32 -72 -40 -155 -17 -49 13 -61 57 -20
74 15 6 10 10 -11 11 -19 1 -40 -11 -46 -27z"/>
<path d="M6220 4601 c0 -24 -13 -41 -32 -41 -28 0 -29 -5 -6 -32 17 -20 29
-24 34 -10 4 12 25 22 47 22 30 0 38 11 33 45 -8 59 -76 74 -76 16z"/>
<path d="M4491 4589 c-32 -24 -33 -29 -6 -29 46 0 95 22 95 42 0 27 -45 20
-89 -13z"/>
<path d="M5974 4587 c-27 -27 -14 -62 27 -73 33 -9 40 -3 35 31 -6 44 -39 66
-62 42z"/>
<path d="M6085 4507 c-42 -17 -28 -67 25 -87 30 -11 50 -35 50 -58 0 -22 18
-45 40 -52 25 -8 40 -30 40 -60 0 -30 15 -52 40 -60 22 -7 45 -37 52 -66 31
-142 39 -154 105 -149 84 7 81 -38 -5 -86 -49 -27 -82 -109 -43 -109 14 0 32
14 39 31 6 17 21 26 32 19 11 -7 20 2 20 19 0 18 14 37 30 44 72 27 36 133
-40 118 -45 -8 -70 -5 -70 9 0 12 15 19 34 16 21 -4 45 16 62 51 38 76 9 106
-74 77 -79 -28 -90 26 -12 56 28 10 50 33 50 50 0 16 9 30 20 30 11 0 20 14
20 30 0 17 -14 30 -31 30 -17 0 -26 -8 -20 -18 6 -10 -7 -14 -29 -8 -28 7 -40
1 -40 -22 0 -69 -92 -27 -103 48 -6 40 -17 49 -61 46 -46 -3 -53 4 -50 50 4
52 -28 73 -81 51z"/>
<path d="M6340 4490 c-27 -33 -17 -55 29 -62 31 -4 58 45 40 74 -17 26 -41 22
-69 -12z"/>
<path d="M4275 4418 c-47 -27 -44 -58 5 -58 27 0 40 13 40 40 0 46 1 45 -45
18z"/>
<path d="M3980 4375 c0 -36 75 -80 91 -54 16 26 -27 79 -63 79 -16 0 -28 -11
-28 -25z"/>
<path d="M4965 4378 c-36 -11 -65 -28 -65 -40 0 -11 8 -15 18 -9 10 6 71 24
135 39 96 24 105 29 47 29 -38 -1 -99 -9 -135 -19z"/>
<path d="M5537 4300 c397 -288 273 -828 -230 -1001 -371 -128 -800 96 -807
421 -1 43 -4 45 -21 16 -26 -44 14 -216 57 -251 18 -14 24 -25 15 -25 -8 0 20
-36 64 -80 44 -44 94 -80 111 -80 16 0 34 -12 40 -27 36 -94 455 -95 630 -3
100 54 344 288 344 332 0 11 10 14 23 6 16 -10 20 -1 12 29 -6 24 -3 38 7 32
10 -6 19 5 21 25 6 66 8 76 24 101 73 116 -91 434 -271 527 -107 55 -114 47
-19 -22z"/>
<path d="M4140 4270 c-27 -32 -4 -48 64 -45 26 1 30 10 14 38 -24 45 -45 47
-78 7z"/>
<path d="M3480 4262 c0 -10 11 -22 24 -27 13 -4 16 -18 7 -33 -13 -21 -20 -21
-35 1 -13 18 -14 11 -5 -23 19 -67 28 -74 52 -39 17 24 19 23 10 -6 -22 -66 6
-102 49 -63 49 44 48 51 -12 116 -27 30 -50 63 -50 73 0 10 -9 19 -20 19 -11
0 -20 -8 -20 -18z"/>
<path d="M5493 4212 c20 -28 47 -51 59 -51 92 -3 173 -320 111 -435 -34 -63
-31 -97 6 -67 122 101 20 483 -152 573 l-61 31 37 -51z"/>
<path d="M3880 4210 c0 -16 23 -35 51 -42 60 -15 86 3 53 36 -19 19 -24 18
-24 0 0 -13 -9 -24 -19 -24 -11 0 -15 14 -8 30 7 19 -1 30 -21 30 -18 0 -32
-13 -32 -30z"/>
<path d="M6585 4201 c-68 -56 -2 -89 70 -35 14 10 25 31 25 46 0 39 -42 34
-95 -11z"/>
<path d="M4060 4140 c-19 -36 -15 -40 42 -40 63 0 63 1 28 40 -20 22 -39 40
-42 40 -4 0 -16 -18 -28 -40z"/>
<path d="M4253 4085 c-186 -366 -146 -697 114 -941 l113 -106 100 56 c114 64
118 71 51 102 -129 59 -321 320 -281 383 6 10 3 23 -6 29 -26 16 13 261 57
365 44 102 25 159 -47 140 -30 -8 -36 -2 -28 28 19 73 -25 39 -73 -56z m50
-370 c-27 -27 -34 -21 -52 55 l-14 60 44 -47 c32 -34 38 -52 22 -68z"/>
<path d="M4988 4111 c-104 -47 -154 -122 -102 -155 16 -11 13 -15 -11 -16 -19
0 -35 14 -35 31 0 18 -10 25 -22 18 -12 -8 -18 -44 -14 -81 4 -37 -2 -72 -13
-78 -13 -6 -12 -14 5 -22 21 -10 21 -18 0 -43 -22 -26 -21 -30 4 -22 17 6 33
30 37 55 4 28 16 41 33 35 15 -6 32 3 39 20 8 22 2 28 -17 20 -16 -6 -33 2
-39 17 -7 18 -1 24 16 17 38 -14 135 53 123 85 -6 15 5 37 24 48 27 17 19 19
-36 11 -58 -9 -62 -8 -25 8 50 22 165 6 165 -21 0 -10 13 -18 28 -18 16 0 32
-11 37 -24 6 -19 11 -19 23 0 9 15 -8 37 -47 59 -68 39 -79 77 -26 91 29 8 28
10 -5 11 -22 0 -86 -20 -142 -46z"/>
<path d="M5320 4135 c1 -28 39 -95 40 -69 0 9 14 3 31 -15 40 -39 69 -40 69
-2 0 20 -12 25 -33 17 -21 -8 -29 -5 -20 9 7 12 8 36 1 53 -14 38 -88 43 -88
7z"/>
<path d="M3674 4122 c-30 -11 -31 -18 -8 -49 24 -34 28 -34 53 -4 33 40 6 72
-45 53z"/>
<path d="M3407 4072 c4 -12 23 -19 41 -16 29 5 31 0 13 -35 -14 -26 -15 -41
-2 -41 17 0 61 62 61 86 0 5 -27 13 -61 18 -38 6 -57 1 -52 -12z"/>
<path d="M3754 4072 c-8 -20 -3 -26 15 -20 15 6 33 1 40 -11 20 -32 51 -25 51
11 0 19 -11 28 -28 22 -15 -6 -36 -2 -47 9 -13 13 -24 9 -31 -11z"/>
<path d="M3920 4014 c0 -17 24 -33 55 -39 30 -5 67 -13 83 -17 15 -4 31 2 35
14 5 13 -17 28 -47 34 -31 6 -72 17 -91 25 -24 9 -35 4 -35 -17z"/>
<path d="M6605 4027 c-14 -6 -24 -34 -23 -64 0 -29 6 -42 11 -28 6 14 27 25
47 25 30 0 60 36 60 72 0 11 -63 7 -95 -5z"/>
<path d="M3380 3944 c0 -9 11 -28 25 -43 20 -22 19 -25 -8 -15 -25 8 -30 2
-22 -30 11 -39 13 -40 37 -7 29 40 68 25 68 -25 0 -21 15 -9 41 32 42 70 37
104 -15 104 -20 0 -27 -13 -21 -37 8 -29 1 -36 -28 -28 -20 5 -37 22 -37 37 0
16 -9 28 -20 28 -11 0 -20 -7 -20 -16z"/>
<path d="M6052 3900 c-73 -46 -91 -76 -92 -145 -1 -250 -418 -639 -707 -660
-79 -5 -99 -49 -43 -95 17 -14 30 -40 29 -57 0 -23 -17 -13 -56 32 -67 78
-113 81 -203 15 -37 -27 -91 -50 -119 -50 -47 0 -45 4 28 48 l78 47 -103 15
c-57 7 -109 22 -115 32 -6 10 -52 -5 -101 -34 -80 -47 -161 -53 -87 -7 16 10
19 19 6 19 -85 1 -62 -59 38 -96 635 -238 1427 147 1538 749 37 199 11 252
-91 187z"/>
<path d="M3711 3882 c-13 -22 42 -49 109 -53 45 -3 98 -12 179 -32 16 -4 32 8
36 27 8 36 -150 74 -194 47 -11 -7 -21 -4 -21 8 0 25 -93 28 -109 3z"/>
<path d="M6500 3801 c0 -45 -70 -93 -90 -61 -19 30 -50 24 -50 -10 0 -16 14
-30 30 -30 17 0 30 -9 30 -20 0 -18 -12 -22 -85 -28 -37 -3 -100 -88 -84 -113
7 -12 -4 -35 -26 -50 -22 -15 -45 -54 -51 -86 -7 -34 -28 -62 -50 -68 -21 -5
-43 -28 -49 -51 -18 -71 33 -30 186 150 230 271 293 354 284 381 -13 39 -45
29 -45 -14z"/>
<path d="M4622 3764 c-2 -79 84 -204 140 -204 20 0 34 -11 31 -25 -4 -14 -3
-18 2 -10 5 8 32 10 62 3 46 -11 42 -5 -27 44 -88 62 -148 129 -183 207 l-24
51 -1 -66z"/>
<path d="M2988 3685 c6 -50 12 -108 12 -129 0 -21 9 -33 20 -26 11 7 20 30 20
51 0 22 10 39 22 39 12 0 17 -13 11 -30 -7 -18 0 -30 16 -30 17 0 24 14 18 37
-9 33 -1 36 78 24 83 -13 90 -10 113 42 34 76 16 96 -79 89 -44 -4 -117 0
-162 9 l-82 15 13 -91z"/>
<path d="M3729 3719 c-15 -25 26 -79 62 -79 14 0 30 11 35 25 7 20 14 20 36 0
42 -40 112 -30 124 17 11 40 6 42 -78 33 -49 -6 -94 -2 -99 7 -15 25 -64 23
-80 -3z"/>
<path d="M5565 3582 c17 -62 -252 -222 -383 -228 -57 -2 -99 -13 -95 -24 10
-32 156 -10 263 40 134 63 319 230 255 230 -25 0 -43 -8 -40 -18z"/>
<path d="M3832 3562 c-104 -13 -133 -40 -85 -80 38 -31 193 -7 193 31 0 15 9
27 20 27 11 0 20 9 20 20 0 11 -11 19 -25 17 -14 -2 -69 -9 -123 -15z"/>
<path d="M3859 3400 c-126 -22 -156 -64 -70 -103 48 -22 173 8 170 40 -7 57
-33 74 -100 63z"/>
<path d="M3620 3336 l-50 -20 46 -21 c33 -16 52 -15 69 2 36 36 -7 62 -65 39z"/>
<path d="M3390 3201 c-6 -11 -2 -38 9 -59 32 -59 26 -74 -38 -105 -45 -22 -54
-35 -38 -58 15 -22 22 -23 30 -4 6 14 28 25 49 25 24 0 38 14 38 39 0 21 9 44
19 50 22 14 5 69 -32 106 -15 16 -29 18 -37 6z"/>
<path d="M4072 3108 c-7 -18 -25 -27 -41 -21 -56 21 -75 -39 -19 -64 61 -28
144 23 132 82 -9 44 -56 46 -72 3z"/>
<path d="M4114 2952 c-27 -25 -77 -57 -112 -71 -85 -35 -74 -86 24 -110 48
-12 72 -28 66 -44 -15 -38 90 -105 137 -88 27 10 31 19 14 29 -13 8 -19 22
-14 30 5 9 -3 33 -19 54 -16 21 -29 28 -29 15 -1 -13 -17 -21 -36 -18 -19 4
-33 17 -29 30 3 16 -9 19 -35 11 -50 -16 -52 0 -6 57 42 53 170 34 162 -24 -7
-49 7 -63 51 -52 34 9 61 0 90 -29 23 -23 62 -42 87 -42 25 0 72 -15 105 -32
33 -18 91 -32 129 -31 37 1 78 -6 90 -17 38 -31 191 -17 160 14 -15 14 -35 26
-45 26 -26 0 -47 58 -31 85 8 13 4 15 -11 6 -14 -8 -20 -28 -14 -43 14 -36
-82 -62 -114 -30 -18 18 -18 27 -1 38 16 10 15 21 -4 39 -21 19 -32 19 -54 -3
-51 -51 -111 -57 -134 -15 -15 29 -14 42 4 49 16 6 12 15 -13 25 -26 11 -45 5
-62 -18 -31 -42 -43 -42 -102 5 -30 23 -39 42 -25 46 13 5 17 19 9 32 -10 18
-25 18 -54 3 -40 -22 -49 -13 -62 69 -9 54 -66 56 -122 4z"/>
<path d="M4340 2650 c-13 -16 -33 -25 -42 -19 -10 6 -18 -2 -18 -19 0 -89 123
-86 130 4 6 69 -27 86 -70 34z"/>
<path d="M5035 2645 c-51 -12 -43 -45 11 -45 26 0 62 -11 81 -25 29 -22 24
-25 -42 -25 -41 0 -75 -9 -75 -20 0 -11 14 -17 30 -14 17 4 75 11 130 17 55 5
114 23 130 40 33 35 -20 32 -110 -4 -34 -14 -36 -12 -15 15 22 26 18 29 -28
20 -34 -6 -48 -2 -40 11 15 25 -23 41 -72 30z"/>
<path d="M4574 2606 c-22 -6 -32 -21 -26 -38 6 -16 -2 -28 -19 -28 -16 0 -29
-12 -29 -28 0 -15 -13 -38 -30 -52 -38 -31 -39 -60 -2 -60 16 0 33 -11 38 -25
14 -39 84 11 84 60 0 23 6 48 14 55 7 8 8 28 1 45 -7 20 -4 27 10 18 13 -8 17
2 11 27 -6 22 -12 39 -13 38 -2 -2 -19 -7 -39 -12z"/>
<path d="M4815 2564 c-30 -4 -55 -17 -55 -31 0 -13 -18 -58 -41 -99 -41 -77
-38 -114 9 -114 38 0 98 74 82 100 -7 12 -1 37 13 55 23 28 23 30 -3 17 -16
-8 -8 3 20 25 57 46 52 57 -25 47z"/>
<path d="M4240 2494 c28 -12 56 -31 63 -41 16 -23 57 2 57 35 0 16 -30 26 -85
27 -79 2 -82 1 -35 -21z"/>
<path d="M4411 2344 c-27 -26 -7 -44 50 -44 34 0 56 8 50 18 -13 22 -85 41
-100 26z"/>
<path d="M4032 1339 c-53 -20 -102 -43 -109 -51 -7 -8 5 -7 27 1 22 9 58 19
80 22 96 16 158 42 129 53 -17 6 -74 -5 -127 -25z"/>
<path d="M1107 1271 c-65 -46 -347 -429 -347 -472 0 -45 -5 -43 380 -110 160
-27 349 -60 420 -73 177 -31 232 -13 351 116 l101 109 170 -39 c93 -22 196
-39 229 -39 32 1 229 -32 436 -73 258 -51 382 -68 391 -53 22 35 320 -51 391
-114 34 -29 102 -70 151 -91 138 -57 194 -83 401 -181 106 -50 201 -91 212
-91 12 0 50 -15 86 -32 172 -86 413 48 454 253 7 32 19 59 28 59 100 0 167
168 104 262 -91 134 -192 239 -207 215 -18 -29 30 -153 72 -185 32 -24 103
-182 74 -164 -35 21 -86 -40 -88 -105 -1 -37 -9 -55 -17 -42 -17 28 -59 8 -59
-28 0 -37 -119 -173 -151 -173 -22 0 -19 10 10 39 21 21 53 66 70 100 49 94
-30 82 -127 -19 -96 -101 -149 -106 -60 -5 l66 75 -56 7 c-36 4 -72 -9 -100
-35 -25 -23 -55 -42 -68 -42 -36 0 -29 -27 25 -107 28 -40 43 -73 34 -73 -30
0 -122 112 -144 176 -13 35 -31 64 -41 64 -10 0 -18 10 -18 21 0 30 86 1 107
-35 19 -33 73 0 73 45 0 40 -42 58 -62 27 -13 -21 -17 -16 -18 17 0 25 -10 45
-22 45 -12 0 -17 13 -11 28 8 23 -2 25 -50 11 -33 -9 -87 -12 -119 -6 -66 14
-75 -23 -38 -152 26 -92 11 -100 -39 -18 -46 75 -54 168 -16 184 14 5 -4 11
-39 11 -43 1 -62 -6 -57 -23 4 -14 13 -56 19 -95 l11 -70 -39 47 c-22 26 -40
72 -40 103 0 48 -30 80 -74 80 -6 0 -6 -36 0 -81 13 -98 -35 -76 -62 28 -21
81 -95 104 -80 26 12 -62 -19 -49 -45 19 -18 49 -59 66 -59 25 0 -14 -13 -11
-35 8 -19 17 -96 43 -171 58 -75 15 -135 36 -133 47 2 11 11 18 21 15 58 -16
443 -67 450 -59 5 5 -27 14 -71 22 -85 13 -93 23 -61 72 17 26 19 25 20 -5 0
-19 7 -36 15 -37 30 -3 99 -17 331 -69 177 -39 267 -49 356 -41 l119 12 -30
-45 c-42 -65 -11 -107 42 -57 28 26 58 34 98 27 l57 -11 -49 61 c-71 89 -120
105 -318 105 -278 0 -701 99 -701 164 0 10 8 13 18 7 10 -6 23 4 30 21 10 26
32 30 117 21 112 -13 298 25 310 63 5 15 23 16 56 3 33 -12 49 -11 49 4 0 12
17 17 37 12 26 -7 37 0 35 22 -1 17 15 35 35 39 27 6 33 0 22 -19 -8 -15 -8
-20 1 -12 9 8 30 3 46 -10 27 -22 27 -19 7 20 -20 36 -19 42 4 33 15 -5 40 2
56 17 15 16 51 34 80 41 28 8 73 31 99 53 l48 40 -60 -18 c-33 -9 -136 -45
-230 -80 -454 -170 -1004 -241 -967 -125 8 27 3 25 -22 -6 -27 -33 -28 -41 -5
-46 15 -3 80 -56 143 -118 89 -86 105 -109 68 -100 -26 7 -95 23 -152 35 -91
19 -105 29 -105 70 0 39 -15 52 -85 70 -47 13 -121 49 -164 81 -96 71 -180 83
-121 18 51 -56 31 -54 -389 30 -328 67 -1285 230 -1345 230 -15 0 -46 -13 -69
-29z m287 -171 c19 0 26 -11 19 -30 -7 -16 -3 -30 8 -30 10 0 19 9 19 20 0 11
14 20 31 20 17 0 27 -8 21 -17 -6 -9 18 -18 53 -19 49 -1 57 3 34 19 -23 17
-22 18 8 9 20 -7 52 -12 71 -12 19 0 52 -16 74 -37 40 -37 108 -50 108 -20 0
10 14 17 31 17 17 0 26 -9 19 -20 -22 -36 16 -21 66 25 85 78 23 -19 -107
-166 -152 -173 -208 -227 -142 -137 62 84 73 153 12 81 -27 -33 -39 -38 -39
-17 0 16 -15 35 -32 42 -24 9 -29 4 -20 -21 11 -27 8 -29 -18 -7 -25 20 -30
19 -30 -8 0 -17 -10 -32 -21 -32 -12 0 -17 7 -11 17 6 9 -9 15 -33 13 -51 -4
-96 31 -79 60 6 11 -3 8 -21 -7 -39 -31 -83 -12 -67 29 15 38 -7 35 -55 -7
-28 -25 -35 -26 -23 -5 14 24 12 26 -12 6 -16 -13 -47 -20 -69 -16 -21 4 -55
8 -75 8 -30 2 -32 9 -13 44 20 37 18 39 -18 20 -22 -12 -45 -22 -50 -22 -20 0
2 68 24 76 13 4 17 17 10 29 -9 14 -1 17 20 9 18 -7 33 -3 33 9 0 39 67 76 95
53 17 -15 25 -14 25 0 0 24 57 43 97 32 14 -5 40 -8 57 -8z m1346 -220 c198
-37 351 -76 304 -78 -55 -2 -526 93 -543 110 -11 12 43 5 239 -32z m1520 -451
c0 -29 10 -70 21 -91 34 -63 10 -93 -27 -37 -52 79 -67 179 -26 179 21 0 32
-17 32 -51z m581 -167 c-12 -23 -41 -51 -63 -63 -47 -25 -41 -10 32 85 44 58
65 42 31 -22z"/>
<path d="M1282 1048 c17 -20 29 -24 34 -10 4 12 16 22 27 22 11 0 14 -9 7 -20
-7 -11 -3 -20 9 -20 11 0 21 14 21 30 0 20 -20 30 -62 30 -56 0 -60 -4 -36
-32z"/>
</g>
</svg>
