<?xml version="1.0" standalone="no"?>
<!DOCTYPE svg PUBLIC "-//W3C//DTD SVG 20010904//EN"
 "http://www.w3.org/TR/2001/REC-SVG-20010904/DTD/svg10.dtd">
<svg version="1.0" xmlns="http://www.w3.org/2000/svg"
 width="300.000000pt" height="353.000000pt" viewBox="0 0 300.000000 353.000000"
 preserveAspectRatio="xMidYMid meet">
<metadata>
Created by potrace 1.10, written by Peter Selinger 2001-2011
</metadata>
<g transform="translate(0.000000,353.000000) scale(0.100000,-0.100000)"
fill="#000000" stroke="none">
<path d="M1290 3349 c-610 -23 -1074 -144 -1152 -299 -25 -49 -24 -143 2 -185
11 -18 44 -49 73 -69 49 -34 55 -42 76 -109 62 -196 163 -419 251 -553 77
-119 226 -274 318 -334 23 -15 24 -21 32 -215 5 -110 14 -348 20 -530 6 -181
13 -354 16 -382 l5 -53 120 -105 c65 -58 124 -105 129 -105 20 0 10 -41 -15
-63 -25 -21 -25 -24 -19 -113 7 -89 8 -92 38 -110 43 -25 169 -25 213 1 31 18
32 19 35 109 2 64 -1 94 -9 102 -7 6 -13 13 -13 15 0 2 56 3 125 1 70 -2 139
1 155 7 36 12 40 -1 5 -17 -24 -11 -24 -13 -18 -99 4 -65 10 -93 23 -107 36
-38 171 -43 231 -8 25 14 27 22 34 106 7 89 6 91 -19 111 -30 24 -34 50 -8 64
21 11 203 195 215 218 9 15 15 139 37 758 15 436 10 405 77 456 79 60 184 170
254 269 83 115 198 354 255 530 42 128 53 150 91 190 99 104 82 221 -46 306
-160 106 -572 193 -996 209 -296 11 -346 12 -535 4z m555 -39 c601 -40 1009
-158 1040 -299 29 -135 -374 -266 -954 -311 -175 -13 -635 -13 -815 1 -457 34
-825 129 -931 239 -24 25 -26 33 -20 69 11 67 89 120 255 175 325 106 926 159
1425 126z m-1675 -379 c0 -5 24 -25 53 -44 221 -151 830 -238 1507 -216 535
18 979 112 1123 238 48 42 49 19 3 -36 -161 -187 -880 -311 -1586 -274 -577
31 -1037 154 -1104 295 -19 40 -20 46 -6 46 6 0 10 -4 10 -9z m2610 -177 c0
-8 -4 -12 -10 -9 -5 3 -35 -6 -67 -21 -32 -14 -80 -32 -108 -39 -27 -8 -58
-17 -67 -20 -11 -4 -18 -3 -18 4 0 6 9 11 19 11 22 0 167 52 209 75 35 18 42
18 42 -1z m-2411 -30 c12 -11 -10 -14 -28 -4 -26 14 -26 13 4 -62 29 -70 28
-68 15 -68 -7 0 -50 121 -50 144 0 6 50 -3 59 -10z m2391 -38 c-9 -39 -16 -53
-25 -44 -3 2 3 23 12 46 19 51 25 50 13 -2z m-2290 -3 c0 -2 -10 -1 -22 3 -13
4 -32 7 -42 8 -11 1 -21 6 -23 13 -3 9 8 8 41 -3 25 -9 46 -18 46 -21z m2245
-35 c-10 -29 -21 -57 -26 -62 -5 -6 -9 -16 -9 -24 0 -8 -7 -30 -16 -50 -9 -21
-20 -46 -24 -57 -16 -41 -85 -172 -123 -235 -63 -104 -174 -231 -272 -315 -87
-74 -249 -168 -327 -190 -5 -2 -9 -3 -10 -5 -2 -1 -19 -4 -38 -7 -19 -2 -38
-9 -41 -15 -4 -6 -25 -10 -48 -10 -22 0 -41 -3 -41 -8 0 -5 -94 -9 -210 -9
-115 0 -210 3 -210 7 0 5 -19 9 -42 11 -23 1 -47 6 -53 10 -5 5 -27 11 -47 15
-21 4 -61 17 -90 30 -29 13 -60 26 -68 30 -69 29 -253 185 -330 280 -64 77
-160 216 -160 229 0 5 -9 21 -19 35 -15 22 -65 133 -110 247 -14 34 -41 120
-41 128 0 4 8 3 18 -2 11 -6 31 -12 45 -15 14 -2 56 -14 94 -25 90 -26 254
-60 323 -67 30 -2 107 -12 170 -20 63 -9 130 -13 147 -11 18 3 35 1 39 -4 3
-5 47 -10 97 -9 51 0 154 -2 230 -5 93 -4 137 -3 137 5 0 6 36 10 103 9 130
-2 144 -2 236 11 42 5 104 12 138 15 34 2 94 11 134 19 39 9 75 13 80 11 4 -3
10 -1 13 4 3 5 30 12 59 16 28 4 59 11 68 16 9 4 47 17 85 28 38 10 87 26 109
34 22 8 42 14 44 12 1 -2 -5 -28 -14 -57z m-2116 6 c53 -15 108 -26 124 -26
15 0 27 -4 27 -9 0 -13 -15 -11 -95 10 -38 10 -76 16 -82 14 -7 -3 -13 0 -13
7 0 6 -4 9 -9 5 -6 -3 -25 1 -43 9 -52 23 -14 18 91 -10z m1901 6 c0 -9 -20
-14 -41 -12 -3 1 -28 -6 -54 -14 -27 -7 -55 -14 -64 -13 -9 0 20 11 64 24 96
28 95 28 95 15z m-180 -39 c0 -8 -47 -21 -76 -21 -26 0 -14 19 14 23 50 7 62
7 62 -2z m420 2 c0 -5 -5 -15 -10 -23 -7 -12 -9 -10 -7 8 1 19 17 33 17 15z
m-1875 -18 l70 -13 -60 3 c-33 2 -62 5 -65 6 -3 0 -15 0 -27 -1 -13 -1 -23 3
-23 9 0 14 18 13 105 -4z m1355 -2 c0 -5 -26 -9 -58 -9 -47 -1 -51 0 -22 6 49
10 80 11 80 3z m-1237 -20 c-7 -2 -21 -2 -30 0 -10 3 -4 5 12 5 17 0 24 -2 18
-5z m87 -9 c0 -2 -16 -4 -36 -4 -19 0 -33 4 -30 8 5 8 66 4 66 -4z m965 6 c4
-6 -9 -10 -32 -9 -38 1 -38 1 -8 9 17 4 31 8 32 9 1 0 5 -3 8 -9z m58 3 c-7
-2 -21 -2 -30 0 -10 3 -4 5 12 5 17 0 24 -2 18 -5z m-1693 -75 c1 -19 -18 -6
-23 15 -2 12 -8 31 -11 42 -4 11 2 4 13 -15 11 -19 20 -38 21 -42z m785 62
c-3 -5 -26 -10 -51 -10 -24 0 -44 5 -44 10 0 6 23 10 51 10 31 0 48 -4 44 -10z
m775 0 c0 -5 -22 -10 -50 -10 -27 0 -50 5 -50 10 0 6 23 10 50 10 28 0 50 -4
50 -10z m755 -12 c-13 -48 -93 -224 -133 -293 -16 -29 -68 -109 -104 -163 -36
-53 -145 -167 -219 -229 -71 -58 -79 -68 -80 -101 l-2 -37 -6 33 -6 33 -25
-23 c-13 -13 -28 -22 -32 -21 -5 2 -8 -1 -8 -6 0 -11 -39 -26 -57 -23 -8 2
-10 -3 -6 -14 4 -12 3 -15 -5 -10 -7 4 -12 11 -12 16 0 13 56 41 65 32 3 -4 5
-2 3 3 -2 6 0 11 5 12 12 4 121 86 129 97 4 6 12 11 17 11 12 0 215 205 204
205 -5 0 -1 6 8 13 29 23 123 174 172 277 6 14 16 28 22 32 5 4 7 8 2 8 -4 0
2 19 14 41 11 23 22 49 24 58 6 27 24 71 30 71 4 0 4 -10 0 -22z m-865 0 c0
-4 -146 -7 -325 -7 -179 0 -325 4 -325 8 0 4 146 7 325 7 179 0 325 -3 325 -8z
m-1420 -126 c14 -31 23 -57 21 -57 -3 0 7 -18 20 -40 14 -22 30 -51 37 -65 12
-24 34 -59 93 -146 49 -72 144 -178 199 -222 30 -24 73 -60 95 -80 22 -20 54
-44 70 -53 17 -8 39 -20 50 -26 11 -6 39 -19 62 -28 23 -10 40 -22 36 -27 -3
-6 3 -7 17 -3 17 6 21 4 14 -6 -6 -12 -5 -12 9 0 18 14 20 12 11 -13 -7 -17
-21 -13 -84 23 -24 14 -51 26 -58 27 -8 2 -21 9 -30 16 -10 8 -29 22 -44 31
l-28 17 6 -29 c3 -16 1 -37 -5 -48 -8 -15 -10 -9 -11 29 0 64 -4 71 -68 119
-109 79 -252 248 -328 384 -65 117 -128 255 -116 255 4 0 18 -26 32 -58z
m1693 -1152 c-13 -256 -21 -498 -18 -539 7 -88 2 -96 -89 -139 -92 -45 -191
-69 -286 -71 -47 -1 -89 -7 -94 -12 -13 -12 -189 -12 -202 0 -5 5 -40 11 -79
14 -95 7 -179 30 -279 77 l-85 39 -4 98 c-2 54 -7 177 -11 273 -3 96 -12 294
-20 440 -7 146 -12 266 -11 268 2 2 45 -18 95 -44 51 -26 107 -50 124 -55 17
-4 56 -15 86 -24 30 -9 80 -18 110 -21 100 -11 295 -12 307 -2 7 5 17 7 22 3
12 -7 160 22 176 35 5 4 28 11 50 15 22 4 48 14 58 23 9 8 20 12 23 9 4 -4 19
3 35 13 31 23 113 70 114 67 1 -1 -9 -211 -22 -467z m-111 418 c-4 -3 -16 -8
-27 -10 -11 -1 -25 -10 -32 -18 -6 -8 -15 -11 -19 -7 -5 4 -2 12 6 17 17 11 9
13 -14 4 -9 -3 -12 -12 -9 -22 4 -9 3 -14 -2 -10 -4 4 -24 0 -43 -8 -20 -8
-42 -12 -49 -10 -7 3 -13 1 -13 -5 0 -6 -7 -9 -15 -6 -8 4 -16 3 -19 -1 -14
-22 -486 -22 -486 0 0 4 5 8 12 8 6 0 9 3 6 6 -3 3 -16 -1 -28 -8 -17 -10 -24
-10 -27 -1 -2 7 -11 9 -19 6 -8 -3 -14 0 -14 7 0 6 -4 8 -10 5 -15 -9 -40 8
-32 22 8 13 52 6 52 -7 0 -5 9 -6 20 -3 11 3 20 1 20 -3 0 -23 520 -26 520 -3
0 5 93 32 105 30 3 0 29 10 57 23 36 15 55 19 60 12 4 -6 4 -14 0 -18z m153
-178 c-4 -111 -10 -199 -12 -196 -3 3 -2 95 2 206 4 110 10 199 12 196 3 -3 2
-95 -2 -206z m-1238 8 c-2 -29 -3 -6 -3 52 0 58 1 81 3 53 2 -29 2 -77 0 -105z
m10 -210 c-2 -29 -3 -6 -3 52 0 58 1 81 3 53 2 -29 2 -77 0 -105z m1210 -160
c-2 -29 -3 -6 -3 52 0 58 1 81 3 53 2 -29 2 -77 0 -105z m-1200 -40 c-2 -29
-3 -8 -3 47 0 55 1 79 3 53 2 -26 2 -71 0 -100z m1203 -123 c0 -57 -4 -95 -10
-95 -6 0 -10 38 -10 95 0 57 4 95 10 95 6 0 10 -38 10 -95z m-1190 -40 c0 -57
-4 -95 -10 -95 -6 0 -10 38 -10 95 0 57 4 95 10 95 6 0 10 -38 10 -95z m1173
-301 c-4 -11 -54 -64 -109 -117 -98 -94 -104 -98 -177 -116 -185 -48 -450 -46
-595 3 -69 23 -87 36 -264 192 l-38 33 0 95 c0 57 4 96 10 96 6 0 10 -39 10
-96 0 -94 1 -96 30 -122 17 -15 38 -27 48 -27 9 0 16 -6 15 -12 -4 -16 54 -46
73 -39 8 3 13 2 10 -3 -7 -11 120 -48 209 -61 89 -12 273 -12 393 0 102 11
242 53 275 82 22 19 22 19 -8 2 l-30 -16 25 21 c23 19 35 24 51 23 3 -1 18 14
33 32 28 31 29 35 27 139 -1 59 2 113 6 120 10 16 16 -203 6 -229z m-1008 -94
c3 -6 -1 -7 -9 -4 -18 7 -21 14 -7 14 6 0 13 -4 16 -10z m825 -20 c0 -5 -10
-10 -22 -9 -22 0 -22 1 -3 9 11 5 21 9 23 9 1 1 2 -3 2 -9z m-703 -16 c-3 -3
-12 -4 -19 -1 -8 3 -5 6 6 6 11 1 17 -2 13 -5z m73 -14 c20 -6 21 -8 5 -8 -11
0 -31 4 -45 8 -20 6 -21 8 -5 8 11 0 31 -4 45 -8z m543 3 c-7 -2 -19 -2 -25 0
-7 3 -2 5 12 5 14 0 19 -2 13 -5z m-433 -13 c0 -5 -16 -10 -35 -10 -19 0 -35
5 -35 10 0 6 16 10 35 10 19 0 35 -4 35 -10z m330 0 c0 -6 -27 -10 -60 -10
-33 0 -60 4 -60 10 0 6 27 10 60 10 33 0 60 -4 60 -10z m53 3 c-7 -2 -19 -2
-25 0 -7 3 -2 5 12 5 14 0 19 -2 13 -5z m-245 -10 c-21 -2 -55 -2 -75 0 -21 2
-4 4 37 4 41 0 58 -2 38 -4z m-215 -133 c25 0 21 -29 -6 -35 -13 -4 -48 -5
-78 -3 l-54 3 -3 37 -3 37 63 -20 c35 -10 71 -19 81 -19z m547 6 c0 -39 -16
-49 -82 -48 -104 2 -104 33 0 59 42 11 78 21 80 22 1 0 2 -14 2 -33z m-696
-51 c26 -20 136 -20 162 0 24 18 44 19 44 1 0 -15 -70 -36 -120 -36 -50 0
-120 21 -120 36 0 18 10 17 34 -1z m540 0 c26 -20 122 -19 160 0 35 18 36 18
36 1 0 -18 -18 -24 -85 -32 -63 -8 -155 11 -155 32 0 18 20 17 44 -1z m-554
-36 c13 -9 13 -10 -2 -5 -12 3 -18 -2 -21 -22 -4 -24 -4 -24 -6 6 -1 34 5 38
29 21z m215 1 c-3 -5 -12 -10 -18 -10 -7 0 -6 4 3 10 19 12 23 12 15 0z m317
-8 c-7 -2 -12 -25 -12 -57 0 -64 12 -74 105 -86 l60 -8 -61 3 c-38 1 -72 9
-88 19 -24 16 -26 23 -26 82 0 56 2 64 17 58 11 -4 12 -8 5 -11z m228 -39 c0
-64 -5 -75 -37 -92 -34 -18 -41 -13 -9 7 27 16 29 23 30 74 1 50 -1 55 -16 47
-9 -5 -25 -9 -35 -8 -15 0 35 24 60 28 4 0 7 -25 7 -56z m-713 31 c-3 -3 -12
-4 -19 -1 -8 3 -5 6 6 6 11 1 17 -2 13 -5z m78 -4 c4 -6 -7 -10 -24 -10 -17 0
-31 5 -31 10 0 6 11 10 24 10 14 0 28 -4 31 -10z m52 4 c-3 -3 -12 -4 -19 -1
-8 3 -5 6 6 6 11 1 17 -2 13 -5z m400 0 c-3 -3 -12 -4 -19 -1 -8 3 -5 6 6 6
11 1 17 -2 13 -5z m83 -4 c0 -5 -14 -10 -31 -10 -17 0 -28 4 -24 10 3 6 17 10
31 10 13 0 24 -4 24 -10z m-560 -31 c14 0 40 3 58 6 31 7 32 7 32 -29 0 -43
-16 -49 -110 -44 -62 3 -62 3 -75 41 l-13 39 41 -6 c23 -4 53 -7 67 -7z m120
-29 c0 -31 -5 -43 -26 -56 -38 -25 -116 -30 -169 -9 -41 15 -45 20 -44 48 2
32 2 32 6 4 8 -51 112 -74 188 -43 32 14 35 19 35 55 0 23 2 41 5 41 3 0 5
-18 5 -40z m500 31 c0 -3 3 -16 6 -28 8 -31 -35 -50 -110 -47 -63 2 -76 11
-76 55 l0 26 90 0 c50 0 90 -3 90 -6z"/>
<path d="M1255 3279 c-503 -21 -879 -113 -943 -229 -21 -38 -2 -74 60 -113
103 -66 285 -112 583 -149 245 -30 842 -33 1090 -5 266 30 490 78 585 127 321
164 -88 336 -875 370 -126 5 -250 9 -275 8 -25 0 -126 -5 -225 -9z m775 -33
c369 -41 606 -106 673 -185 35 -42 35 -62 0 -29 -41 37 -78 59 -88 51 -4 -5
-5 -3 -2 3 8 14 -20 27 -35 17 -7 -4 -8 -1 -3 7 6 10 4 12 -9 7 -10 -4 -15 -3
-11 3 9 14 -8 12 -24 -2 -11 -11 -13 -10 -8 3 9 26 -207 75 -453 104 -487 57
-1109 28 -1462 -67 -43 -12 -75 -25 -71 -31 3 -5 -3 -6 -16 -2 -12 4 -21 2
-21 -4 0 -6 -7 -7 -17 -4 -11 4 -14 3 -9 -5 5 -8 1 -10 -10 -5 -12 4 -15 3
-10 -5 5 -8 1 -10 -10 -5 -13 5 -15 3 -9 -7 5 -8 4 -11 -3 -6 -6 3 -17 0 -25
-9 -8 -8 -21 -16 -28 -17 -8 -2 -22 -13 -32 -26 -19 -23 -19 -23 4 -48 12 -13
20 -26 17 -29 -9 -9 -48 46 -48 67 0 51 117 114 297 158 121 30 349 63 553 79
168 14 687 5 860 -13z m-630 -16 c0 -6 -38 -9 -97 -9 -70 1 -88 4 -63 9 54 11
160 11 160 0z m193 3 c-29 -2 -78 -2 -110 0 -32 2 -8 3 52 3 61 0 87 -1 58 -3z
m222 -3 c21 -5 2 -8 -62 -9 -56 -1 -93 3 -93 9 0 12 110 12 155 0z m-625 -10
c0 -5 -20 -10 -45 -10 -25 0 -45 5 -45 10 0 6 20 10 45 10 25 0 45 -4 45 -10z
m760 0 c0 -5 -20 -10 -45 -10 -25 0 -45 5 -45 10 0 6 20 10 45 10 25 0 45 -4
45 -10z m-892 -7 c-10 -2 -26 -2 -35 0 -10 3 -2 5 17 5 19 0 27 -2 18 -5z
m980 0 c-10 -2 -28 -2 -40 0 -13 2 -5 4 17 4 22 1 32 -1 23 -4z m-1060 -10
c-10 -2 -26 -2 -35 0 -10 3 -2 5 17 5 19 0 27 -2 18 -5z m747 -4 c309 -5 761
-78 888 -144 76 -40 81 -44 61 -66 -36 -40 -293 -117 -444 -134 -30 -3 -107
-13 -170 -21 -182 -24 -291 -28 -780 -24 -30 0 -122 7 -205 16 -82 8 -175 17
-205 19 -114 9 -366 73 -451 116 -58 29 -65 44 -32 67 15 11 46 27 68 36 55
23 301 85 355 90 25 2 45 5 45 6 0 1 18 3 40 5 22 2 108 11 190 20 95 10 180
13 231 9 58 -5 83 -3 89 5 5 9 42 11 133 6 70 -3 154 -6 187 -6z m393 4 c-10
-2 -26 -2 -35 0 -10 3 -2 5 17 5 19 0 27 -2 18 -5z m-1210 -10 c-10 -2 -26 -2
-35 0 -10 3 -2 5 17 5 19 0 27 -2 18 -5z m1275 0 c-7 -2 -21 -2 -30 0 -10 3
-4 5 12 5 17 0 24 -2 18 -5z m-1393 -13 c0 -5 -8 -10 -17 -10 -15 0 -16 2 -3
10 19 12 20 12 20 0z m53 3 c-7 -2 -19 -2 -25 0 -7 3 -2 5 12 5 14 0 19 -2 13
-5z m1390 0 c-7 -2 -19 -2 -25 0 -7 3 -2 5 12 5 14 0 19 -2 13 -5z m57 -9 c0
-2 -7 -4 -15 -4 -8 0 -15 4 -15 10 0 5 7 7 15 4 8 -4 15 -8 15 -10z m-1550 -4
c0 -5 -4 -10 -10 -10 -5 0 -10 5 -10 10 0 6 5 10 10 10 6 0 10 -4 10 -10z
m1590 0 c0 -5 -4 -10 -10 -10 -5 0 -10 5 -10 10 0 6 5 10 10 10 6 0 10 -4 10
-10z m47 -6 c-3 -3 -12 -4 -19 -1 -8 3 -5 6 6 6 11 1 17 -2 13 -5z m40 -10
c-3 -3 -12 -4 -19 -1 -8 3 -5 6 6 6 11 1 17 -2 13 -5z m-1820 -20 c-3 -3 -12
-4 -19 -1 -8 3 -5 6 6 6 11 1 17 -2 13 -5z m2103 -159 c-23 -24 -59 -46 -107
-66 -43 -16 -23 0 30 25 29 13 61 34 71 45 11 12 21 21 24 21 3 0 -5 -11 -18
-25z m-2225 -73 c-5 -5 -95 42 -95 50 0 4 22 -4 49 -19 27 -16 48 -29 46 -31z
m55 -12 c0 -5 -9 -6 -20 -3 -11 3 -20 9 -20 13 0 5 9 6 20 3 11 -3 20 -9 20
-13z m2010 6 c0 -3 -4 -8 -10 -11 -5 -3 -10 -1 -10 4 0 6 5 11 10 11 6 0 10
-2 10 -4z m-1965 -16 c13 -6 15 -9 5 -9 -8 0 -22 4 -30 9 -18 12 -2 12 25 0z
m1890 -10 c-11 -5 -27 -9 -35 -9 -9 0 -8 4 5 9 11 5 27 9 35 9 9 0 8 -4 -5 -9z
m-1805 -10 c0 -5 -8 -10 -17 -10 -15 0 -16 2 -3 10 19 12 20 12 20 0z m1745 0
c3 -5 1 -10 -4 -10 -6 0 -11 5 -11 10 0 6 2 10 4 10 3 0 8 -4 11 -10z m-1715
-10 c0 -5 -4 -10 -10 -10 -5 0 -10 5 -10 10 0 6 5 10 10 10 6 0 10 -4 10 -10z
m1680 0 c0 -5 -4 -10 -10 -10 -5 0 -10 5 -10 10 0 6 5 10 10 10 6 0 10 -4 10
-10z m-1630 -4 c0 -11 -19 -15 -25 -6 -3 5 1 10 9 10 9 0 16 -2 16 -4z m1600
0 c0 -2 -7 -6 -15 -10 -8 -3 -15 -1 -15 4 0 6 7 10 15 10 8 0 15 -2 15 -4z
m-1557 -13 c-7 -2 -19 -2 -25 0 -7 3 -2 5 12 5 14 0 19 -2 13 -5z m1510 0 c-7
-2 -19 -2 -25 0 -7 3 -2 5 12 5 14 0 19 -2 13 -5z m-1460 -10 c-7 -2 -19 -2
-25 0 -7 3 -2 5 12 5 14 0 19 -2 13 -5z m1410 0 c-7 -2 -21 -2 -30 0 -10 3 -4
5 12 5 17 0 24 -2 18 -5z m-1340 -10 c-7 -2 -21 -2 -30 0 -10 3 -4 5 12 5 17
0 24 -2 18 -5z m77 -3 c0 -5 -10 -10 -22 -10 -19 0 -20 2 -8 10 19 13 30 13
30 0z m1120 0 c12 -8 11 -10 -7 -10 -13 0 -23 5 -23 10 0 13 11 13 30 0z m73
3 c-7 -2 -21 -2 -30 0 -10 3 -4 5 12 5 17 0 24 -2 18 -5z m-1113 -13 c0 -12
-17 -12 -45 0 -17 7 -15 9 13 9 17 1 32 -3 32 -9z m962 -2 c-17 -8 -26 -8 -34
0 -9 9 -4 12 23 11 32 0 33 -1 11 -11z m-852 -6 c0 -4 -17 -6 -37 -4 -59 5
-63 10 -10 11 26 1 47 -3 47 -7z m778 1 c-16 -2 -40 -2 -55 0 -16 2 -3 4 27 4
30 0 43 -2 28 -4z m-640 -10 c-21 -2 -55 -2 -75 0 -21 2 -4 4 37 4 41 0 58 -2
38 -4z m510 0 c-21 -2 -55 -2 -75 0 -21 2 -4 4 37 4 41 0 58 -2 38 -4z m-245
-10 c-23 -2 -64 -2 -90 0 -26 2 -7 3 42 3 50 0 71 -1 48 -3z"/>
<path d="M1207 1332 c-14 -15 -17 -40 -17 -120 0 -97 1 -102 24 -117 19 -13
29 -14 45 -6 14 8 27 8 47 -1 24 -11 29 -10 54 19 20 23 30 28 34 18 3 -8 17
-21 31 -31 20 -13 31 -14 49 -6 14 6 28 7 40 0 21 -12 66 14 66 38 0 11 9 6
31 -15 34 -34 41 -36 71 -20 14 8 23 8 31 0 17 -17 36 -13 62 14 l25 24 25
-24 c29 -30 36 -31 66 -6 23 18 23 18 5 64 -13 35 -15 51 -7 66 17 31 13 58
-13 88 -24 27 -27 28 -128 29 -105 2 -138 -9 -138 -42 0 -7 -13 1 -29 17 -29
29 -64 38 -76 19 -4 -7 -13 -6 -27 1 -27 14 -68 -6 -68 -35 0 -17 -4 -16 -31
12 -34 34 -49 38 -81 21 -14 -8 -23 -8 -31 0 -16 16 -42 13 -60 -7z m58 -117
c0 -102 -1 -105 -22 -105 -22 0 -23 3 -23 105 0 102 1 105 23 105 21 0 22 -3
22 -105z m125 35 c23 -38 45 -70 47 -70 3 0 3 32 1 70 -5 68 -5 70 18 70 24 0
24 -1 24 -105 0 -102 -1 -105 -23 -105 -12 0 -29 10 -37 23 -7 12 -29 47 -48
77 l-34 55 4 -77 c5 -76 5 -78 -19 -78 -23 0 -23 1 -23 105 0 104 0 105 24
105 19 0 33 -15 66 -70z m205 0 c22 -38 42 -70 45 -70 3 0 4 32 2 70 -4 68 -4
70 19 70 24 0 24 -1 24 -105 0 -102 -1 -105 -22 -105 -16 0 -32 16 -59 57 -20
31 -40 66 -44 77 -6 14 -9 -4 -9 -56 -1 -71 -3 -78 -21 -78 -19 0 -20 7 -20
105 0 102 1 105 23 105 17 0 31 -16 62 -70z m259 54 c20 -19 21 -58 1 -77 -13
-13 -12 -21 10 -62 30 -56 30 -55 2 -55 -17 0 -28 11 -42 43 -14 28 -27 43
-42 45 -21 3 -23 -1 -23 -42 0 -41 -2 -46 -22 -46 -22 0 -23 3 -23 105 l0 105
62 0 c43 0 66 -5 77 -16z"/>
<path d="M1758 1259 c-5 -29 -4 -30 31 -27 58 5 54 57 -5 58 -17 0 -23 -7 -26
-31z"/>
<path d="M1348 1623 c6 -2 18 -2 25 0 6 3 1 5 -13 5 -14 0 -19 -2 -12 -5z"/>
<path d="M1698 1623 c7 -3 16 -2 19 1 4 3 -2 6 -13 5 -11 0 -14 -3 -6 -6z"/>
<path d="M1478 1613 c34 -2 88 -2 120 0 31 2 3 3 -63 3 -66 0 -92 -1 -57 -3z"/>
</g>
</svg>
